<svg width="40" height="42" viewBox="0 0 40 42" fill="none" xmlns="http://www.w3.org/2000/svg">
<path d="M38.0324 0.208984H1.58457C0.708036 0.208984 -0.00012207 0.953678 -0.00012207 1.87543V40.2037C-0.00012207 41.1255 0.708036 41.8702 1.58457 41.8702H38.0324C38.9089 41.8702 39.6171 41.1255 39.6171 40.2037V1.87543C39.6171 0.953678 38.9089 0.208984 38.0324 0.208984ZM33.4566 12.3688H30.2922C27.8112 12.3688 27.3308 13.6083 27.3308 15.4309V19.446H33.2536L32.4811 25.7317H27.3308V41.8702H21.1555V25.7369H15.9904V19.446H21.1555V14.8112C21.1555 9.43173 24.2803 6.49983 28.8462 6.49983C31.035 6.49983 32.9119 6.67168 33.4616 6.74979V12.3688H33.4566Z" fill="#DFDFDF"/>
</svg>
