<svg width="1920" height="1128" viewBox="0 0 1920 1128" fill="none" xmlns="http://www.w3.org/2000/svg">
<g clip-path="url(#clip0)">
<rect width="1920" height="1127.83" fill="white"/>
<rect x="-0.3125" width="1920" height="1127.83" fill="#011633"/>
<g filter="url(#filter0_d)">
<path d="M86.7859 330.805C117.809 330.805 140.977 335.623 156.291 345.26C171.604 354.765 179.261 368.692 179.261 387.042V390.21H158.865V387.438C158.865 373.841 152.792 363.874 140.647 357.537C128.634 351.069 110.548 347.834 86.3898 347.834C62.7595 347.834 45.3339 350.673 34.1128 356.349C23.0237 361.894 17.2152 371.267 16.6871 384.468H41.0435V401.894H16.8851V531.002H-3.90686V401.894H-28.0652V384.468H-3.90686C-3.37881 366.25 4.21192 352.785 18.8653 344.072C33.6507 335.227 56.2909 330.805 86.7859 330.805Z" fill="#0A2344"/>
<path d="M73.6733 469.616V489.022C73.6733 496.679 75.4554 502.883 79.0198 507.636C82.7161 512.256 88.3267 514.566 95.8514 514.566C102.452 514.566 107.601 512.454 111.297 508.23C114.993 503.873 116.841 498.197 116.841 491.2V488.428H137.039V491.398C137.039 504.203 133.409 514.302 126.148 521.695C118.888 528.956 108.987 532.586 96.4455 532.586C82.5841 532.586 71.8251 528.56 64.1684 520.507C56.5116 512.322 52.6833 501.365 52.6833 487.636V451.992H81.198C92.023 451.992 100.868 449.682 107.733 445.062C114.729 440.441 118.228 433.379 118.228 423.874C118.228 416.745 116.313 411.134 112.485 407.042C108.657 402.818 103.442 400.705 96.8415 400.705C90.2409 400.705 85.0264 402.818 81.198 407.042C77.3696 411.134 75.4555 416.745 75.4555 423.874C75.4555 425.59 75.5875 428.296 75.8515 431.992H55.2575C54.7295 428.032 54.4654 425.128 54.4654 423.28C54.4654 415.227 56.1816 408.164 59.6139 402.092C63.0463 395.887 67.9307 391.134 74.2673 387.834C80.736 384.402 88.2607 382.686 96.8415 382.686C109.647 382.686 119.878 386.448 127.534 393.973C135.323 401.365 139.218 411.794 139.218 425.26C139.218 439.649 134.465 450.672 124.96 458.329C115.587 465.854 103.442 469.616 88.5247 469.616H73.6733ZM204.564 384.468V401.894H180.406V531.002H159.416V384.468H204.564Z" fill="#0A2344"/>
<path d="M366.577 384.468V401.894H342.419V531.002H322.419V458.329H263.806C256.809 461.629 251.462 464.402 247.766 466.646C244.202 468.89 241.099 471.728 238.459 475.161C235.951 478.593 234.697 482.751 234.697 487.636C234.697 493.312 236.545 498.065 240.241 501.893C244.07 505.722 249.086 507.636 255.291 507.636C261.891 507.636 267.106 505.523 270.934 501.299C274.895 496.943 276.875 491.662 276.875 485.458H294.301V542.289H275.291V511.002C273.311 514.566 270.01 517.801 265.39 520.705C260.769 523.477 255.093 524.863 248.36 524.863C237.931 524.863 229.482 521.827 223.014 515.754C216.545 509.55 213.311 501.563 213.311 491.794C213.311 485.062 214.763 479.319 217.667 474.567C220.703 469.682 224.532 465.656 229.152 462.487C233.773 459.187 239.515 455.821 246.38 452.388C238.195 450.408 231.462 446.58 226.182 440.903C221.033 435.095 218.459 427.702 218.459 418.725C218.459 411.464 220.175 405.128 223.608 399.715C227.172 394.171 231.991 389.946 238.063 387.042C244.268 384.006 251.198 382.488 258.855 382.488C265.852 382.488 272.188 383.808 277.865 386.448C283.673 389.088 288.294 392.983 291.726 398.131C295.159 403.148 296.875 409.22 296.875 416.349C296.875 422.025 295.753 427.042 293.508 431.398C291.264 435.623 288.162 439.517 284.202 443.081H322.419V384.468H366.577ZM237.073 420.111C237.073 426.712 239.581 432.124 244.598 436.349C249.614 440.441 256.149 442.619 264.202 442.883C269.086 439.847 272.848 436.547 275.489 432.983C278.129 429.418 279.449 425.194 279.449 420.309C279.449 414.501 277.403 409.748 273.31 406.052C269.35 402.356 264.334 400.507 258.261 400.507C252.32 400.507 247.304 402.224 243.212 405.656C239.119 409.088 237.073 413.907 237.073 420.111Z" fill="#0A2344"/>
<path d="M381.302 531.002V401.894H357.144V384.468H426.252V401.894H402.094V531.002H381.302Z" fill="#0A2344"/>
</g>
<g filter="url(#filter1_d)">
<path d="M1288.88 272.242C1280.35 272.242 1272.68 270.892 1265.85 268.192C1259.03 265.492 1253.63 261.514 1249.66 256.256C1245.68 250.998 1243.69 244.675 1243.69 237.286C1243.69 229.897 1245.53 223.431 1249.23 217.889C1253.07 212.347 1259.11 208.084 1267.35 205.1V151.6H1378.82V166.947H1338.96V199.772H1342.38C1353.46 199.772 1362.41 200.624 1369.23 202.329C1376.05 203.892 1381.88 206.521 1386.71 210.216C1390.4 213.058 1393.32 216.823 1395.45 221.513C1397.58 226.06 1398.65 231.318 1398.65 237.286C1398.65 248.085 1395.38 256.469 1388.84 262.437C1382.45 268.405 1373.35 271.389 1361.56 271.389C1358.29 271.389 1354.74 271.176 1350.9 270.75C1347.06 270.324 1343.51 269.613 1340.24 268.619L1344.29 254.338C1348.98 255.759 1354.17 256.469 1359.85 256.469C1373.49 256.469 1380.32 249.79 1380.32 236.433C1380.32 229.897 1378.47 225.136 1374.77 222.152C1371.22 219.026 1366.67 217.037 1361.13 216.184C1355.59 215.189 1349.84 214.692 1343.87 214.692H1338.96V221.513C1338.96 231.033 1338.11 238.494 1336.41 243.893C1334.84 249.293 1332.57 253.84 1329.59 257.535C1325.18 262.935 1319.5 266.771 1312.53 269.045C1305.71 271.176 1297.83 272.242 1288.88 272.242ZM1284.19 166.947V201.05C1290.15 200.198 1296.76 199.772 1304.01 199.772H1320.85V166.947H1284.19ZM1262.02 237.073C1262.02 243.609 1264.72 248.583 1270.12 251.993C1275.52 255.261 1282.34 256.895 1290.58 256.895C1296.83 256.895 1302.16 255.972 1306.57 254.124C1311.11 252.135 1314.59 248.796 1317.01 244.106C1319.57 239.417 1320.85 232.81 1320.85 224.284V214.692H1302.52C1295.27 214.692 1289.09 215.118 1283.97 215.971C1279 216.823 1274.74 218.244 1271.18 220.234C1265.07 223.786 1262.02 229.399 1262.02 237.073Z" fill="#0A2344"/>
<path d="M1462.21 272.242C1454.68 272.242 1447.78 270.395 1441.53 266.7C1435.28 263.006 1430.31 257.18 1426.61 249.222C1423.06 241.122 1421.28 230.749 1421.28 218.102C1421.28 202.756 1424.19 189.967 1430.02 179.736C1435.99 169.504 1443.88 161.831 1453.68 156.716C1463.49 151.6 1474.14 149.042 1485.65 149.042C1492.47 149.042 1499.44 149.966 1506.54 151.813C1513.65 153.66 1519.9 157.284 1525.3 162.684C1531.27 168.51 1535.32 175.615 1537.45 183.999C1539.58 192.382 1540.65 203.04 1540.65 215.971C1540.65 223.36 1541.21 229.897 1542.35 235.58C1543.49 241.122 1545.83 245.741 1549.38 249.435C1553.65 254.124 1559.76 256.469 1567.71 256.469C1572.4 256.469 1576.67 255.332 1580.5 253.059C1584.34 250.785 1587.4 246.948 1589.67 241.549C1591.94 236.149 1593.08 228.689 1593.08 219.168C1593.08 205.1 1590.52 192.667 1585.41 181.867C1580.43 170.925 1574.11 161.334 1566.44 153.092L1583.06 141.795C1591.87 153.021 1598.83 164.815 1603.95 177.178C1609.07 189.54 1611.62 203.04 1611.62 217.676C1611.62 235.723 1607.72 249.364 1599.9 258.601C1592.23 267.695 1581 272.242 1566.22 272.242C1553.72 272.242 1543.77 268.69 1536.38 261.585C1527 252.917 1522.24 237.854 1522.1 216.397C1522.1 211.282 1521.82 206.024 1521.25 200.624C1520.68 195.224 1519.54 190.109 1517.84 185.277C1516.13 180.304 1513.43 176.112 1509.74 172.702C1506.9 170.144 1503.49 168.226 1499.51 166.947C1495.53 165.526 1490.63 164.815 1484.8 164.815C1472.01 164.815 1461.64 168.794 1453.68 176.751C1445.87 184.709 1440.96 195.082 1438.97 207.871C1442.81 205.313 1446.86 203.324 1451.12 201.903C1455.53 200.482 1460.07 199.772 1464.76 199.772C1475 199.772 1483.24 202.898 1489.49 209.15C1495.88 215.402 1499.08 223.857 1499.08 234.515C1499.08 246.309 1495.74 255.545 1489.06 262.224C1482.53 268.903 1473.57 272.242 1462.21 272.242ZM1461.78 214.692C1457.38 214.692 1453.18 215.616 1449.2 217.463C1445.37 219.168 1441.67 221.513 1438.12 224.497C1438.69 236.717 1441.32 245.314 1446.01 250.288C1450.7 255.261 1456.38 257.748 1463.06 257.748C1468.89 257.748 1473.43 255.972 1476.7 252.419C1479.97 248.725 1481.6 243.467 1481.6 236.646C1481.6 229.541 1479.76 224.142 1476.06 220.447C1472.37 216.61 1467.61 214.692 1461.78 214.692ZM1517.2 125.17C1513.08 125.17 1509.67 123.891 1506.97 121.333C1504.27 118.633 1502.92 115.152 1502.92 110.889C1502.92 106.768 1504.27 103.357 1506.97 100.657C1509.67 97.9575 1513.08 96.6076 1517.2 96.6076C1521.32 96.6076 1524.73 97.9575 1527.43 100.657C1530.13 103.357 1531.48 106.768 1531.48 110.889C1531.48 115.152 1530.13 118.633 1527.43 121.333C1524.73 123.891 1521.32 125.17 1517.2 125.17Z" fill="#0A2344"/>
<path d="M1678.06 272.242C1670.53 272.242 1663.64 270.395 1657.39 266.7C1651.13 262.864 1646.16 256.966 1642.47 249.009C1638.91 241.051 1637.14 230.678 1637.14 217.889C1637.14 202.685 1640.12 189.967 1646.09 179.736C1652.2 169.504 1660.23 161.831 1670.17 156.716C1680.12 151.6 1690.92 149.042 1702.57 149.042C1717.07 149.042 1728.79 151.813 1737.74 157.355C1746.69 162.897 1753.23 170.286 1757.35 179.522C1761.62 188.617 1763.75 198.777 1763.75 210.003C1763.75 219.097 1762.75 227.197 1760.76 234.302C1758.77 241.407 1756.36 248.085 1753.52 254.338H1810.43V151.6H1828.76V269.684H1734.76L1733.91 256.256C1737.17 251.282 1739.8 245.172 1741.79 237.925C1743.92 230.536 1744.99 222.01 1744.99 212.347C1744.99 197.143 1741.08 185.42 1733.27 177.178C1725.45 168.936 1714.94 164.815 1701.72 164.815C1688.65 164.815 1677.99 168.865 1669.75 176.965C1661.65 184.922 1656.68 195.224 1654.83 207.871C1658.52 205.455 1662.57 203.537 1666.98 202.116C1671.38 200.553 1675.93 199.772 1680.62 199.772C1690.85 199.772 1699.09 202.898 1705.34 209.15C1711.74 215.402 1714.94 223.857 1714.94 234.515C1714.94 246.309 1711.6 255.545 1704.92 262.224C1698.38 268.903 1689.43 272.242 1678.06 272.242ZM1677.63 214.692C1673.37 214.692 1669.25 215.616 1665.27 217.463C1661.29 219.168 1657.6 221.513 1654.19 224.497C1654.76 236.717 1657.39 245.314 1662.07 250.288C1666.76 255.261 1672.38 257.748 1678.91 257.748C1684.46 257.748 1688.93 255.972 1692.34 252.419C1695.75 248.725 1697.46 243.467 1697.46 236.646C1697.46 229.541 1695.61 224.142 1691.92 220.447C1688.22 216.61 1683.46 214.692 1677.63 214.692Z" fill="#0A2344"/>
<path d="M1819.79 90C1837.7 90 1852.48 94.9024 1864.13 104.707C1868.11 107.976 1871.59 112.096 1874.57 117.07C1877.7 121.901 1880.11 128.225 1881.82 136.04C1883.67 143.713 1884.59 153.518 1884.59 165.455V269.684H1866.26V171.423C1866.26 160.197 1865.62 151.103 1864.34 144.14C1863.2 137.035 1861.43 131.422 1859.01 127.301C1856.74 123.038 1853.97 119.486 1850.7 116.644C1846.72 112.949 1842.03 110.249 1836.63 108.544C1831.23 106.839 1825.76 105.986 1820.22 105.986C1808.71 105.986 1799.76 108.828 1793.36 114.512C1786.97 120.196 1783.77 127.869 1783.77 137.532C1783.77 147.763 1786.4 155.65 1791.66 161.192C1796.92 166.591 1804.02 170.002 1812.97 171.423V186.556C1804.16 185.562 1796.13 183.075 1788.89 179.096C1781.64 175.117 1775.96 169.647 1771.83 162.684C1767.57 155.721 1765.44 147.266 1765.44 137.319C1765.44 126.804 1767.93 118.065 1772.9 111.102C1777.73 104.139 1784.27 98.8812 1792.51 95.3287C1800.75 91.7762 1809.85 90 1819.79 90Z" fill="#0A2344"/>
</g>
<g filter="url(#filter2_d)">
<path d="M-144.629 755.359C-130.561 755.359 -118.909 758.13 -109.673 763.671C-100.436 769.071 -93.5445 776.389 -88.9973 785.626C-84.3081 794.72 -81.9634 804.88 -81.9634 816.106C-81.9634 826.337 -83.5976 835.005 -86.8659 842.11C-90.1341 849.215 -94.1129 855.538 -98.8022 861.08H-46.5808V757.916H-28.25V876.001H-117.772L-125.019 863.425C-120.899 860.583 -116.991 857.101 -113.296 852.981C-109.602 848.86 -106.618 843.957 -104.344 838.273C-102.07 832.447 -100.934 825.769 -100.934 818.237C-100.934 808.859 -102.639 800.617 -106.049 793.512C-109.46 786.407 -114.504 780.865 -121.183 776.887C-127.719 772.766 -135.819 770.705 -145.482 770.705C-154.86 770.705 -162.889 772.837 -169.568 777.1C-176.104 781.221 -181.149 786.834 -184.701 793.938C-188.254 801.043 -190.03 809.001 -190.03 817.811C-190.03 828.895 -187.685 838.202 -182.996 845.734C-178.307 853.265 -171.983 859.517 -164.026 864.491L-174.683 877.919C-180.793 874.367 -186.477 869.819 -191.735 864.277C-196.851 858.594 -201.042 851.844 -204.311 844.028C-207.437 836.071 -209 827.048 -209 816.959C-209 805.306 -206.513 794.862 -201.54 785.626C-196.566 776.247 -189.319 768.858 -179.799 763.458C-170.136 758.058 -158.413 755.359 -144.629 755.359Z" fill="#0A2344"/>
<path d="M-20.3618 696.316C-9.84652 696.316 -1.53372 698.661 4.57654 703.35C8.55531 706.334 11.6815 709.887 13.9551 714.008C16.2287 717.987 17.8628 723.244 18.8575 729.781C19.8522 736.175 20.3495 744.63 20.3495 755.145V876.001H2.01875V760.474C2.01875 749.532 1.52141 740.722 0.526718 734.044C-0.325876 727.223 -1.96002 722.036 -4.3757 718.484C-6.08089 716.21 -8.21237 714.434 -10.7702 713.155C-13.1858 711.876 -16.241 711.237 -19.9355 711.237C-23.0617 711.237 -26.1169 711.947 -29.1009 713.368C-32.2271 714.647 -34.7849 716.779 -36.7743 719.763C-38.7637 722.605 -39.7584 726.512 -39.7584 731.486C-39.7584 732.765 -39.6163 734.115 -39.3321 735.536C-39.19 736.815 -39.0479 738.094 -38.9058 739.372L-56.8103 742.57C-57.0945 740.864 -57.3786 739.159 -57.6628 737.454C-57.947 735.607 -58.0891 733.902 -58.0891 732.339C-58.0891 724.239 -56.3129 717.56 -52.7604 712.303C-49.35 706.903 -44.7318 702.924 -38.9058 700.366C-33.2218 697.666 -27.0405 696.316 -20.3618 696.316Z" fill="#0A2344"/>
<path d="M114.889 755.359C130.094 755.359 141.604 758.556 149.419 764.95C157.377 771.345 161.356 779.16 161.356 788.397C161.356 795.075 159.721 800.759 156.453 805.448C153.327 810.138 148.14 813.974 140.893 816.959C148.283 819.516 153.895 823.282 157.732 828.255C161.711 833.229 163.7 838.984 163.7 845.52C163.7 855.894 160.148 863.993 153.043 869.819C145.938 875.503 136.062 878.345 123.415 878.345C118.3 878.345 113.895 878.061 110.2 877.493C106.505 877.066 103.237 876.569 100.395 876.001L104.232 861.293C107.358 861.862 110.342 862.359 113.184 862.785C116.026 863.212 118.939 863.425 121.923 863.425C129.312 863.425 134.996 862.075 138.975 859.375C143.096 856.533 145.156 851.844 145.156 845.307C145.156 842.607 144.659 840.05 143.664 837.634C142.67 835.218 141.035 833.087 138.762 831.239C136.488 829.25 133.646 827.687 130.236 826.55C126.826 825.413 121.355 824.845 113.824 824.845H104.019V809.925H113.61C119.01 809.925 123.77 809.427 127.891 808.433C132.012 807.438 135.28 805.733 137.696 803.317C141.107 800.333 142.812 795.928 142.812 790.102C142.812 783.707 140.325 778.876 135.352 775.608C130.378 772.339 123.415 770.705 114.463 770.705C102.953 770.705 93.5744 773.334 86.3273 778.592C79.0803 783.707 73.7516 790.741 70.3412 799.693C66.9308 808.504 65.2256 818.522 65.2256 829.747C65.2256 837.137 65.6519 844.668 66.5045 852.341C67.3571 860.015 68.7071 867.262 70.5544 874.082L53.0762 876.853C50.9447 869.89 49.3105 862.075 48.1737 853.407C47.0369 844.739 46.4686 836.71 46.4686 829.321C46.4686 814.685 48.9553 801.825 53.9287 790.741C59.0443 779.658 66.6466 770.989 76.7357 764.737C86.9668 758.485 99.6847 755.359 114.889 755.359Z" fill="#0A2344"/>
<path d="M160.636 890.282C160.21 892.413 159.997 894.616 159.997 896.889C159.997 900.158 160.565 903.497 161.702 906.907C162.839 910.318 164.97 913.089 168.096 915.22C171.223 917.494 175.699 918.63 181.525 918.63C189.198 918.63 194.74 916.641 198.15 912.662C201.703 908.683 203.479 903.213 203.479 896.25C203.479 892.697 203.124 889.145 202.413 885.592C201.703 882.182 200.495 878.274 198.79 873.869C197.227 869.322 195.095 863.78 192.395 857.244C189.696 850.565 187.209 843.531 184.935 836.142C182.662 828.753 181.525 820.724 181.525 812.056C181.525 802.82 183.017 793.441 186.001 783.92C189.127 774.4 192.893 765.732 197.298 757.916H216.694C210.868 768.005 206.676 777.171 204.119 785.413C201.561 793.512 200.282 802.038 200.282 810.99C200.282 819.09 201.277 826.55 203.266 833.371C205.397 840.192 207.742 846.87 210.3 853.407C213.142 860.37 215.771 867.475 218.186 874.722C220.744 881.969 222.023 889.216 222.023 896.463C222.023 909.11 218.186 918.417 210.513 924.385C202.84 930.496 193.177 933.551 181.525 933.551C168.736 933.551 158.86 930.14 151.897 923.32C144.792 916.499 141.24 907.618 141.24 896.676C141.24 893.55 141.453 890.921 141.879 888.79L160.636 890.282Z" fill="#0A2344"/>
<path d="M322.451 816.532C322.451 824.774 321.598 832.589 319.893 839.979C318.33 847.368 315.63 853.975 311.794 859.801C307.957 865.627 302.841 870.246 296.447 873.656C290.195 876.924 282.379 878.558 273.001 878.558C263.338 878.558 255.38 876.569 249.128 872.59C242.876 868.469 237.973 863.425 234.421 857.457C231.01 851.489 228.666 845.663 227.387 839.979L245.931 836.355C246.925 840.192 248.346 844.242 250.194 848.505C252.183 852.767 254.954 856.391 258.506 859.375C262.201 862.217 266.961 863.638 272.787 863.638C280.319 863.638 286.287 861.649 290.692 857.67C295.239 853.691 298.507 848.22 300.497 841.257C302.628 834.152 303.694 825.982 303.694 816.745C303.694 802.82 301.349 791.594 296.66 783.068C291.971 774.542 284.368 770.279 273.853 770.279C268.311 770.279 263.693 771.771 259.998 774.755C256.304 777.597 253.391 781.079 251.259 785.199C249.128 789.32 247.565 793.299 246.57 797.136L228.239 793.512C229.945 787.544 232.573 781.647 236.126 775.821C239.82 769.995 244.794 765.163 251.046 761.327C257.441 757.348 265.469 755.359 275.132 755.359C283.942 755.359 291.331 757.064 297.299 760.474C303.41 763.742 308.312 768.29 312.007 774.116C315.701 779.8 318.33 786.336 319.893 793.725C321.598 800.972 322.451 808.575 322.451 816.532Z" fill="#0A2344"/>
<path d="M415.151 755.359C424.529 755.359 432.842 756.495 440.089 758.769C447.336 761.043 452.949 764.453 456.928 769C461.049 773.405 463.109 778.876 463.109 785.413C463.109 792.233 461.475 797.562 458.207 801.399C456.075 804.099 453.162 806.159 449.468 807.58C445.915 809.001 440.373 809.711 432.842 809.711H426.661C421.261 809.711 417.282 809.925 414.724 810.351C412.167 810.635 410.177 811.132 408.756 811.843C407.335 812.553 406.34 813.477 405.772 814.614C405.204 815.751 404.919 817.03 404.919 818.451C404.919 822.287 406.767 824.703 410.461 825.698C414.298 826.692 419.414 827.19 425.808 827.19H428.366C441.581 827.19 450.889 829.605 456.288 834.437C460.978 838.415 463.322 844.242 463.322 851.915C463.322 859.73 460.196 866.125 453.944 871.098C447.691 876.072 438.242 878.558 425.595 878.558C418.206 878.558 410.746 877.777 403.214 876.214C395.683 874.651 389.573 872.803 384.884 870.672L391.491 856.178C402.149 861.009 413.374 863.425 425.169 863.425C432.842 863.425 438.171 862.359 441.155 860.228C444.139 858.096 445.631 855.467 445.631 852.341C445.631 848.078 443.997 845.307 440.728 844.028C437.602 842.749 433.339 842.11 427.94 842.11H424.742C415.648 842.11 408.543 841.328 403.427 839.765C398.312 838.202 394.475 835.858 391.917 832.732C388.933 829.037 387.441 824.419 387.441 818.877C387.441 815.609 388.01 812.553 389.147 809.711C390.283 806.727 392.202 804.241 394.902 802.251C397.886 799.836 401.722 797.988 406.412 796.709C411.243 795.431 417.495 794.791 425.169 794.791H433.908C437.886 794.791 440.728 794.223 442.434 793.086C444.281 791.807 445.205 789.391 445.205 785.839C445.205 780.581 442.505 776.744 437.105 774.329C431.705 771.913 424.316 770.705 414.938 770.705C402.149 770.705 391.775 773.334 383.818 778.592C376.002 783.707 370.247 790.741 366.553 799.693C362.858 808.504 361.011 818.522 361.011 829.747C361.011 837.137 361.437 844.668 362.29 852.341C363.142 860.015 364.492 867.262 366.34 874.082L348.861 876.853C346.73 869.89 345.096 862.075 343.959 853.407C342.822 844.739 342.254 836.71 342.254 829.321C342.254 814.685 344.883 801.825 350.14 790.741C355.54 779.658 363.64 770.989 374.439 764.737C385.239 758.485 398.809 755.359 415.151 755.359Z" fill="#0A2344"/>
<path d="M459.336 890.282C458.909 892.413 458.696 894.616 458.696 896.889C458.696 900.158 459.265 903.497 460.401 906.907C461.538 910.318 463.67 913.089 466.796 915.22C469.922 917.494 474.398 918.63 480.224 918.63C487.898 918.63 493.439 916.641 496.85 912.662C500.402 908.683 502.179 903.213 502.179 896.25C502.179 892.697 501.823 889.145 501.113 885.592C500.402 882.182 499.195 878.274 497.489 873.869C495.926 869.322 493.795 863.78 491.095 857.244C488.395 850.565 485.908 843.531 483.635 836.142C481.361 828.753 480.224 820.724 480.224 812.056C480.224 802.82 481.716 793.441 484.7 783.92C487.827 774.4 491.592 765.732 495.997 757.916H515.394C509.568 768.005 505.376 777.171 502.818 785.413C500.26 793.512 498.981 802.038 498.981 810.99C498.981 819.09 499.976 826.55 501.965 833.371C504.097 840.192 506.442 846.87 508.999 853.407C511.841 860.37 514.47 867.475 516.886 874.722C519.444 881.969 520.722 889.216 520.722 896.463C520.722 909.11 516.886 918.417 509.212 924.385C501.539 930.496 491.876 933.551 480.224 933.551C467.435 933.551 457.559 930.14 450.597 923.32C443.492 916.499 439.939 907.618 439.939 896.676C439.939 893.55 440.152 890.921 440.579 888.79L459.336 890.282Z" fill="#0A2344"/>
<path d="M621.15 816.532C621.15 824.774 620.298 832.589 618.593 839.979C617.03 847.368 614.33 853.975 610.493 859.801C606.656 865.627 601.541 870.246 595.146 873.656C588.894 876.924 581.078 878.558 571.7 878.558C562.037 878.558 554.08 876.569 547.827 872.59C541.575 868.469 536.673 863.425 533.12 857.457C529.71 851.489 527.365 845.663 526.086 839.979L544.63 836.355C545.625 840.192 547.046 844.242 548.893 848.505C550.882 852.767 553.653 856.391 557.206 859.375C560.9 862.217 565.661 863.638 571.487 863.638C579.018 863.638 584.986 861.649 589.391 857.67C593.938 853.691 597.207 848.22 599.196 841.257C601.328 834.152 602.393 825.982 602.393 816.745C602.393 802.82 600.049 791.594 595.359 783.068C590.67 774.542 583.068 770.279 572.553 770.279C567.011 770.279 562.392 771.771 558.698 774.755C555.003 777.597 552.09 781.079 549.959 785.199C547.827 789.32 546.264 793.299 545.27 797.136L526.939 793.512C528.644 787.544 531.273 781.647 534.825 775.821C538.52 769.995 543.493 765.163 549.746 761.327C556.14 757.348 564.169 755.359 573.831 755.359C582.642 755.359 590.031 757.064 595.999 760.474C602.109 763.742 607.012 768.29 610.706 774.116C614.401 779.8 617.03 786.336 618.593 793.725C620.298 800.972 621.15 808.575 621.15 816.532Z" fill="#0A2344"/>
<path d="M763.514 755.359C769.766 755.359 775.45 756.424 780.566 758.556C785.681 760.545 790.015 763.671 793.568 767.934C795.557 770.208 797.333 772.908 798.896 776.034C800.602 779.16 801.951 783.494 802.946 789.036C803.941 794.578 804.438 802.038 804.438 811.417V818.664C804.438 826.479 804.793 833.3 805.504 839.126C806.357 844.952 807.92 849.712 810.193 853.407C812.183 856.391 814.811 858.807 818.08 860.654C821.348 862.359 826.037 863.212 832.148 863.212C841.668 863.212 849.271 859.233 854.954 851.275C860.638 843.318 863.48 832.66 863.48 819.303C863.48 807.225 861.065 797.065 856.233 788.823C851.544 780.581 845.434 773.831 837.903 768.574L849.199 755.359C859.999 763.742 868.17 773.05 873.712 783.281C879.396 793.37 882.237 805.591 882.237 819.943C882.237 838.415 877.619 852.839 868.383 863.212C859.288 873.443 846.926 878.558 831.295 878.558C823.195 878.558 816.375 877.422 810.833 875.148C805.291 872.732 800.673 869.393 796.978 865.13C792.999 860.441 790.157 854.97 788.452 848.718C786.747 842.465 785.894 834.081 785.894 823.566V813.122C785.894 803.175 785.326 795.573 784.189 790.315C783.194 785.057 781.418 780.936 778.86 777.952C777.013 775.537 774.597 773.76 771.613 772.624C768.771 771.345 765.219 770.705 760.956 770.705C756.977 770.705 753.496 771.416 750.512 772.837C747.528 774.258 745.041 776.176 743.051 778.592C740.636 781.576 738.86 785.413 737.723 790.102C736.586 794.649 736.018 801.328 736.018 810.138V876.001H717.687V813.761C717.687 805.804 717.403 799.48 716.834 794.791C716.266 790.102 714.987 786.194 712.997 783.068C708.166 774.826 700.635 770.705 690.404 770.705C683.867 770.705 678.041 772.624 672.926 776.46C667.952 780.155 664.044 785.27 661.202 791.807C658.36 798.201 656.939 805.52 656.939 813.761C656.939 826.692 659.426 837.137 664.4 845.094C669.515 853.052 675.554 859.446 682.517 864.277L670.155 877.706C664.044 872.732 658.573 867.333 653.742 861.507C648.911 855.538 645.074 848.718 642.232 841.044C639.532 833.229 638.182 824.135 638.182 813.761C638.182 802.962 640.243 793.157 644.364 784.347C648.484 775.537 654.453 768.503 662.268 763.245C670.226 757.987 679.888 755.359 691.256 755.359C700.351 755.359 707.598 757.135 712.997 760.687C718.539 764.098 723.229 768.716 727.065 774.542C734.881 761.753 747.03 755.359 763.514 755.359Z" fill="#0A2344"/>
<path d="M938.649 878.558C925.86 878.558 915.771 874.864 908.382 867.475C900.992 859.943 897.298 850.281 897.298 838.487C897.298 830.529 899.003 823.566 902.413 817.598C905.966 811.63 910.868 807.012 917.121 803.743C923.373 800.333 930.549 798.628 938.649 798.628C950.869 798.628 960.816 802.251 968.489 809.498C976.305 816.603 980.213 826.266 980.213 838.487C980.213 846.586 978.436 853.62 974.884 859.588C971.331 865.556 966.429 870.246 960.177 873.656C954.066 876.924 946.89 878.558 938.649 878.558ZM938.649 813.122C931.97 813.122 926.357 815.253 921.81 819.516C917.405 823.637 915.202 830.032 915.202 838.7C915.202 847.226 917.476 853.62 922.023 857.883C926.57 862.004 932.112 864.064 938.649 864.064C945.327 864.064 950.94 862.004 955.487 857.883C960.035 853.62 962.308 847.155 962.308 838.487C962.308 829.961 960.035 823.637 955.487 819.516C951.082 815.253 945.469 813.122 938.649 813.122Z" fill="#0A2344"/>
</g>
<g filter="url(#filter3_d)">
<path d="M1594.43 793.559C1586.19 793.559 1579.58 792.138 1574.6 789.296C1569.77 786.454 1565.15 781.765 1560.75 775.228C1556.2 782.476 1551.16 787.378 1545.62 789.936C1540.22 792.351 1534.11 793.559 1527.29 793.559C1516.91 793.559 1508.53 790.504 1502.13 784.394C1495.88 778.284 1492.76 770.255 1492.76 760.308C1492.76 756.329 1493.75 752.137 1495.74 747.732C1497.73 743.185 1500.93 739.277 1505.33 736.009H1484.02V720.236H1533.89V735.37C1525.37 737.217 1519.26 740.272 1515.56 744.535C1511.87 748.798 1510.02 753.7 1510.02 759.242C1510.02 764.5 1511.65 768.763 1514.92 772.031C1518.19 775.157 1522.67 776.721 1528.35 776.721C1535.46 776.721 1541.07 774.447 1545.19 769.9C1549.45 765.21 1551.87 759.1 1552.44 751.569H1568.85C1569.56 760.237 1572.26 766.631 1576.95 770.752C1581.78 774.731 1587.04 776.721 1592.72 776.721C1596.7 776.721 1600.4 776.01 1603.81 774.589C1607.36 773.168 1610.2 770.539 1612.33 766.703C1614.46 762.866 1615.53 757.324 1615.53 750.077C1615.53 742.261 1614.04 735.37 1611.05 729.402C1608.07 723.433 1604.09 718.389 1599.12 714.268C1594.28 710.147 1588.81 706.95 1582.7 704.676C1576.59 702.261 1570.48 700.769 1564.37 700.2C1563.38 700.342 1562.31 700.413 1561.18 700.413C1557.06 700.413 1553.08 699.632 1549.24 698.069C1545.55 696.506 1542.13 693.593 1539.01 689.33C1535.88 684.925 1533.18 678.743 1530.91 670.786L1548.6 665.031C1550.73 672.846 1552.79 678.033 1554.78 680.591C1556.77 683.148 1559.33 684.427 1562.45 684.427C1565.3 684.427 1567.93 683.575 1570.34 681.869C1572.9 680.022 1576.45 676.256 1581 670.573L1587.61 662.047C1592.44 655.794 1596.84 650.821 1600.82 647.126C1604.94 643.432 1609.28 640.732 1613.82 639.027C1618.37 637.321 1623.77 636.469 1630.02 636.469L1631.3 652.881C1626.33 653.165 1622.14 653.947 1618.73 655.226C1615.46 656.505 1612.4 658.565 1609.56 661.407C1606.86 664.107 1603.66 667.802 1599.97 672.491L1595.07 678.885C1592.22 682.58 1589.52 685.706 1586.97 688.264C1602.17 693.379 1613.68 701.479 1621.5 712.563C1629.31 723.504 1633.22 735.867 1633.22 749.651C1633.22 759.598 1631.51 767.839 1628.1 774.376C1624.69 780.77 1620.08 785.602 1614.25 788.87C1608.42 791.996 1601.82 793.559 1594.43 793.559Z" fill="#0A2344"/>
<path d="M1748.06 793.559C1740.67 793.559 1734.42 792.209 1729.3 789.509C1724.33 786.667 1719.78 781.907 1715.66 775.228C1711.25 782.902 1706.28 787.875 1700.74 790.149C1695.2 792.422 1689.23 793.559 1682.83 793.559C1672.46 793.559 1664.08 789.58 1657.68 781.623C1651.29 773.665 1648.09 762.582 1648.09 748.372C1648.09 735.725 1650.86 724.641 1656.4 715.121C1661.95 705.458 1669.83 697.927 1680.06 692.527C1690.29 687.127 1702.51 684.427 1716.72 684.427C1730.93 684.427 1743.01 687.198 1752.96 692.74C1762.91 698.14 1770.51 705.671 1775.77 715.334C1781.02 724.854 1783.65 735.867 1783.65 748.372C1783.65 763.008 1780.46 774.234 1774.06 782.049C1767.67 789.723 1759 793.559 1748.06 793.559ZM1746.35 776.721C1752.32 776.721 1757.08 774.518 1760.63 770.113C1764.19 765.708 1765.96 758.319 1765.96 747.945C1765.96 738.709 1764.19 730.538 1760.63 723.433C1757.22 716.328 1751.96 710.716 1744.86 706.595C1737.9 702.474 1729.02 700.413 1718.22 700.413H1715.02C1699.1 700.413 1686.88 704.747 1678.36 713.415C1669.97 722.083 1665.78 733.38 1665.78 747.306C1665.78 757.963 1667.49 765.566 1670.9 770.113C1674.45 774.518 1679.28 776.721 1685.39 776.721C1691.79 776.721 1696.9 774.447 1700.74 769.9C1704.72 765.21 1706.99 759.1 1707.56 751.569H1724.18C1724.75 760.237 1727.24 766.631 1731.64 770.752C1736.19 774.731 1741.09 776.721 1746.35 776.721ZM1709.48 700.413C1705.36 700.413 1701.38 699.632 1697.54 698.069C1693.85 696.506 1690.44 693.593 1687.31 689.33C1684.18 684.925 1681.48 678.743 1679.21 670.786L1696.9 665.031C1699.03 672.846 1701.09 678.033 1703.08 680.591C1705.07 683.148 1707.63 684.427 1710.76 684.427C1713.6 684.427 1716.23 683.575 1718.64 681.869C1721.2 680.022 1724.75 676.256 1729.3 670.573L1735.91 662.047C1740.74 655.794 1745.14 650.821 1749.12 647.126C1753.24 643.432 1757.58 640.732 1762.13 639.027C1766.67 637.321 1772.07 636.469 1778.32 636.469L1779.6 652.881C1774.63 653.165 1770.44 653.947 1767.03 655.226C1763.76 656.505 1760.7 658.565 1757.86 661.407C1755.16 664.107 1751.96 667.802 1748.27 672.491L1743.37 678.885C1737.4 686.559 1731.86 692.101 1726.74 695.511C1721.63 698.779 1715.87 700.413 1709.48 700.413Z" fill="#0A2344"/>
<path d="M1815.85 793.559C1806.33 793.559 1798.02 791.144 1790.91 786.312C1783.66 781.481 1777.27 775.157 1771.73 767.342L1780.25 753.487C1786.22 761.303 1792.12 767.129 1797.95 770.966C1803.91 774.802 1810.38 776.721 1817.34 776.721C1824.59 776.721 1830.13 774.447 1833.97 769.9C1837.8 765.21 1839.72 758.532 1839.72 749.864C1839.72 741.622 1838.02 734.446 1834.61 728.336C1831.34 722.083 1826.86 716.755 1821.18 712.35C1815.64 707.802 1809.31 703.966 1802.21 700.84L1810.1 684.427C1818.91 688.122 1826.86 693.095 1833.97 699.348C1841.07 705.6 1846.76 712.847 1851.02 721.089C1855.28 729.33 1857.41 738.496 1857.41 748.585C1857.41 762.653 1853.86 773.665 1846.76 781.623C1839.65 789.58 1829.35 793.559 1815.85 793.559Z" fill="#0A2344"/>
<path d="M1915.75 700.413C1911.63 700.413 1907.65 699.632 1903.82 698.069C1900.12 696.506 1896.71 693.593 1893.59 689.33C1890.46 684.925 1887.76 678.743 1885.49 670.786L1903.18 665.031C1905.31 672.846 1907.37 678.033 1909.36 680.591C1911.35 683.148 1913.91 684.427 1917.03 684.427C1919.87 684.427 1922.5 683.575 1924.92 681.869C1927.48 680.022 1931.03 676.256 1935.58 670.573L1942.18 662.047C1947.02 655.794 1951.42 650.821 1955.4 647.126C1959.52 643.432 1963.85 640.732 1968.4 639.027C1972.95 637.321 1978.35 636.469 1984.6 636.469L1985.88 652.881C1980.91 653.165 1976.71 653.947 1973.3 655.226C1970.04 656.505 1966.98 658.565 1964.14 661.407C1961.44 664.107 1958.24 667.802 1954.55 672.491L1949.64 678.885C1947.8 681.301 1946.02 683.504 1944.32 685.493C1957.96 687.34 1969.61 691.248 1979.27 697.216C1988.93 703.042 1996.25 710.502 2001.23 719.597C2006.34 728.549 2008.9 738.567 2008.9 749.651C2008.9 761.445 2005.99 771.321 2000.16 779.278C1994.48 787.094 1985.52 791.57 1973.3 792.707C1978.56 796.97 1984.25 800.096 1990.36 802.085C1996.61 804.217 2003.57 805.282 2011.24 805.282C2023.46 805.282 2033.34 801.801 2040.87 794.838C2048.55 788.017 2052.38 777.715 2052.38 763.932C2052.38 749.153 2048.62 736.364 2041.08 725.565C2033.7 714.765 2023.39 706.524 2010.18 700.84L2018.06 684.427C2034.26 691.674 2046.98 702.19 2056.22 715.973C2065.45 729.615 2070.07 745.317 2070.07 763.079C2070.07 781.836 2064.96 796.33 2054.73 806.561C2044.5 816.935 2030.57 822.121 2012.95 822.121C2003.57 822.121 1994.97 820.7 1987.16 817.858C1979.34 815.158 1971.6 810.824 1963.93 804.856C1956.39 799.03 1948.37 791.428 1939.84 782.049C1937.71 780.202 1935.51 778.07 1933.23 775.655C1929.4 781.055 1925.2 785.389 1920.66 788.657C1916.11 791.925 1909.93 793.559 1902.11 793.559C1894.58 793.559 1888.54 791.996 1883.99 788.87C1879.45 785.744 1876.11 781.765 1873.98 776.934C1871.99 771.96 1870.99 766.845 1870.99 761.587C1870.99 752.351 1873.91 744.961 1879.73 739.42C1885.56 733.736 1892.66 730.894 1901.05 730.894C1906.16 730.894 1910.71 731.817 1914.69 733.664C1918.67 735.37 1922.57 738.141 1926.41 741.977C1930.25 745.672 1934.44 750.574 1938.99 756.685C1942.82 761.658 1946.23 765.637 1949.22 768.621C1952.2 771.605 1955.19 773.736 1958.17 775.015C1961.15 776.152 1964.56 776.721 1968.4 776.721C1975.93 776.721 1981.62 774.447 1985.45 769.9C1989.29 765.353 1991.21 758.745 1991.21 750.077C1991.21 739.277 1988.37 730.254 1982.68 723.007C1977 715.618 1969.32 710.005 1959.66 706.168C1950 702.332 1939.13 700.413 1927.05 700.413H1916.61H1915.75ZM1887.62 762.013C1887.62 766.418 1888.97 770.113 1891.67 773.097C1894.51 776.081 1898.35 777.573 1903.18 777.573C1907.72 777.573 1911.56 776.294 1914.69 773.736C1917.81 771.179 1920.51 767.484 1922.79 762.653C1918.67 757.111 1915.11 753.132 1912.13 750.716C1909.29 748.159 1905.74 746.88 1901.47 746.88C1897.49 746.88 1894.15 748.159 1891.45 750.716C1888.9 753.274 1887.62 757.04 1887.62 762.013Z" fill="#0A2344"/>
</g>
<g filter="url(#filter4_d)">
<path d="M249.397 243.905C237.578 243.905 228.144 241.628 221.096 237.074C214.157 232.412 210.687 225.472 210.687 216.255C210.687 210.4 212.097 205.792 214.916 202.431C217.735 199.069 221.476 196.575 226.138 194.949C230.909 193.214 236.114 191.967 241.752 191.208C248.258 190.341 253.3 189.148 256.878 187.63C260.456 186.112 262.95 183.943 264.36 181.124C265.878 178.197 266.745 174.401 266.962 169.739C261.541 167.787 255.523 166.811 248.909 166.811C244.246 166.811 240.397 167.408 237.361 168.6C234.325 169.793 232.807 171.962 232.807 175.106C232.807 176.191 232.969 177.383 233.295 178.684C233.62 179.986 234.162 181.178 234.921 182.263L222.723 187.305C221.422 184.702 220.446 182.371 219.795 180.311C219.253 178.251 218.982 175.974 218.982 173.48C218.982 170.444 219.904 167.462 221.747 164.534C223.59 161.607 226.68 159.167 231.018 157.215C235.463 155.155 241.427 154.125 248.909 154.125C254.981 154.125 260.836 154.938 266.474 156.565C265.932 153.203 265.119 149.842 264.035 146.481C262.95 143.119 261.541 139.975 259.806 137.047C257.529 142.144 254.276 145.884 250.047 148.27C245.927 150.547 241.264 151.685 236.06 151.685C229.12 151.685 223.536 150.005 219.307 146.643C215.187 143.174 213.127 138.186 213.127 131.68C213.127 126.042 215.241 121.379 219.47 117.693C223.807 113.898 229.662 112 237.036 112C243.867 112 249.83 113.41 254.926 116.229C260.131 119.048 264.523 122.843 268.101 127.614C271.679 132.276 274.39 137.535 276.233 143.391C278.185 149.137 279.269 155.047 279.486 161.119C286.425 165.131 292.01 170.444 296.238 177.058C300.467 183.672 302.581 191.696 302.581 201.13C302.581 214.575 298.082 225.093 289.082 232.683C280.191 240.164 266.962 243.905 249.397 243.905ZM225.813 131.843C225.813 134.337 226.626 136.397 228.253 138.023C229.988 139.541 232.373 140.3 235.409 140.3C238.987 140.3 242.186 139.379 245.005 137.535C247.824 135.584 249.668 132.222 250.535 127.451C248.583 126.15 246.415 125.174 244.029 124.524C241.644 123.765 239.096 123.385 236.385 123.385C232.915 123.385 230.259 124.198 228.415 125.825C226.68 127.343 225.813 129.349 225.813 131.843ZM224.024 216.255C224.024 220.593 225.921 224.171 229.716 226.99C233.512 229.701 240.072 231.056 249.397 231.056C262.083 231.056 271.896 228.454 278.835 223.249C285.775 218.045 289.245 210.834 289.245 201.617C289.245 191.1 285.775 182.642 278.835 176.245C277.859 182.534 275.799 187.522 272.655 191.208C269.51 194.786 265.661 197.443 261.107 199.178C256.553 200.804 251.619 201.943 246.306 202.593C238.608 203.461 232.969 204.87 229.391 206.822C225.813 208.774 224.024 211.918 224.024 216.255Z" fill="#0A2344"/>
<path d="M354.446 243.905C342.953 243.905 333.953 241.14 327.447 235.61C321.05 230.08 317.851 222.87 317.851 213.978C317.851 204.653 321.646 197.334 329.236 192.021L314.273 192.184V180.962H348.103C349.296 180.094 350.272 179.01 351.031 177.709C351.898 176.299 352.332 174.727 352.332 172.992C352.332 171.474 352.061 170.01 351.519 168.6C351.085 167.191 350.488 165.944 349.729 164.86H314.273V152.336H362.741C368.596 152.336 372.717 152.065 375.102 151.523C377.488 150.981 379.222 150.276 380.307 149.408C381.716 148.324 382.638 147.131 383.072 145.83C383.614 144.421 383.885 142.957 383.885 141.439C383.885 134.499 380.361 127.505 373.313 120.458L383.885 113.464C388.981 119.102 392.451 124.198 394.294 128.752C396.138 133.198 397.059 137.752 397.059 142.415C397.059 144.475 396.625 147.023 395.758 150.059C394.999 152.987 393.21 155.643 390.391 158.029C387.68 160.414 384.427 162.149 380.632 163.233C376.945 164.318 371.958 164.86 365.669 164.86H362.741C364.368 167.896 365.181 170.661 365.181 173.155C365.181 174.889 364.964 176.407 364.53 177.709C364.205 178.901 363.717 179.986 363.066 180.962H396.083V192.184L380.144 192.021C383.831 194.082 386.758 197.009 388.927 200.804C391.204 204.599 392.342 208.882 392.342 213.653C392.342 222.653 389.144 229.972 382.746 235.61C376.457 241.14 367.024 243.905 354.446 243.905ZM355.097 231.219C363.771 231.219 369.952 229.376 373.638 225.689C377.433 221.894 379.331 217.34 379.331 212.027C379.331 205.955 377.271 201.13 373.15 197.551C369.138 193.973 363.121 192.184 355.097 192.184C346.856 192.184 340.73 194.082 336.718 197.877C332.814 201.563 330.863 206.28 330.863 212.027C330.863 217.774 332.869 222.436 336.881 226.014C340.892 229.484 346.965 231.219 355.097 231.219ZM341.435 285.542C334.82 285.542 329.345 283.699 325.007 280.012C320.67 276.434 318.502 271.609 318.502 265.537C318.502 260.224 320.128 255.941 323.381 252.688C326.634 249.435 330.971 247.809 336.393 247.809C340.838 247.809 344.308 248.839 346.802 250.899C349.404 252.959 350.705 255.778 350.705 259.356C350.705 261.959 350.217 264.344 349.242 266.513L339.808 265.7C340.133 264.507 340.296 263.314 340.296 262.121C340.296 260.929 339.917 259.899 339.158 259.031C338.399 258.164 337.152 257.73 335.417 257.73C334.007 257.73 332.598 258.218 331.188 259.194C329.887 260.278 329.236 262.284 329.236 265.212C329.236 268.573 330.321 271.067 332.489 272.693C334.766 274.32 337.911 275.133 341.923 275.133C346.585 275.133 350.163 273.995 352.657 271.717C355.259 269.44 356.777 266.35 357.211 262.447H367.946C368.271 266.459 369.355 269.549 371.199 271.717C373.042 273.995 375.807 275.133 379.494 275.133C382.963 275.133 385.403 274.32 386.813 272.693C388.331 271.175 389.252 269.495 389.578 267.651C389.903 265.808 390.065 264.453 390.065 263.585C390.065 259.79 389.306 256.429 387.788 253.501C386.27 250.682 384.319 247.917 381.933 245.206L391.692 239.188C397.113 246.128 400.746 253.284 402.589 260.658C404.541 268.139 405.517 275.296 405.517 282.127C405.517 285.597 405.3 288.849 404.866 291.885C404.541 295.03 404.161 297.47 403.728 299.204L392.505 297.415C393.156 295.03 393.806 292.319 394.457 289.283C395.107 286.356 395.433 283.157 395.433 279.687C395.433 278.603 395.379 277.247 395.27 275.621C394.077 278.44 392.234 280.771 389.74 282.615C387.246 284.566 383.777 285.542 379.331 285.542C374.994 285.542 371.47 284.675 368.759 282.94C366.157 281.205 363.988 279.036 362.253 276.434C359.326 279.904 356.181 282.289 352.82 283.591C349.458 284.892 345.663 285.542 341.435 285.542Z" fill="#0A2344"/>
<path d="M499.724 243.905C491.158 243.905 484.218 241.574 478.905 236.911C473.592 232.249 470.936 225.906 470.936 217.882C470.936 211.376 472.942 205.846 476.954 201.292C480.965 196.738 486.333 194.461 493.055 194.461C498.802 194.461 503.356 195.816 506.718 198.527C510.187 201.238 511.922 204.925 511.922 209.587C511.922 211.322 511.705 213.111 511.272 214.954C510.946 216.689 510.458 218.099 509.808 219.183L498.585 218.207C499.344 216.472 499.724 214.737 499.724 213.003C499.724 210.617 499.073 208.828 497.772 207.635C496.579 206.443 494.899 205.846 492.73 205.846C490.019 205.846 487.742 206.822 485.899 208.774C484.164 210.726 483.297 213.599 483.297 217.394C483.297 221.514 484.598 224.93 487.2 227.641C489.802 230.351 494.085 231.707 500.049 231.707C506.555 231.707 511.868 229.376 515.988 224.713C520.109 219.942 522.169 211.973 522.169 200.804V199.503C522.169 188.66 519.946 179.931 515.5 173.317C511.163 166.595 504.874 163.233 496.634 163.233C490.236 163.233 485.14 165.077 481.345 168.763C477.658 172.341 475.381 177.383 474.514 183.889H462.153C461.285 176.841 458.846 171.637 454.834 168.275C450.93 164.914 445.617 163.233 438.895 163.233C432.931 163.233 428.485 164.589 425.558 167.299C422.63 170.01 421.166 173.642 421.166 178.197C421.166 180.148 421.492 182.046 422.142 183.889C422.901 185.624 424.04 187.196 425.558 188.606C427.076 190.015 429.082 191.208 431.576 192.184C434.178 193.051 437.864 193.485 442.635 193.485H445.238V204.87H440.684C436.021 204.87 432.497 205.196 430.112 205.846C427.726 206.497 425.775 207.527 424.257 208.936C421.546 211.213 420.19 214.521 420.19 218.858C420.19 222.219 421.166 225.201 423.118 227.803C425.178 230.406 428.539 231.707 433.202 231.707C436.455 231.707 439.383 231.165 441.985 230.08C444.696 228.996 447.569 227.261 450.605 224.876L458.412 234.797C454.942 237.508 451.039 239.731 446.702 241.465C442.364 243.092 437.702 243.905 432.714 243.905C423.823 243.905 417.263 241.628 413.034 237.074C408.914 232.52 406.853 226.99 406.853 220.484C406.853 215.713 407.992 211.539 410.269 207.961C412.655 204.382 416.287 201.509 421.166 199.34C416.504 196.63 413.088 193.377 410.92 189.582C408.859 185.678 407.829 181.341 407.829 176.57C407.829 171.582 409.076 167.137 411.57 163.233C414.064 159.221 417.588 156.077 422.142 153.8C426.696 151.523 432.009 150.384 438.081 150.384C444.912 150.384 450.713 151.577 455.484 153.962C460.364 156.239 464.647 160.035 468.333 165.348C471.586 160.36 475.544 156.619 480.206 154.125C484.869 151.631 490.67 150.384 497.609 150.384C505.742 150.384 512.627 152.499 518.265 156.727C523.904 160.848 528.187 166.649 531.114 174.13C534.042 181.612 535.506 190.341 535.506 200.316C535.506 208.665 534.205 216.147 531.602 222.761C529.108 229.376 525.205 234.58 519.892 238.375C514.687 242.062 507.965 243.905 499.724 243.905Z" fill="#0A2344"/>
</g>
<g filter="url(#filter5_d)">
<path d="M1187.2 828.508C1220.59 828.508 1245.53 833.694 1262.01 844.068C1278.5 854.299 1286.74 869.29 1286.74 889.042V892.452H1264.78V889.468C1264.78 874.832 1258.25 864.104 1245.17 857.283C1232.24 850.32 1212.78 846.839 1186.77 846.839C1161.34 846.839 1142.58 849.894 1130.5 856.004C1118.56 861.972 1112.31 872.061 1111.74 886.271H1137.96V905.028H1111.96V1044H1089.58V905.028H1063.57V886.271H1089.58C1090.14 866.661 1098.31 852.167 1114.09 842.789C1130 833.268 1154.37 828.508 1187.2 828.508Z" fill="#0A2344"/>
<path d="M1173.08 977.925V998.814C1173.08 1007.06 1175 1013.73 1178.84 1018.85C1182.82 1023.82 1188.86 1026.31 1196.96 1026.31C1204.06 1026.31 1209.6 1024.04 1213.58 1019.49C1217.56 1014.8 1219.55 1008.69 1219.55 1001.16V998.174H1241.29V1001.37C1241.29 1015.15 1237.38 1026.03 1229.57 1033.98C1221.75 1041.8 1211.1 1045.71 1197.6 1045.71C1182.68 1045.71 1171.09 1041.37 1162.85 1032.7C1154.61 1023.89 1150.49 1012.1 1150.49 997.322V958.955H1181.18C1192.84 958.955 1202.36 956.468 1209.75 951.495C1217.28 946.521 1221.04 938.919 1221.04 928.688C1221.04 921.014 1218.98 914.975 1214.86 910.57C1210.74 906.023 1205.13 903.749 1198.02 903.749C1190.92 903.749 1185.3 906.023 1181.18 910.57C1177.06 914.975 1175 921.014 1175 928.688C1175 930.535 1175.14 933.448 1175.43 937.427H1153.26C1152.69 933.164 1152.41 930.038 1152.41 928.048C1152.41 919.38 1154.26 911.778 1157.95 905.241C1161.64 898.563 1166.9 893.447 1173.72 889.895C1180.69 886.2 1188.79 884.353 1198.02 884.353C1211.81 884.353 1222.82 888.403 1231.06 896.502C1239.44 904.46 1243.64 915.686 1243.64 930.18C1243.64 945.668 1238.52 957.534 1228.29 965.776C1218.2 973.875 1205.13 977.925 1189.07 977.925H1173.08ZM1313.97 886.271V905.028H1287.97V1044H1265.38V886.271H1313.97Z" fill="#0A2344"/>
<path d="M1488.37 886.271V905.028H1462.36V1044H1440.83V965.776H1377.74C1370.21 969.328 1364.46 972.312 1360.48 974.728C1356.64 977.143 1353.3 980.199 1350.46 983.893C1347.76 987.588 1346.41 992.064 1346.41 997.322C1346.41 1003.43 1348.4 1008.55 1352.38 1012.67C1356.5 1016.79 1361.9 1018.85 1368.58 1018.85C1375.68 1018.85 1381.3 1016.58 1385.42 1012.03C1389.68 1007.34 1391.81 1001.66 1391.81 994.977H1410.57V1056.15H1390.11V1022.47C1387.97 1026.31 1384.42 1029.79 1379.45 1032.92C1374.47 1035.9 1368.36 1037.39 1361.12 1037.39C1349.89 1037.39 1340.8 1034.13 1333.83 1027.59C1326.87 1020.91 1323.39 1012.31 1323.39 1001.8C1323.39 994.551 1324.95 988.369 1328.08 983.254C1331.35 977.996 1335.47 973.662 1340.44 970.252C1345.42 966.699 1351.6 963.076 1358.99 959.381C1350.18 957.25 1342.93 953.129 1337.24 947.018C1331.7 940.766 1328.93 932.809 1328.93 923.146C1328.93 915.33 1330.78 908.51 1334.47 902.684C1338.31 896.715 1343.5 892.168 1350.03 889.042C1356.71 885.774 1364.17 884.14 1372.41 884.14C1379.95 884.14 1386.77 885.561 1392.88 888.403C1399.13 891.245 1404.1 895.436 1407.8 900.978C1411.49 906.378 1413.34 912.915 1413.34 920.588C1413.34 926.698 1412.13 932.098 1409.72 936.787C1407.3 941.334 1403.96 945.526 1399.7 949.363H1440.83V886.271H1488.37ZM1348.97 924.638C1348.97 931.743 1351.67 937.569 1357.07 942.116C1362.47 946.521 1369.5 948.866 1378.17 949.15C1383.43 945.882 1387.48 942.329 1390.32 938.492C1393.16 934.656 1394.58 930.109 1394.58 924.851C1394.58 918.599 1392.38 913.483 1387.97 909.504C1383.71 905.525 1378.31 903.536 1371.77 903.536C1365.38 903.536 1359.98 905.383 1355.58 909.078C1351.17 912.773 1348.97 917.959 1348.97 924.638Z" fill="#0A2344"/>
<path d="M1673.24 905.028H1647.24V1044H1624.86V905.028H1587.13V963.431C1587.13 976.504 1583.44 987.09 1576.05 995.19C1568.66 1003.29 1558.14 1007.34 1544.5 1007.34C1531 1007.34 1520.56 1003.29 1513.17 995.19C1505.78 986.948 1502.08 976.362 1502.08 963.431V905.028H1478.21V886.271H1673.24V905.028ZM1565.18 905.028H1524.04V965.562C1524.04 972.383 1525.89 977.925 1529.58 982.188C1533.42 986.309 1538.46 988.369 1544.71 988.369C1551.11 988.369 1556.08 986.309 1559.64 982.188C1563.33 977.925 1565.18 972.383 1565.18 965.562V905.028Z" fill="#0A2344"/>
</g>
<g filter="url(#filter6_d)">
<path d="M1625.96 397.432C1608.48 383.833 1592.83 373.98 1579.02 367.874C1565.21 361.768 1552.2 358.716 1539.99 358.716C1530.07 358.716 1522.37 360.103 1516.89 362.879C1511.48 365.654 1507.42 369.99 1504.71 375.888C1502.07 381.716 1500.76 391.43 1500.76 405.03V501.3C1500.76 505.741 1501.03 508.933 1501.59 510.875C1502.21 512.749 1503.15 514.24 1504.4 515.351C1505.65 516.391 1507.42 517.12 1509.71 517.536C1512 517.953 1515.15 518.161 1519.18 518.161L1517.51 534.084H1515.33C1507.42 534.084 1501.07 532.905 1496.28 530.546C1491.49 528.117 1488.2 524.787 1486.39 520.554C1484.59 516.253 1483.69 510.216 1483.69 502.445V400.45C1483.69 385.255 1485.77 373.841 1489.93 366.209C1494.16 358.507 1500.34 352.714 1508.46 348.828C1516.58 344.943 1526.6 343 1538.54 343C1553.94 343 1569.65 346.469 1585.68 353.408C1601.78 360.346 1618.95 371.309 1637.2 386.296L1625.96 397.432Z" fill="#0A2344"/>
<path d="M1570.49 463.312C1558.48 460.468 1549.57 456.443 1543.74 451.24C1537.98 446.036 1535.1 439.236 1535.1 430.841C1535.1 423.694 1537.91 417.727 1543.53 412.939C1549.22 408.082 1556.92 405.654 1566.64 405.654C1573.85 405.654 1580.48 407.25 1586.52 410.442C1592.62 413.633 1597.34 418.282 1600.67 424.388C1604 430.494 1605.67 437.71 1605.67 446.036C1605.67 456.374 1602.37 465.602 1595.78 473.72C1589.26 481.838 1580.34 487.77 1569.03 491.517C1576.66 502.341 1582.84 509.488 1587.56 512.957C1592.34 516.357 1598.45 518.057 1605.87 518.057H1608.68L1606.81 534.084H1603.48C1594.32 534.084 1585.72 531.031 1577.67 524.926C1569.69 518.82 1561.36 508.794 1552.69 494.848C1550.61 494.986 1548.53 495.056 1546.45 495.056C1533.89 495.056 1527.61 490.754 1527.61 482.15C1527.61 478.889 1528.79 476.287 1531.15 474.344C1533.57 472.332 1536.7 471.326 1540.51 471.326C1546.9 471.326 1552.76 473.442 1558.1 477.675C1568.23 475.246 1575.83 471.326 1580.89 465.914C1585.96 460.433 1588.49 453.494 1588.49 445.099C1588.49 437.259 1586.41 431.257 1582.25 427.094C1578.15 422.861 1572.81 420.745 1566.22 420.745C1561.57 420.745 1557.96 421.786 1555.4 423.867C1552.9 425.88 1551.65 428.377 1551.65 431.361C1551.65 436.287 1553.84 440.103 1558.21 442.809C1562.58 445.446 1568.54 447.527 1576.11 449.054L1570.49 463.312ZM1628.15 405.654L1645.21 407.944V501.717C1645.21 506.157 1645.49 509.349 1646.05 511.292C1646.67 513.165 1647.61 514.657 1648.86 515.767C1650.11 516.808 1651.88 517.536 1654.16 517.953C1656.45 518.369 1659.61 518.577 1663.64 518.577L1661.97 534.084H1659.78C1651.88 534.084 1645.53 532.905 1640.74 530.546C1635.95 528.117 1632.66 524.787 1630.85 520.554C1629.05 516.253 1628.15 510.216 1628.15 502.445V405.654Z" fill="#0A2344"/>
<path d="M1781.14 469.349C1776.63 471.361 1771.39 472.957 1765.42 474.136C1759.52 475.246 1753.49 475.802 1747.31 475.802C1734.69 475.802 1723.34 473.616 1713.28 469.245C1705.37 473.685 1699.99 477.64 1697.15 481.109C1694.3 484.509 1692.88 488.464 1692.88 492.974C1692.88 498.386 1695.03 502.653 1699.33 505.776C1703.64 508.898 1709.88 510.459 1718.07 510.459C1721.61 510.459 1724.62 509.973 1727.12 509.002C1726.57 507.545 1726.29 505.914 1726.29 504.11C1726.29 500.572 1727.37 497.762 1729.52 495.68C1731.74 493.599 1734.72 492.558 1738.47 492.558C1742.28 492.558 1745.3 493.772 1747.52 496.201C1749.81 498.56 1750.96 501.474 1750.96 504.943C1750.96 508.828 1749.53 512.436 1746.69 515.767C1748.63 520.138 1751.13 523.295 1754.18 525.238C1757.24 527.111 1761.29 528.048 1766.36 528.048H1768.13L1766.36 543.347H1763.45C1749.98 543.347 1739.75 536.86 1732.74 523.885C1727.95 525.203 1722.82 525.862 1717.34 525.862C1704.71 525.862 1694.55 522.844 1686.84 516.808C1679.21 510.771 1675.4 503.07 1675.4 493.703C1675.4 487.111 1677.27 481.283 1681.02 476.218C1684.76 471.083 1690.94 466.122 1699.54 461.335C1693.71 458.004 1689.17 453.876 1685.91 448.95C1682.72 444.024 1681.12 438.75 1681.12 433.13C1681.12 424.943 1684.1 418.317 1690.07 413.252C1696.11 408.187 1704.23 405.654 1714.43 405.654C1724.14 405.654 1732.01 407.944 1738.05 412.523C1744.16 417.033 1747.21 423.139 1747.21 430.841C1747.21 436.044 1745.79 440.901 1742.94 445.411C1740.1 449.921 1735.45 454.431 1729 458.941C1733.02 459.913 1738.4 460.398 1745.13 460.398C1759.42 460.398 1771.42 457.519 1781.14 451.76V405.654L1798.21 407.944V501.717C1798.21 506.157 1798.48 509.349 1799.04 511.292C1799.66 513.165 1800.6 514.657 1801.85 515.767C1803.1 516.808 1804.87 517.536 1807.16 517.953C1809.45 518.369 1812.6 518.577 1816.63 518.577L1814.96 534.084H1812.78C1804.87 534.084 1798.52 532.905 1793.73 530.546C1788.94 528.117 1785.65 524.787 1783.84 520.554C1782.04 516.253 1781.14 510.216 1781.14 502.445V469.349ZM1713.8 453.113C1719.21 450.129 1723.27 446.972 1725.98 443.642C1728.75 440.311 1730.14 436.808 1730.14 433.13C1730.14 429.245 1728.75 426.157 1725.98 423.867C1723.27 421.578 1719.42 420.433 1714.43 420.433C1709.15 420.433 1705.09 421.612 1702.25 423.971C1699.47 426.261 1698.08 429.522 1698.08 433.755C1698.08 437.501 1699.47 441.075 1702.25 444.475C1705.02 447.874 1708.87 450.754 1713.8 453.113Z" fill="#0A2344"/>
<path d="M1877.62 458.421C1882.06 464.041 1886.29 468.065 1890.31 470.494C1894.34 472.853 1898.57 474.032 1903.01 474.032C1908.7 474.032 1912.9 471.916 1915.6 467.684C1918.31 463.382 1919.66 456.79 1919.66 447.909C1919.66 438.82 1917.93 432.02 1914.46 427.51C1911.06 423 1906.06 420.745 1899.47 420.745C1891.77 420.745 1884.97 422.376 1879.07 425.637L1873.77 411.69C1881.88 407.666 1890.83 405.654 1900.62 405.654C1911.79 405.654 1920.6 409.401 1927.05 416.894C1933.51 424.318 1936.73 434.657 1936.73 447.909C1936.73 461.578 1933.92 471.916 1928.3 478.924C1922.68 485.862 1914.39 489.331 1903.43 489.331C1896.56 489.331 1889.72 487.493 1882.92 483.815C1876.19 480.069 1870.16 474.795 1864.82 467.996L1877.62 458.421ZM1956.4 405.654L1973.47 407.944V501.717C1973.47 506.157 1973.75 509.349 1974.3 511.292C1974.93 513.165 1975.87 514.657 1977.11 515.767C1978.36 516.808 1980.13 517.536 1982.42 517.953C1984.71 518.369 1987.87 518.577 1991.89 518.577L1990.23 534.084H1988.04C1980.13 534.084 1973.78 532.905 1969 530.546C1964.21 528.117 1960.91 524.787 1959.11 520.554C1957.3 516.253 1956.4 510.216 1956.4 502.445V405.654ZM1834.43 405.654L1851.49 407.944V467.788C1851.49 475.281 1851.67 480.312 1852.01 482.879C1852.36 485.446 1853.26 487.77 1854.72 489.852C1856.25 491.864 1859.13 494.119 1863.36 496.617C1867.59 499.045 1875.22 502.584 1886.26 507.233C1895.9 511.326 1903.01 515.142 1907.59 518.681C1912.17 522.15 1915.22 525.55 1916.75 528.881C1918.35 532.211 1919.14 536.097 1919.14 540.537C1919.14 548.308 1915.78 556.253 1909.05 564.371L1895.21 554.691C1897.08 552.541 1898.54 550.39 1899.58 548.239C1900.62 546.157 1901.14 543.937 1901.14 541.578C1901.14 538.664 1900.37 536.097 1898.85 533.876C1897.32 531.656 1894.51 529.366 1890.42 527.007C1886.39 524.648 1880.57 521.873 1872.93 518.681C1862.39 514.379 1854.69 510.771 1849.83 507.857C1844.97 504.874 1841.5 501.925 1839.42 499.011C1837.34 496.027 1835.99 492.974 1835.36 489.852C1834.74 486.66 1834.43 481.769 1834.43 475.177V405.654Z" fill="#0A2344"/>
</g>
</g>
<defs>
<filter id="filter0_d" x="-28.0652" y="330.805" width="462.318" height="219.484" filterUnits="userSpaceOnUse" color-interpolation-filters="sRGB">
<feFlood flood-opacity="0" result="BackgroundImageFix"/>
<feColorMatrix in="SourceAlpha" type="matrix" values="0 0 0 0 0 0 0 0 0 0 0 0 0 0 0 0 0 0 127 0" result="hardAlpha"/>
<feOffset dx="4" dy="4"/>
<feGaussianBlur stdDeviation="2"/>
<feComposite in2="hardAlpha" operator="out"/>
<feColorMatrix type="matrix" values="0 0 0 0 0 0 0 0 0 0 0 0 0 0 0 0 0 0 0.25 0"/>
<feBlend mode="normal" in2="BackgroundImageFix" result="effect1_dropShadow"/>
<feBlend mode="normal" in="SourceGraphic" in2="effect1_dropShadow" result="shape"/>
</filter>
<filter id="filter1_d" x="1243.69" y="90" width="648.903" height="190.242" filterUnits="userSpaceOnUse" color-interpolation-filters="sRGB">
<feFlood flood-opacity="0" result="BackgroundImageFix"/>
<feColorMatrix in="SourceAlpha" type="matrix" values="0 0 0 0 0 0 0 0 0 0 0 0 0 0 0 0 0 0 127 0" result="hardAlpha"/>
<feOffset dx="4" dy="4"/>
<feGaussianBlur stdDeviation="2"/>
<feComposite in2="hardAlpha" operator="out"/>
<feColorMatrix type="matrix" values="0 0 0 0 0 0 0 0 0 0 0 0 0 0 0 0 0 0 0.25 0"/>
<feBlend mode="normal" in2="BackgroundImageFix" result="effect1_dropShadow"/>
<feBlend mode="normal" in="SourceGraphic" in2="effect1_dropShadow" result="shape"/>
</filter>
<filter id="filter2_d" x="-209" y="696.316" width="1197.21" height="245.234" filterUnits="userSpaceOnUse" color-interpolation-filters="sRGB">
<feFlood flood-opacity="0" result="BackgroundImageFix"/>
<feColorMatrix in="SourceAlpha" type="matrix" values="0 0 0 0 0 0 0 0 0 0 0 0 0 0 0 0 0 0 127 0" result="hardAlpha"/>
<feOffset dx="4" dy="4"/>
<feGaussianBlur stdDeviation="2"/>
<feComposite in2="hardAlpha" operator="out"/>
<feColorMatrix type="matrix" values="0 0 0 0 0 0 0 0 0 0 0 0 0 0 0 0 0 0 0.25 0"/>
<feBlend mode="normal" in2="BackgroundImageFix" result="effect1_dropShadow"/>
<feBlend mode="normal" in="SourceGraphic" in2="effect1_dropShadow" result="shape"/>
</filter>
<filter id="filter3_d" x="1484.02" y="636.469" width="594.057" height="193.652" filterUnits="userSpaceOnUse" color-interpolation-filters="sRGB">
<feFlood flood-opacity="0" result="BackgroundImageFix"/>
<feColorMatrix in="SourceAlpha" type="matrix" values="0 0 0 0 0 0 0 0 0 0 0 0 0 0 0 0 0 0 127 0" result="hardAlpha"/>
<feOffset dx="4" dy="4"/>
<feGaussianBlur stdDeviation="2"/>
<feComposite in2="hardAlpha" operator="out"/>
<feColorMatrix type="matrix" values="0 0 0 0 0 0 0 0 0 0 0 0 0 0 0 0 0 0 0.25 0"/>
<feBlend mode="normal" in2="BackgroundImageFix" result="effect1_dropShadow"/>
<feBlend mode="normal" in="SourceGraphic" in2="effect1_dropShadow" result="shape"/>
</filter>
<filter id="filter4_d" x="210.687" y="112" width="330.923" height="193.309" filterUnits="userSpaceOnUse" color-interpolation-filters="sRGB">
<feFlood flood-opacity="0" result="BackgroundImageFix"/>
<feColorMatrix in="SourceAlpha" type="matrix" values="0 0 0 0 0 0 0 0 0 0 0 0 0 0 0 0 0 0 127 0" result="hardAlpha"/>
<feOffset dx="3.05224" dy="3.05224"/>
<feGaussianBlur stdDeviation="1.52612"/>
<feComposite in2="hardAlpha" operator="out"/>
<feColorMatrix type="matrix" values="0 0 0 0 0 0 0 0 0 0 0 0 0 0 0 0 0 0 0.25 0"/>
<feBlend mode="normal" in2="BackgroundImageFix" result="effect1_dropShadow"/>
<feBlend mode="normal" in="SourceGraphic" in2="effect1_dropShadow" result="shape"/>
</filter>
<filter id="filter5_d" x="1063.57" y="828.508" width="617.672" height="235.643" filterUnits="userSpaceOnUse" color-interpolation-filters="sRGB">
<feFlood flood-opacity="0" result="BackgroundImageFix"/>
<feColorMatrix in="SourceAlpha" type="matrix" values="0 0 0 0 0 0 0 0 0 0 0 0 0 0 0 0 0 0 127 0" result="hardAlpha"/>
<feOffset dx="4" dy="4"/>
<feGaussianBlur stdDeviation="2"/>
<feComposite in2="hardAlpha" operator="out"/>
<feColorMatrix type="matrix" values="0 0 0 0 0 0 0 0 0 0 0 0 0 0 0 0 0 0 0.25 0"/>
<feBlend mode="normal" in2="BackgroundImageFix" result="effect1_dropShadow"/>
<feBlend mode="normal" in="SourceGraphic" in2="effect1_dropShadow" result="shape"/>
</filter>
<filter id="filter6_d" x="1483.69" y="343" width="516.205" height="229.371" filterUnits="userSpaceOnUse" color-interpolation-filters="sRGB">
<feFlood flood-opacity="0" result="BackgroundImageFix"/>
<feColorMatrix in="SourceAlpha" type="matrix" values="0 0 0 0 0 0 0 0 0 0 0 0 0 0 0 0 0 0 127 0" result="hardAlpha"/>
<feOffset dx="4" dy="4"/>
<feGaussianBlur stdDeviation="2"/>
<feComposite in2="hardAlpha" operator="out"/>
<feColorMatrix type="matrix" values="0 0 0 0 0 0 0 0 0 0 0 0 0 0 0 0 0 0 0.25 0"/>
<feBlend mode="normal" in2="BackgroundImageFix" result="effect1_dropShadow"/>
<feBlend mode="normal" in="SourceGraphic" in2="effect1_dropShadow" result="shape"/>
</filter>
<clipPath id="clip0">
<rect width="1920" height="1127.83" fill="white"/>
</clipPath>
</defs>
</svg>
