<svg width="181" height="181" viewBox="0 0 181 181" fill="none" xmlns="http://www.w3.org/2000/svg">
<circle cx="90.0001" cy="90.1816" r="90" fill="#FB5517"/>
<path d="M91.2414 178.94L62.6897 150.388L116.69 36.1816C133.655 49.8368 170.69 85.4643 180.621 91.4229C181.117 98.8712 178.965 104.664 178.138 110.044C175.655 118.526 167.959 138.471 157.034 150.388C143.379 165.285 129.103 171.492 124.138 173.354C119.172 175.216 112.965 177.078 104.897 178.94C98.4414 180.43 94.7586 179.147 91.2414 178.94Z" fill="#E34509"/>
<path d="M45.688 68.0876C45.688 59.7345 51.5732 51.3814 53.8513 48.1541C58.5973 41.1299 79.48 24.4238 107.767 31.8276C133.016 42.6487 132.446 60.4939 135.294 65.9993C137.572 70.4037 136.243 84.2875 135.294 90.6789L128.839 115.738L124.283 152.947C103.717 153.074 62.584 152.682 62.584 150.1V137.95H54.4208C52.2693 137.823 47.5105 136.849 45.688 133.963C43.8656 131.077 44.9287 114.915 45.688 107.195C43.6631 107.638 38.9676 108.258 36.3857 107.195C33.8039 106.132 33.4115 105.234 33.5381 104.917L39.6131 94.2859C41.6381 89.0336 45.688 76.4407 45.688 68.0876Z" fill="#011633"/>
<mask id="path-4-inside-1" fill="white">
<rect x="70.2515" y="56.7891" width="41.0206" height="41.0206" rx="3.7594"/>
</mask>
<rect x="70.2515" y="56.7891" width="41.0206" height="41.0206" rx="3.7594" stroke="#E7F1FF" stroke-width="10.0251" mask="url(#path-4-inside-1)"/>
<mask id="path-5-inside-2" fill="white">
<rect x="79.276" y="65.8135" width="22.5613" height="22.5613" rx="2.08856"/>
</mask>
<rect x="79.276" y="65.8135" width="22.5613" height="22.5613" rx="2.08856" stroke="#E7F1FF" stroke-width="10.0251" mask="url(#path-5-inside-2)"/>
<line x1="80.6855" y1="59.4296" x2="80.6855" y2="48.8168" stroke="#E7F1FF" stroke-width="2.92398" stroke-linecap="round"/>
<line x1="80.6855" y1="106.603" x2="80.6855" y2="95.9906" stroke="#E7F1FF" stroke-width="2.92398" stroke-linecap="round"/>
<line x1="1.46199" y1="-1.46199" x2="12.0748" y2="-1.46199" transform="matrix(0.999977 0.00678708 0.00678708 -0.999977 107.991 84.6826)" stroke="#E7F1FF" stroke-width="2.92398" stroke-linecap="round"/>
<line x1="1.46199" y1="-1.46199" x2="12.0748" y2="-1.46199" transform="matrix(0.999977 0.00678708 0.00678708 -0.999977 59.5863 84.6826)" stroke="#E7F1FF" stroke-width="2.92398" stroke-linecap="round"/>
<line x1="90.1204" y1="59.4296" x2="90.1204" y2="48.8168" stroke="#E7F1FF" stroke-width="2.92398" stroke-linecap="round"/>
<line x1="90.1204" y1="106.603" x2="90.1204" y2="95.9906" stroke="#E7F1FF" stroke-width="2.92398" stroke-linecap="round"/>
<line x1="1.46199" y1="-1.46199" x2="12.0748" y2="-1.46199" transform="matrix(0.999977 0.00678708 0.00678708 -0.999977 108.055 75.248)" stroke="#E7F1FF" stroke-width="2.92398" stroke-linecap="round"/>
<line x1="1.46199" y1="-1.46199" x2="12.0748" y2="-1.46199" transform="matrix(0.999977 0.00678708 0.00678708 -0.999977 59.6501 75.248)" stroke="#E7F1FF" stroke-width="2.92398" stroke-linecap="round"/>
<line x1="99.5553" y1="59.4296" x2="99.5553" y2="48.8168" stroke="#E7F1FF" stroke-width="2.92398" stroke-linecap="round"/>
<line x1="99.5553" y1="106.603" x2="99.5553" y2="95.9906" stroke="#E7F1FF" stroke-width="2.92398" stroke-linecap="round"/>
<line x1="1.46199" y1="-1.46199" x2="12.0748" y2="-1.46199" transform="matrix(0.999977 0.00678708 0.00678708 -0.999977 108.119 65.8135)" stroke="#E7F1FF" stroke-width="2.92398" stroke-linecap="round"/>
<line x1="1.46199" y1="-1.46199" x2="12.0748" y2="-1.46199" transform="matrix(0.999977 0.00678708 0.00678708 -0.999977 59.7145 65.8135)" stroke="#E7F1FF" stroke-width="2.92398" stroke-linecap="round"/>
</svg>
