<svg width="180" height="181" viewBox="0 0 180 181" fill="none" xmlns="http://www.w3.org/2000/svg">
<ellipse cx="89.7447" cy="90.1816" rx="89.7446" ry="90" fill="#FB5517"/>
<path d="M178.251 77.1469L129.975 41.7676L50.7522 133.63L90.9825 180.181C111.407 178.94 116.978 175.837 126.261 172.112C135.545 168.388 150.4 158.457 159.684 146.043C168.967 133.63 171.443 126.181 177.014 110.664C181.47 98.2503 180.108 85.2159 178.251 77.1469Z" fill="#E34509"/>
<rect x="61.6818" y="41.1475" width="68.4534" height="86.5314" fill="#011633"/>
<path d="M86.6952 106.555C85.4582 106.555 84.3696 106.298 83.4295 105.786C82.5059 105.273 81.7802 104.537 81.2524 103.578C80.7246 102.602 80.4608 101.444 80.4608 100.104C80.4608 98.7644 80.7164 97.6149 81.2277 96.6556C81.7555 95.6797 82.4729 94.9354 83.3801 94.4226C84.3037 93.9099 85.3592 93.6535 86.5467 93.6535C87.7508 93.6535 88.7733 93.9016 89.6145 94.3978C90.4556 94.894 91.0989 95.5722 91.5442 96.4323C91.9895 97.2924 92.2122 98.2682 92.2122 99.3599C92.2122 99.6741 92.2039 99.9636 92.1874 100.228C92.1709 100.493 92.1462 100.716 92.1132 100.898H83.0584C83.1739 102.056 83.545 102.941 84.1717 103.553C84.815 104.148 85.6396 104.446 86.6457 104.446C87.4704 104.446 88.1383 104.289 88.6496 103.975C89.1609 103.66 89.565 103.222 89.8619 102.66L91.9648 103.652C91.5359 104.562 90.8515 105.273 89.9114 105.786C88.9877 106.298 87.9157 106.555 86.6952 106.555ZM86.4973 95.7624C85.5901 95.7624 84.8397 96.027 84.2459 96.5563C83.6687 97.0856 83.2976 97.8547 83.1327 98.8637H89.6392C89.5732 97.8713 89.2599 97.1104 88.6991 96.5811C88.1383 96.0353 87.4044 95.7624 86.4973 95.7624Z" fill="#E7F1FF"/>
<path d="M100.676 106.555C99.6537 106.555 98.7301 106.298 97.9054 105.786C97.0807 105.273 96.421 104.537 95.9262 103.578C95.4479 102.618 95.2088 101.469 95.2088 100.129C95.2088 98.7396 95.4644 97.5653 95.9757 96.6059C96.487 95.6466 97.1715 94.9189 98.0291 94.4226C98.8868 93.9099 99.8269 93.6535 100.849 93.6535C101.74 93.6535 102.515 93.8686 103.175 94.2986C103.851 94.7121 104.354 95.2662 104.684 95.9609V88.3193H107.331V106.307H104.981L104.833 103.95C104.503 104.777 103.958 105.422 103.2 105.885C102.441 106.332 101.6 106.555 100.676 106.555ZM101.245 104.421C102.284 104.421 103.117 104.024 103.744 103.23C104.371 102.436 104.684 101.345 104.684 99.9553C104.684 98.6652 104.371 97.6563 103.744 96.9285C103.134 96.1842 102.334 95.812 101.344 95.812C100.239 95.812 99.3816 96.1924 98.7713 96.9533C98.1611 97.7141 97.8559 98.7644 97.8559 100.104C97.8559 101.444 98.1528 102.503 98.7466 103.28C99.3403 104.041 100.173 104.421 101.245 104.421Z" fill="#E7F1FF"/>
<path d="M116.212 106.555C115.404 106.555 114.653 106.406 113.96 106.108C113.284 105.811 112.74 105.331 112.328 104.669C111.915 104.008 111.709 103.148 111.709 102.089V93.9016H114.356V101.419C114.356 102.544 114.587 103.321 115.049 103.751C115.527 104.165 116.203 104.372 117.078 104.372C117.638 104.372 118.166 104.247 118.661 103.999C119.156 103.735 119.552 103.33 119.848 102.784C120.162 102.221 120.319 101.502 120.319 100.625V93.9016H122.966V106.307H120.64L120.516 104.297C120.088 105.075 119.51 105.645 118.785 106.009C118.059 106.373 117.201 106.555 116.212 106.555Z" fill="#E7F1FF"/>
<path d="M79.9735 63.4922C83.1855 63.4922 85.5843 63.9925 87.1698 64.9931C88.7553 65.98 89.5481 67.4261 89.5481 69.3314V69.6604H87.4363V69.3725C87.4363 67.9607 86.8076 66.9258 85.5501 66.2679C84.3063 65.5962 82.4338 65.2604 79.9325 65.2604C77.4859 65.2604 75.6817 65.5551 74.5199 66.1445C73.3718 66.7202 72.7704 67.6934 72.7157 69.0641H75.2375V70.8734H72.7362V84.2789H70.5835V70.8734H68.0822V69.0641H70.5835C70.6382 67.1725 71.4241 65.7744 72.9412 64.8697C74.4721 63.9514 76.8162 63.4922 79.9735 63.4922Z" fill="#E7F1FF"/>
<path d="M78.6159 77.9052V79.9201C78.6159 80.7151 78.8004 81.3593 79.1694 81.8528C79.5521 82.3325 80.133 82.5724 80.9121 82.5724C81.5955 82.5724 82.1286 82.3531 82.5113 81.9145C82.894 81.4621 83.0854 80.8727 83.0854 80.1463V79.8584H85.1766V80.1668C85.1766 81.4964 84.8007 82.545 84.049 83.3126C83.2972 84.0665 82.2721 84.4434 80.9736 84.4434C79.5385 84.4434 78.4245 84.0254 77.6318 83.1892C76.839 82.3394 76.4426 81.2017 76.4426 79.7762V76.0753H79.395C80.5158 76.0753 81.4315 75.8354 82.1423 75.3556C82.8667 74.8759 83.2289 74.1426 83.2289 73.1557C83.2289 72.4155 83.0307 71.8329 82.6343 71.408C82.2379 70.9694 81.698 70.7501 81.0146 70.7501C80.3312 70.7501 79.7913 70.9694 79.395 71.408C78.9986 71.8329 78.8004 72.4155 78.8004 73.1557C78.8004 73.3339 78.8141 73.6148 78.8414 73.9986H76.7092C76.6545 73.5874 76.6272 73.2859 76.6272 73.094C76.6272 72.2578 76.8048 71.5245 77.1602 70.894C77.5156 70.2498 78.0213 69.7563 78.6774 69.4136C79.3471 69.0573 80.1262 68.8791 81.0146 68.8791C82.3405 68.8791 83.3997 69.2697 84.1925 70.051C84.9989 70.8186 85.4021 71.9015 85.4021 73.2996C85.4021 74.7937 84.9101 75.9382 83.926 76.7332C82.9555 77.5145 81.698 77.9052 80.1535 77.9052H78.6159ZM92.1679 69.0641V70.8734H89.6666V84.2789H87.4933V69.0641H92.1679Z" fill="#E7F1FF"/>
<path d="M108.942 69.0641V70.8734H106.441V84.2789H104.37V76.7332H98.3016C97.5771 77.0759 97.0236 77.3637 96.6409 77.5967C96.2718 77.8298 95.9506 78.1245 95.6773 78.4809C95.4176 78.8372 95.2877 79.269 95.2877 79.7762C95.2877 80.3656 95.4791 80.859 95.8618 81.2565C96.2582 81.654 96.7776 81.8528 97.42 81.8528C98.1034 81.8528 98.6433 81.6335 99.0396 81.1949C99.4497 80.7425 99.6547 80.1942 99.6547 79.55H101.459V85.4509H99.4907V82.2023C99.2857 82.5724 98.944 82.9082 98.4656 83.2098C97.9872 83.4976 97.3995 83.6416 96.7024 83.6416C95.6226 83.6416 94.7478 83.3263 94.0781 82.6958C93.4083 82.0515 93.0735 81.2223 93.0735 80.2079C93.0735 79.5089 93.2238 78.9126 93.5245 78.4192C93.8389 77.912 94.2353 77.4939 94.7137 77.165C95.192 76.8223 95.7866 76.4728 96.4974 76.1164C95.6499 75.9108 94.9529 75.5133 94.4061 74.9239C93.8731 74.3208 93.6065 73.5532 93.6065 72.6211C93.6065 71.8672 93.7842 71.2093 94.1396 70.6473C94.5086 70.0716 95.0075 69.6329 95.6363 69.3314C96.2787 69.0161 96.9962 68.8585 97.789 68.8585C98.5134 68.8585 99.1695 68.9956 99.7572 69.2697C100.359 69.5439 100.837 69.9482 101.192 70.4828C101.548 71.0037 101.725 71.6342 101.725 72.3744C101.725 72.9638 101.609 73.4846 101.377 73.937C101.145 74.3756 100.823 74.7799 100.413 75.15H104.37V69.0641H108.942ZM95.5337 72.765C95.5337 73.4504 95.7934 74.0124 96.3128 74.451C96.8322 74.8759 97.5088 75.1021 98.3426 75.1295C98.8483 74.8142 99.2378 74.4715 99.5112 74.1014C99.7845 73.7314 99.9212 73.2927 99.9212 72.7856C99.9212 72.1825 99.7094 71.689 99.2857 71.3052C98.8756 70.9214 98.3562 70.7295 97.7275 70.7295C97.1124 70.7295 96.593 70.9077 96.1693 71.2641C95.7456 71.6205 95.5337 72.1208 95.5337 72.765Z" fill="#E7F1FF"/>
<path d="M110.467 84.2789V70.8734H107.965V69.0641H115.121V70.8734H112.619V84.2789H110.467Z" fill="#E7F1FF"/>
<path d="M129.56 127.679H56.5046C53.3276 127.679 50.7522 130.271 50.7522 133.447V133.447C50.7522 136.624 53.3276 139.216 56.5046 139.216H129.56" stroke="#000710" stroke-width="1.15048" stroke-linecap="round"/>
<path d="M61.6817 41.1475H56.5046C53.3276 41.1475 50.7522 43.7229 50.7522 46.8998V127.679V133.736C51.2316 132.198 52.6342 129.347 53.916 128.833C56.7922 127.679 59.6684 128.16 61.6817 127.679V41.1475Z" fill="#000F21"/>
<path d="M56.5046 133.159H128.985" stroke="black" stroke-width="1.72572" stroke-linecap="round"/>
</svg>
