<svg width="180" height="181" viewBox="0 0 180 181" fill="none" xmlns="http://www.w3.org/2000/svg">
<ellipse cx="89.9525" cy="90.1816" rx="89.9524" ry="90" fill="#FB5517"/>
<path d="M93.5508 180.04L31.5184 123.917L94.2107 49.3066C105.209 55.2491 159.939 78.3585 180 86.2817C178.944 94.7331 177.36 109.611 176.701 115.994C172.741 128.319 159.675 155.742 139.085 166.834C118.496 177.927 100.15 180.26 93.5508 180.04Z" fill="#E34509"/>
<ellipse cx="89.5109" cy="61.3756" rx="12.7224" ry="12.7291" fill="#011633"/>
<path d="M72.1622 82.348C72.1622 76.7726 76.6819 72.2529 82.2572 72.2529H97.6899C103.265 72.2529 107.785 76.7726 107.785 82.348V98.637H72.1622V82.348Z" fill="#011633"/>
<ellipse cx="49.3637" cy="84.8873" rx="13.5706" ry="13.5778" fill="#011633"/>
<path d="M30.8584 106.585C30.8584 101.01 35.3781 96.4902 40.9535 96.4902H58.7609C64.3363 96.4902 68.856 101.01 68.856 106.585V124.633H30.8584V106.585Z" fill="#011633"/>
<ellipse cx="129.076" cy="85.3836" rx="13.4009" ry="13.408" fill="#011633"/>
<path d="M110.801 106.937C110.801 101.362 115.321 96.8418 120.897 96.8418H138.229C143.804 96.8418 148.324 101.362 148.324 106.937V124.633H110.801V106.937Z" fill="#011633"/>
<path d="M72.1372 53.81C72.6956 53.1979 72.6524 52.2489 72.0407 51.6904L62.0725 42.5887C61.4608 42.0301 60.5122 42.0736 59.9538 42.6856C59.3954 43.2977 59.4386 44.2467 60.0503 44.8052L68.9109 52.8956L60.8223 61.7617C60.2639 62.3738 60.3071 63.3228 60.9188 63.8813C61.5305 64.4398 62.479 64.3964 63.0374 63.7843L72.1372 53.81ZM49.674 68.1167C51.8681 64.7139 53.6892 61.5111 56.742 58.9808C59.7212 56.5114 63.9786 54.6232 71.0978 54.2974L70.9614 51.2999C63.3213 51.6496 58.4019 53.7087 54.8287 56.6703C51.329 59.571 49.2219 63.283 47.1537 66.4905L49.674 68.1167Z" fill="#E7F1FF"/>
<path d="M125.817 68.9863C126.573 69.325 127.46 68.9865 127.798 68.2303L133.314 55.9065C133.652 55.1503 133.314 54.2626 132.558 53.9239C131.802 53.5852 130.915 53.9237 130.577 54.6799L125.674 65.6343L114.724 60.7279C113.969 60.3892 113.081 60.7276 112.743 61.4839C112.404 62.2401 112.743 63.1278 113.499 63.4665L125.817 68.9863ZM106.427 53.123C110.12 54.0833 113.501 54.764 116.647 56.7387C119.713 58.6626 122.644 61.8958 125.028 68.1515L127.831 67.0824C125.26 60.3394 121.959 56.5307 118.241 54.1968C114.604 51.9136 110.65 51.1206 107.181 50.2187L106.427 53.123Z" fill="#E7F1FF"/>
<path d="M77.7041 122.684C76.8771 122.73 76.2449 123.439 76.2921 124.266L77.0603 137.746C77.1075 138.573 77.8161 139.206 78.6431 139.159C79.4701 139.112 80.1023 138.404 80.0552 137.577L79.3723 125.594L91.3516 124.917C92.1786 124.87 92.8108 124.162 92.7636 123.335C92.7165 122.507 92.0079 121.875 91.1809 121.922L77.7041 122.684ZM102.216 127.855C98.4951 128.701 95.1797 129.651 91.4781 129.344C87.8716 129.045 83.7821 127.521 78.788 123.062L76.791 125.3C82.1742 130.106 86.8565 131.971 91.2316 132.334C95.5115 132.689 99.3873 131.575 102.882 130.781L102.216 127.855Z" fill="#E7F1FF"/>
</svg>
