<svg width="180" height="181" viewBox="0 0 180 181" fill="none" xmlns="http://www.w3.org/2000/svg">
<circle cx="89.9778" cy="90.1593" r="89.9777" fill="#FB5517"/>
<path d="M179.549 82.0344L132.021 47.709L48.8479 145.404L99.676 180.39C112.438 179.07 142.583 170.62 161.066 147.385C179.549 124.149 181.089 94.1364 179.549 82.0344Z" fill="#E34509"/>
<path d="M47.5277 66.0603C47.5277 64.6161 48.6985 63.4453 50.1427 63.4453H73.5173C74.9615 63.4453 76.1323 64.6161 76.1323 66.0603V146.3H47.5277V66.0603Z" fill="url(#paint0_linear)"/>
<path d="M76.1323 37.695C76.1323 36.6634 76.9686 35.8271 78.0001 35.8271H102.869C103.901 35.8271 104.737 36.6634 104.737 37.695V146.3H76.1323V37.695Z" fill="url(#paint1_linear)"/>
<path d="M104.737 49.2917C104.737 47.8475 105.908 46.6768 107.352 46.6768H130.726C132.171 46.6768 133.341 47.8475 133.341 49.2917V146.299H104.737V49.2917Z" fill="#011633"/>
<rect x="81.8531" y="46.3887" width="17.1627" height="11.8819" fill="#365175"/>
<rect x="76.5723" y="112.399" width="27.7244" height="3.96063" fill="#365175"/>
<rect x="76.5723" y="119" width="27.7244" height="3.96063" fill="#365175"/>
<rect x="76.5723" y="125.602" width="27.7244" height="3.96063" fill="#365175"/>
<rect x="52.8086" y="70.1523" width="17.1627" height="22.4436" fill="#365175"/>
<rect x="112.218" y="89.9561" width="17.1627" height="15.8425" fill="#365175"/>
<rect x="112.218" y="70.1523" width="17.1627" height="15.8425" fill="#365175"/>
<defs>
<linearGradient id="paint0_linear" x1="44.0754" y1="108.078" x2="76.1323" y2="108.078" gradientUnits="userSpaceOnUse">
<stop stop-color="#35609B"/>
<stop offset="0.443988" stop-color="#000916"/>
<stop offset="0.709624" stop-color="#011228"/>
<stop offset="1" stop-color="#032655"/>
</linearGradient>
<linearGradient id="paint1_linear" x1="74.5921" y1="91.2759" x2="108.918" y2="91.2759" gradientUnits="userSpaceOnUse">
<stop offset="0.379835" stop-color="#022048"/>
<stop offset="0.576028" stop-color="#010F21"/>
</linearGradient>
</defs>
</svg>
