<svg width="180" height="181" viewBox="0 0 180 181" fill="none" xmlns="http://www.w3.org/2000/svg">
<circle cx="89.9484" cy="90.1299" r="89.9483" fill="#FB5517"/>
<path d="M129.849 38.7207L35.4844 119.887C41.6433 132.205 57.5247 161.196 71.7783 178.617C86.0319 181.785 103.233 179.937 110.052 178.617C120.83 175.538 145.686 164.76 158.884 146.283C172.609 135.724 178.68 104.05 180 89.5322L129.849 38.7207Z" fill="#E34509"/>
<rect x="34.7947" y="64.4592" width="57.7698" height="57.013" fill="#011633" stroke="#FB5517" stroke-width="1.26029"/>
<g filter="url(#filter0_d)">
<path d="M71.6714 110.75C69.8321 110.75 68.3574 110.428 67.2474 109.785C66.1692 109.141 65.1385 108.08 64.1554 106.6C63.1405 108.24 62.0147 109.35 60.7779 109.93C59.5728 110.477 58.2091 110.75 56.6869 110.75C54.3718 110.75 52.5007 110.058 51.0736 108.675C49.6782 107.291 48.9805 105.473 48.9805 103.221C48.9805 102.32 49.2025 101.371 49.6465 100.374C50.0905 99.344 50.804 98.4592 51.7872 97.7192H47.0302V94.1478H58.1615V97.5744C56.2587 97.9927 54.8951 98.6845 54.0705 99.6497C53.246 100.615 52.8337 101.725 52.8337 102.98C52.8337 104.17 53.1984 105.136 53.9278 105.876C54.6572 106.583 55.6562 106.937 56.9247 106.937C58.5104 106.937 59.7631 106.423 60.6828 105.393C61.6342 104.331 62.1733 102.948 62.3001 101.242H65.963C66.1216 103.205 66.7241 104.653 67.7707 105.586C68.8489 106.487 70.0223 106.937 71.2909 106.937C72.1788 106.937 73.0034 106.776 73.7645 106.455C74.5573 106.133 75.1916 105.538 75.6673 104.669C76.143 103.8 76.3809 102.545 76.3809 100.905C76.3809 99.1349 76.0479 97.5744 75.3819 96.2231C74.7159 94.8717 73.8279 93.7295 72.718 92.7964C71.6397 91.8634 70.4188 91.1394 69.0551 90.6246C67.6914 90.0777 66.3277 89.7398 64.9641 89.6111C64.7421 89.6433 64.5042 89.6594 64.2505 89.6594C63.3308 89.6594 62.4428 89.4824 61.5866 89.1285C60.762 88.7746 60.0009 88.115 59.3032 87.1497C58.6055 86.1523 58.003 84.7527 57.4956 82.9509L61.4439 81.6478C61.9196 83.4175 62.3794 84.5918 62.8234 85.171C63.2674 85.7501 63.8382 86.0397 64.5359 86.0397C65.1702 86.0397 65.7569 85.8467 66.296 85.4606C66.8669 85.0423 67.6597 84.1896 68.6745 82.9027L70.1492 80.9722C71.2274 79.5565 72.2106 78.4303 73.0985 77.5938C74.0182 76.7572 74.9855 76.1459 76.0003 75.7598C77.0151 75.3737 78.2202 75.1807 79.6156 75.1807L79.901 78.8969C78.7911 78.9612 77.8555 79.1382 77.0944 79.4278C76.365 79.7173 75.6832 80.1839 75.0489 80.8274C74.4464 81.4387 73.7328 82.2752 72.9083 83.337L71.8141 84.7849C71.1799 85.6214 70.5773 86.3293 70.0065 86.9084C73.3998 88.0667 75.9686 89.9007 77.7128 92.4104C79.4571 94.8878 80.3292 97.687 80.3292 100.808C80.3292 103.06 79.9486 104.926 79.1875 106.406C78.4264 107.854 77.3957 108.948 76.0954 109.688C74.7952 110.396 73.3205 110.75 71.6714 110.75Z" fill="#E7F1FF"/>
</g>
<rect x="74.1481" y="37.2141" width="57.7698" height="57.013" fill="#011633" stroke="#FB5517" stroke-width="1.26029"/>
<g filter="url(#filter1_d)">
<path d="M93.6652 82.7482C91.2918 82.7482 89.1557 82.3671 87.2569 81.605C85.3581 80.8428 83.855 79.7197 82.7473 78.2355C81.6397 76.7513 81.0859 74.9663 81.0859 72.8804C81.0859 70.7946 81.6002 68.9694 82.6287 67.405C83.6967 65.8406 85.3779 64.6372 87.6722 63.7949V48.6924H118.705V53.0246H107.609V62.2906H108.559C111.644 62.2906 114.136 62.5313 116.035 63.0127C117.934 63.4539 119.556 64.196 120.9 65.2389C121.929 66.0412 122.74 67.1042 123.333 68.4279C123.927 69.7115 124.223 71.1957 124.223 72.8804C124.223 75.929 123.313 78.2957 121.494 79.9804C119.714 81.6652 117.182 82.5075 113.899 82.5075C112.989 82.5075 112 82.4474 110.932 82.327C109.864 82.2067 108.875 82.0061 107.965 81.7253L109.093 77.694C110.398 78.0951 111.842 78.2957 113.424 78.2957C117.222 78.2957 119.12 76.4104 119.12 72.6398C119.12 70.7946 118.606 69.4508 117.578 68.6084C116.589 67.7259 115.323 67.1644 113.78 66.9237C112.237 66.6429 110.635 66.5025 108.974 66.5025H107.609V68.4279C107.609 71.1155 107.372 73.2214 106.897 74.7457C106.462 76.27 105.829 77.5536 104.998 78.5965C103.772 80.1208 102.19 81.2039 100.252 81.8457C98.3528 82.4474 96.1573 82.7482 93.6652 82.7482ZM92.3598 53.0246V62.6517C94.0212 62.411 95.8606 62.2906 97.8781 62.2906H102.566V53.0246H92.3598ZM86.1888 72.8203C86.1888 74.6655 86.9404 76.0694 88.4436 77.0321C89.9468 77.9547 91.8456 78.416 94.1399 78.416C95.8804 78.416 97.3638 78.1553 98.5901 77.6338C99.8559 77.0722 100.825 76.1296 101.498 74.8059C102.21 73.4821 102.566 71.6169 102.566 69.2101V66.5025H97.4627C95.4453 66.5025 93.7245 66.6228 92.3005 66.8635C90.916 67.1042 89.7292 67.5053 88.7403 68.0669C87.0393 69.0697 86.1888 70.6542 86.1888 72.8203Z" fill="#E7F1FF"/>
</g>
<rect x="83.9866" y="78.0813" width="57.7698" height="57.013" fill="#011633" stroke="#FB5517" stroke-width="1.26029"/>
<g filter="url(#filter2_d)">
<path d="M112.624 87.2891C117.872 87.2891 121.791 88.1204 124.382 89.783C126.972 91.4228 128.268 93.8257 128.268 96.9915V97.5381H124.817V97.0598C124.817 94.7139 123.79 92.9944 121.735 91.9011C119.703 90.7851 116.644 90.2271 112.557 90.2271C108.559 90.2271 105.611 90.7168 103.713 91.6962C101.837 92.6527 100.855 94.2698 100.765 96.5474H104.886V99.5538H100.799V121.828H97.2815V99.5538H93.1947V96.5474H97.2815C97.3708 93.4043 98.655 91.0812 101.134 89.578C103.635 88.052 107.465 87.2891 112.624 87.2891Z" fill="#E7F1FF"/>
<path d="M110.406 111.238V114.586C110.406 115.907 110.707 116.977 111.31 117.797C111.935 118.594 112.884 118.993 114.157 118.993C115.274 118.993 116.145 118.628 116.77 117.9C117.396 117.148 117.708 116.169 117.708 114.962V114.483H121.125V114.996C121.125 117.205 120.511 118.947 119.283 120.223C118.054 121.475 116.379 122.102 114.258 122.102C111.913 122.102 110.093 121.407 108.798 120.018C107.502 118.606 106.855 116.715 106.855 114.347V108.197H111.679C113.51 108.197 115.006 107.799 116.167 107.001C117.351 106.204 117.943 104.986 117.943 103.346C117.943 102.116 117.619 101.148 116.971 100.442C116.324 99.7132 115.442 99.3488 114.325 99.3488C113.208 99.3488 112.326 99.7132 111.679 100.442C111.031 101.148 110.707 102.116 110.707 103.346C110.707 103.642 110.729 104.109 110.774 104.747H107.29C107.201 104.063 107.156 103.562 107.156 103.243C107.156 101.854 107.447 100.636 108.027 99.5879C108.608 98.5175 109.434 97.6975 110.506 97.1282C111.6 96.536 112.873 96.2399 114.325 96.2399C116.491 96.2399 118.222 96.889 119.517 98.1872C120.835 99.4627 121.494 101.262 121.494 103.585C121.494 106.068 120.69 107.969 119.082 109.29C117.496 110.589 115.442 111.238 112.918 111.238H110.406ZM132.548 96.5474V99.5538H128.461V121.828H124.91V96.5474H132.548Z" fill="#E7F1FF"/>
</g>
<defs>
<filter id="filter0_d" x="47.0302" y="75.1807" width="39.0805" height="41.3509" filterUnits="userSpaceOnUse" color-interpolation-filters="sRGB">
<feFlood flood-opacity="0" result="BackgroundImageFix"/>
<feColorMatrix in="SourceAlpha" type="matrix" values="0 0 0 0 0 0 0 0 0 0 0 0 0 0 0 0 0 0 127 0" result="hardAlpha"/>
<feOffset dx="2.89073" dy="2.89073"/>
<feGaussianBlur stdDeviation="1.44537"/>
<feComposite in2="hardAlpha" operator="out"/>
<feColorMatrix type="matrix" values="0 0 0 0 0 0 0 0 0 0 0 0 0 0 0 0 0 0 0.25 0"/>
<feBlend mode="normal" in2="BackgroundImageFix" result="effect1_dropShadow"/>
<feBlend mode="normal" in="SourceGraphic" in2="effect1_dropShadow" result="shape"/>
</filter>
<filter id="filter1_d" x="81.0859" y="48.6924" width="48.9188" height="39.8373" filterUnits="userSpaceOnUse" color-interpolation-filters="sRGB">
<feFlood flood-opacity="0" result="BackgroundImageFix"/>
<feColorMatrix in="SourceAlpha" type="matrix" values="0 0 0 0 0 0 0 0 0 0 0 0 0 0 0 0 0 0 127 0" result="hardAlpha"/>
<feOffset dx="2.89073" dy="2.89073"/>
<feGaussianBlur stdDeviation="1.44537"/>
<feComposite in2="hardAlpha" operator="out"/>
<feColorMatrix type="matrix" values="0 0 0 0 0 0 0 0 0 0 0 0 0 0 0 0 0 0 0.25 0"/>
<feBlend mode="normal" in2="BackgroundImageFix" result="effect1_dropShadow"/>
<feBlend mode="normal" in="SourceGraphic" in2="effect1_dropShadow" result="shape"/>
</filter>
<filter id="filter2_d" x="93.1947" y="87.2891" width="45.1349" height="40.5941" filterUnits="userSpaceOnUse" color-interpolation-filters="sRGB">
<feFlood flood-opacity="0" result="BackgroundImageFix"/>
<feColorMatrix in="SourceAlpha" type="matrix" values="0 0 0 0 0 0 0 0 0 0 0 0 0 0 0 0 0 0 127 0" result="hardAlpha"/>
<feOffset dx="2.89073" dy="2.89073"/>
<feGaussianBlur stdDeviation="1.44537"/>
<feComposite in2="hardAlpha" operator="out"/>
<feColorMatrix type="matrix" values="0 0 0 0 0 0 0 0 0 0 0 0 0 0 0 0 0 0 0.25 0"/>
<feBlend mode="normal" in2="BackgroundImageFix" result="effect1_dropShadow"/>
<feBlend mode="normal" in="SourceGraphic" in2="effect1_dropShadow" result="shape"/>
</filter>
</defs>
</svg>
