<svg width="42" height="42" viewBox="0 0 42 42" fill="none" xmlns="http://www.w3.org/2000/svg">
<path d="M20.9999 16.0793C20.0109 16.0797 19.0443 16.3709 18.2222 16.9162C17.4001 17.4614 16.7594 18.2362 16.3812 19.1427C16.003 20.0491 15.9043 21.0463 16.0974 22.0084C16.2906 22.9705 16.767 23.8542 17.4664 24.5477C18.1659 25.2412 19.0569 25.7135 20.0269 25.9047C20.9968 26.0959 22.0022 25.9976 22.9158 25.6221C23.8295 25.2466 24.6104 24.6109 25.1598 23.7952C25.7091 22.9795 26.0024 22.0206 26.0024 21.0396C26.0014 19.724 25.474 18.4626 24.536 17.5326C23.598 16.6025 22.3261 16.0798 20.9999 16.0793ZM32.6914 12.2666C32.4369 11.6266 32.0524 11.0454 31.562 10.5589C31.0716 10.0725 30.4856 9.69113 29.8405 9.43861C27.8718 8.6677 23.1843 8.84066 20.9999 8.84066C18.8155 8.84066 14.1327 8.66119 12.1583 9.43861C11.5132 9.69113 10.9272 10.0725 10.4368 10.5589C9.94637 11.0454 9.56195 11.6266 9.30738 12.2666C8.53113 14.2194 8.70457 18.8738 8.70457 21.0387C8.70457 23.2036 8.53113 27.8523 9.31113 29.8117C9.5657 30.4516 9.95012 31.0329 10.4405 31.5193C10.931 32.0058 11.5169 32.3871 12.1621 32.6396C14.1308 33.4105 18.8183 33.2376 21.0036 33.2376C23.1889 33.2376 27.8699 33.4171 29.8443 32.6396C30.4894 32.3871 31.0754 32.0058 31.5658 31.5193C32.0562 31.0329 32.4406 30.4516 32.6952 29.8117C33.478 27.8588 33.298 23.2045 33.298 21.0396C33.298 18.8747 33.478 14.2269 32.6952 12.2675L32.6914 12.2666ZM20.9999 28.6651C19.4794 28.6651 17.9931 28.2178 16.7289 27.3799C15.4647 26.542 14.4794 25.3511 13.8976 23.9577C13.3157 22.5644 13.1635 21.0311 13.4601 19.5519C13.7567 18.0727 14.4889 16.714 15.564 15.6476C16.6391 14.5811 18.0089 13.8548 19.5001 13.5606C20.9914 13.2664 22.537 13.4174 23.9418 13.9946C25.3465 14.5717 26.5471 15.5491 27.3918 16.8031C28.2365 18.0571 28.6874 19.5314 28.6874 21.0396C28.6886 22.0413 28.4906 23.0335 28.1047 23.9592C27.7188 24.8849 27.1526 25.726 26.4385 26.4343C25.7244 27.1427 24.8765 27.7043 23.9432 28.0871C23.01 28.4699 22.0098 28.6663 20.9999 28.6651ZM29.0043 14.8741C28.6493 14.8743 28.3023 14.77 28.0071 14.5746C27.7119 14.3791 27.4818 14.1012 27.3458 13.776C27.2098 13.4508 27.1742 13.0929 27.2433 12.7475C27.3124 12.4022 27.4833 12.085 27.7342 11.8359C27.9851 11.5869 28.3048 11.4173 28.6529 11.3486C29.001 11.2798 29.3618 11.315 29.6898 11.4497C30.0177 11.5844 30.298 11.8125 30.4952 12.1052C30.6924 12.398 30.7977 12.7421 30.7977 13.0942C30.7987 13.328 30.7531 13.5597 30.6636 13.776C30.5741 13.9923 30.4425 14.1889 30.2762 14.3546C30.1099 14.5203 29.9123 14.6519 29.6947 14.7416C29.4771 14.8314 29.2437 14.8777 29.008 14.8778L29.0043 14.8741ZM37.4999 0.208984H4.49988C3.3064 0.208984 2.16181 0.679266 1.3179 1.51637C0.473984 2.35348 -0.00012207 3.48884 -0.00012207 4.67268L-0.00012207 37.4065C-0.00012207 38.5903 0.473984 39.7257 1.3179 40.5628C2.16181 41.3999 3.3064 41.8702 4.49988 41.8702H37.4999C38.6934 41.8702 39.8379 41.3999 40.6819 40.5628C41.5258 39.7257 41.9999 38.5903 41.9999 37.4065V4.67268C41.9999 3.48884 41.5258 2.35348 40.6819 1.51637C39.8379 0.679266 38.6934 0.208984 37.4999 0.208984ZM35.8949 27.1772C35.7739 29.5606 35.2255 31.6725 33.4714 33.4078C31.7174 35.143 29.5902 35.6982 27.1902 35.8116C24.7143 35.9502 17.2911 35.9502 14.8152 35.8116C12.4124 35.6917 10.2908 35.1467 8.53394 33.4078C6.77707 31.6688 6.22488 29.556 6.1105 27.1772C5.97082 24.7203 5.97082 17.3561 6.1105 14.902C6.23144 12.5186 6.77332 10.4067 8.53394 8.67142C10.2946 6.93615 12.4218 6.38749 14.8152 6.27404C17.2911 6.13548 24.7143 6.13548 27.1902 6.27404C29.593 6.394 31.7211 6.93894 33.4714 8.67793C35.2218 10.4169 35.7805 12.5297 35.8949 14.9132C36.0346 17.3608 36.0346 24.7184 35.8949 27.1772Z" fill="#DFDFDF"/>
</svg>
