<svg width="115" height="108" viewBox="0 0 115 108" fill="none" xmlns="http://www.w3.org/2000/svg">
<path fill-rule="evenodd" clip-rule="evenodd" d="M51.0563 46.0005L32.2451 41.7051V46.0005L32.2451 64.9718L32.2451 67.2985L41.6507 66.1351L51.0563 65.3297V62.1398C51.0897 62.1326 51.1229 62.125 51.1558 62.1171V65.0845L72.057 67.0394V55.5784V42.3078L51.1558 46.0598V50.6927C51.0911 50.7555 51.0587 50.8917 51.0587 51.1013C51.0587 51.1724 51.0638 51.2434 51.0739 51.3144C51.0938 51.4217 51.1211 51.508 51.1558 51.5733V60.8264C51.1231 60.8389 51.0899 60.8507 51.0563 60.8619V46.0005ZM51.1558 60.8264V62.1171C52.9325 61.6894 53.8209 60.2774 53.8209 57.8812V51.7253H55.1069C55.1525 51.7253 55.2083 51.6898 55.2743 51.6188C55.3453 51.5427 55.3808 51.3829 55.3808 51.1394C55.3808 50.8147 55.3148 50.6524 55.1829 50.6524H51.2566C51.217 50.6524 51.1834 50.6658 51.1558 50.6927V51.5733C51.2096 51.6746 51.2812 51.7253 51.3707 51.7253H52.4664C52.5324 51.7253 52.5654 51.7659 52.5654 51.8471V57.729C52.5654 58.8603 52.3675 59.6871 51.9718 60.2096C51.7689 60.4785 51.5102 60.6789 51.1957 60.8108C51.1825 60.8161 51.1692 60.8213 51.1558 60.8264ZM51.0563 60.8619V62.1398C50.6965 62.2176 50.3017 62.2565 49.8717 62.2565C48.4513 62.2565 47.4316 61.871 46.8128 61.0999C46.2446 60.3948 45.9605 59.2864 45.9605 57.7747V51.8471C45.9605 51.7659 45.9275 51.7253 45.8616 51.7253H44.6213C44.4793 51.7253 44.3829 51.5883 44.3321 51.3144C44.322 51.2434 44.3144 51.1774 44.3093 51.1166C44.3093 50.8071 44.3753 50.6524 44.5072 50.6524H48.8597C48.9865 50.6524 49.0499 50.83 49.0499 51.1851C49.0499 51.5452 48.9611 51.7253 48.7836 51.7253H47.5661V57.7062C47.5661 59.436 48.0581 60.4785 49.0423 60.8336C49.3517 60.9452 49.7094 61.001 50.1152 61.001C50.4623 61.001 50.776 60.9546 51.0563 60.8619ZM62.8535 61.1228C62.9854 61.1228 63.0514 61.2775 63.0514 61.587C63.0514 61.8153 63.0133 61.9725 62.9372 62.0588C62.8611 62.145 62.8028 62.1906 62.7622 62.1957C62.7267 62.1957 62.6557 62.2008 62.5491 62.2109C62.4477 62.2262 62.3158 62.2414 62.1535 62.2566C61.7121 62.2972 61.3697 62.3175 61.1262 62.3175C60.8776 62.3175 60.7179 62.3073 60.6468 62.287C60.6123 62.2796 60.6233 62.2686 60.638 62.2541C60.6534 62.2386 60.6729 62.2192 60.6468 62.1957C60.6015 62.1576 60.6089 62.1104 60.6194 62.0432C60.6312 61.9675 60.6471 61.8664 60.596 61.7239C59.9771 62.1754 58.8282 62.3479 57.9912 62.3479C57.0071 62.3479 56.2487 61.9776 55.716 61.237C55.2037 60.5268 54.9475 59.5477 54.9475 58.2998V58.277C54.9475 57.0595 55.3254 56.0982 56.0813 55.393C56.7712 54.7488 57.6615 54.4267 58.7521 54.4267C59.2645 54.4267 60.2155 54.4317 60.596 54.5332V51.3127L58.7521 51.4743C58.605 51.4743 58.5061 51.35 58.4554 51.1014C58.4452 51.0304 58.4401 50.9543 58.4401 50.8731C58.4401 50.6296 58.5086 50.4825 58.6456 50.4318C58.7826 50.3811 58.9626 50.3379 59.1859 50.3024C59.4091 50.2669 59.6424 50.239 59.8859 50.2187C60.3526 50.1782 60.8016 50.1553 61.2327 50.1503L61.7593 50.1494C61.9724 50.1494 62.1433 50.3529 62.1535 50.7841V53.2731V56.0931V61.1076L62.8535 61.1228ZM58.1966 61.1761C58.851 61.1761 59.9873 60.9224 60.596 60.4152V56.154C60.175 55.8242 59.1935 55.5985 58.6608 55.5985C57.7122 55.5985 57.0603 56.0576 56.7052 56.9758C56.5733 57.3258 56.5074 57.7671 56.5074 58.2998C56.5074 58.8324 56.5607 59.2814 56.6672 59.6466C56.7737 60.0068 56.9081 60.301 57.0705 60.5293C57.385 60.9605 57.7604 61.1761 58.1966 61.1761ZM66.5286 55.9485C66.5286 55.7811 66.4981 55.6315 66.4373 55.4996H67.2134C67.5381 55.4996 67.7968 55.5478 67.9896 55.6441C68.1874 55.7355 68.3548 55.9054 68.4918 56.154C68.6338 56.3975 68.7048 56.9428 68.7048 57.79H66.8253C66.0746 57.79 65.4481 57.9827 64.9459 58.3683C64.3726 58.8045 64.086 59.4107 64.086 60.1869V60.2097C64.086 60.8337 64.2965 61.3384 64.7176 61.7239C65.164 62.1399 65.7778 62.3479 66.559 62.3479C67.4316 62.3479 68.1773 62.1222 68.7961 61.6707C68.8925 61.9345 68.9889 62.1095 69.0853 62.1957C69.136 62.2414 69.1918 62.2718 69.2527 62.287C69.3136 62.3073 69.6103 62.3175 70.143 62.3175C70.6706 62.3175 71.0764 62.2769 71.3605 62.1957C71.467 62.1704 71.5456 62.0943 71.5964 61.9674C71.6471 61.8356 71.6724 61.7037 71.6724 61.5718C71.6724 61.2725 71.604 61.1228 71.467 61.1228H70.1886V57.1888C70.1886 56.362 70.0136 55.7228 69.6636 55.2713C69.4607 55.0126 69.1842 54.8071 68.8342 54.6549C68.4892 54.5028 68.0809 54.4267 67.6091 54.4267C67.1323 54.4267 66.6935 54.4622 66.2927 54.5332C66.0644 54.5738 65.8387 54.6296 65.6155 54.7006C65.3973 54.7716 65.1995 54.8655 65.022 54.9821C64.8495 55.0988 64.71 55.2383 64.6034 55.4007C64.4969 55.563 64.4436 55.7355 64.4436 55.9181C64.4436 56.1058 64.469 56.263 64.5197 56.3899C64.6922 56.8058 65.0143 57.0138 65.4861 57.0138C65.7854 57.0087 66.0314 56.9098 66.2242 56.7171C66.3155 56.6257 66.3916 56.5167 66.4525 56.3899C66.5032 56.263 66.5286 56.1159 66.5286 55.9485ZM68.7048 60.4152C68.0961 60.9224 67.4721 61.1761 66.833 61.1761C66.6706 61.1761 66.5159 61.1533 66.3688 61.1076C65.8717 60.9554 65.6231 60.58 65.6231 59.9814C65.6231 59.6618 65.7981 59.3803 66.1481 59.1368C66.3409 58.9998 66.6402 58.9313 67.046 58.9313H68.7048V60.4152ZM74.9913 55.4387C75.0521 55.5706 75.0826 55.7202 75.0826 55.8876C75.0826 56.055 75.0572 56.2022 75.0065 56.329C74.9456 56.4558 74.8695 56.5649 74.7782 56.6562C74.5854 56.8489 74.3394 56.9479 74.0401 56.9529C73.5683 56.9529 73.2462 56.745 73.0737 56.329C73.023 56.2022 72.9976 56.0449 72.9976 55.8572C72.9976 55.6746 73.0509 55.5021 73.1574 55.3398C73.264 55.1774 73.4035 55.0379 73.5759 54.9213C73.7535 54.8046 73.9513 54.7107 74.1695 54.6397C74.3927 54.5687 74.6184 54.5129 74.8467 54.4723C75.2474 54.4013 75.6862 54.3658 76.1631 54.3658C76.6349 54.3658 77.0432 54.4419 77.3882 54.5941C77.7382 54.7463 78.0147 54.9517 78.2176 55.2104C78.5676 55.6619 78.7426 56.3011 78.7426 57.128V61.0619H80.021C80.158 61.0619 80.2264 61.2116 80.2264 61.5109C80.2264 61.6428 80.2011 61.7747 80.1503 61.9066C80.0996 62.0334 80.021 62.1095 79.9145 62.1348C79.6304 62.216 79.2246 62.2566 78.697 62.2566C78.1643 62.2566 77.8676 62.2465 77.8067 62.2262C77.7458 62.2109 77.69 62.1805 77.6393 62.1348C77.5429 62.0486 77.4465 61.8736 77.3501 61.6098C76.7313 62.0613 75.9855 62.287 75.113 62.287C74.3318 62.287 73.718 62.079 73.2716 61.6631C72.8505 61.2775 72.64 60.7728 72.64 60.1488V60.126C72.64 59.3499 72.9266 58.7437 73.4998 58.3074C74.0021 57.9219 74.6286 57.7291 75.3793 57.7291H77.2588C77.2588 56.8819 77.1878 56.3366 77.0458 56.0931C76.9088 55.8445 76.7414 55.6746 76.5436 55.5833C76.3508 55.4869 76.0921 55.4387 75.7674 55.4387H74.9913ZM75.3869 61.1152C76.0261 61.1152 76.6501 60.8616 77.2588 60.3543V58.8705H75.6C75.1942 58.8705 74.8949 58.939 74.7021 59.0759C74.3521 59.3194 74.1771 59.601 74.1771 59.9206C74.1771 60.5191 74.4256 60.8945 74.9228 61.0467C75.0699 61.0924 75.2246 61.1152 75.3869 61.1152ZM86.3703 61.6707C86.3703 61.9801 86.4362 62.1348 86.5681 62.1348H90.0303C90.0506 62.1348 89.8777 61.988 89.6529 61.7971C89.2585 61.4622 88.7044 60.9916 88.7529 60.9399C88.8019 60.8876 88.8352 60.8015 88.8526 60.6817L88.9574 61.0619V57.2801C88.9574 56.3062 88.7951 55.596 88.4704 55.1495C88.2878 54.8959 88.0393 54.7031 87.7247 54.5712C87.4102 54.4343 87.0982 54.3658 86.7888 54.3658C86.4743 54.3658 86.2156 54.3912 86.0127 54.4419C85.3836 54.5991 84.6861 54.8908 83.9201 55.3169V55.1724C83.9201 54.8984 83.9074 54.7184 83.8821 54.6321C83.8618 54.5509 83.8263 54.485 83.7755 54.4343C83.7299 54.3886 83.5954 54.3633 83.3722 54.3582H83.3418C83.1135 54.3582 82.7711 54.3835 82.3146 54.4343C82.0863 54.4546 81.8681 54.485 81.6602 54.5256C81.4522 54.5662 81.2797 54.6144 81.1427 54.6702C81.0108 54.7209 80.9449 54.8629 80.9449 55.0963C80.9449 55.1724 80.95 55.2459 80.9601 55.3169C81.0007 55.5604 81.0996 55.6847 81.2569 55.6898H82.5961V60.7347C82.5961 60.7956 82.5809 60.8463 82.5504 60.8869C82.4693 61.0036 82.137 61.0619 81.5536 61.0619H81.4775C81.4217 61.0619 81.3558 61.1025 81.2797 61.1837C81.2036 61.2649 81.1656 61.4272 81.1656 61.6707C81.1656 61.9801 81.2315 62.1348 81.3634 62.1348H85.2441C85.2999 62.1348 85.3659 62.0943 85.442 62.0131C85.5181 61.9319 85.5561 61.7696 85.5561 61.5261C85.5561 61.2167 85.4902 61.0619 85.3583 61.0619H84.0799V56.6714C84.9068 56.017 85.6017 55.6898 86.1648 55.6898C86.4641 55.6898 86.7 55.7557 86.8725 55.8876C87.0501 56.0145 87.1946 56.2326 87.3062 56.542C87.4178 56.8464 87.4736 57.4907 87.4736 58.4748V60.7347C87.4736 60.9529 87.2098 61.0619 86.6823 61.0619C86.6265 61.0619 86.5605 61.1025 86.4844 61.1837C86.4083 61.2649 86.3703 61.4272 86.3703 61.6707Z" fill="#011633"/>
<path d="M20.6032 55.1611L42.8962 48.9433L33.1609 65.3537L29.9447 62.7617L26.6877 65.5234L25.196 59.0782L20.6032 55.1611Z" fill="#FB5517"/>
<path d="M42.8962 48.9433L20.6032 55.1611L25.196 59.0782M42.8962 48.9433L33.1609 65.3537L29.9447 62.7617M42.8962 48.9433L27.6475 60.9103M42.8962 48.9433L25.196 59.0782M27.6475 60.9103L26.6877 65.5234M27.6475 60.9103L29.9447 62.7617M25.196 59.0782L26.6877 65.5234M26.6877 65.5234L29.9447 62.7617" stroke="white" stroke-width="0.284003"/>
<path d="M5.13941 75.826L4.68429 74.7939L4.08901 73.5773C4.05616 73.5102 4.11502 73.4367 4.26561 73.3569C4.39506 73.2883 4.51517 73.272 4.62593 73.308C4.65758 73.3183 4.68852 73.3543 4.71874 73.4161L4.72662 73.4322C4.72924 73.4443 4.73317 73.4558 4.73843 73.4665C4.76865 73.5283 4.8035 73.5893 4.84296 73.6495C4.88635 73.7246 4.92517 73.7801 4.9594 73.8161C5.01997 73.8787 5.08196 73.8932 5.14536 73.8596L9.75802 71.4151C9.80029 71.3927 9.81288 71.364 9.7958 71.3291L9.47451 70.6725C9.4364 70.5946 9.48211 70.5044 9.61162 70.402C9.64598 70.377 9.68165 70.3547 9.71864 70.3351C9.87451 70.2525 9.96953 70.2461 10.0037 70.316L11.0168 72.3866C11.7304 73.8449 11.6011 74.8317 10.6289 75.3469C10.3277 75.5065 10.003 75.5399 9.65486 75.4471C9.32121 75.3567 9.03788 75.1788 8.80486 74.9134C8.96354 75.4008 8.97648 75.8489 8.84371 76.2574C8.70962 76.6633 8.44179 76.9727 8.04023 77.1855C7.20013 77.6307 6.44432 77.4969 5.77281 76.784C5.54371 76.5402 5.33258 76.2208 5.13941 75.826ZM6.01302 74.4702C5.80432 74.5808 5.67539 74.7151 5.62625 74.873C5.58107 75.0323 5.62024 75.2381 5.74376 75.4906C5.86597 75.7403 5.98762 75.9413 6.1087 76.0936C6.22979 76.2459 6.36218 76.3533 6.50588 76.4158C6.78141 76.537 7.13845 76.4813 7.577 76.2489C7.95478 76.0487 8.16526 75.714 8.20843 75.2447C8.24751 74.8418 8.16127 74.4241 7.94971 73.9917L7.73683 73.5567L6.01302 74.4702ZM8.64867 73.8496C8.89309 74.3491 9.21059 74.5969 9.60117 74.5928C9.75028 74.5916 9.92126 74.5399 10.1141 74.4377C10.307 74.3354 10.4458 74.2145 10.5305 74.0749C10.6152 73.9353 10.6538 73.7762 10.6463 73.5976C10.635 73.3093 10.4815 72.8631 10.1858 72.2588L8.34709 73.2333L8.64867 73.8496Z" fill="#011633"/>
<path d="M11.7159 79.1078C11.672 79.1827 11.6097 79.2486 11.529 79.3054C11.4484 79.3623 11.3694 79.3997 11.292 79.4177C11.2113 79.4307 11.1343 79.4301 11.061 79.416C10.9061 79.3863 10.7794 79.2983 10.6807 79.1522C10.529 78.9192 10.5256 78.6894 10.6706 78.463C10.7153 78.3948 10.7829 78.3289 10.8734 78.2652C10.9613 78.2031 11.0615 78.1709 11.174 78.1684C11.2864 78.1659 11.3985 78.1874 11.5102 78.233C11.6235 78.2811 11.7323 78.3469 11.8366 78.4306C11.9426 78.5167 12.042 78.6093 12.135 78.7082C12.2981 78.8821 12.4562 79.0868 12.6096 79.3223C12.7612 79.5554 12.8559 79.7829 12.8935 80.005C12.9327 80.2296 12.9226 80.436 12.8632 80.624C12.7583 80.9503 12.5066 81.2538 12.1083 81.5346L10.2132 82.8706L10.6242 83.502C10.6683 83.5697 10.6182 83.6543 10.474 83.756C10.4105 83.8008 10.3388 83.833 10.2589 83.8528C10.1815 83.8708 10.1196 83.8578 10.0731 83.8138C9.94268 83.701 9.79266 83.5143 9.62303 83.2537C9.45178 82.9906 9.36125 82.8405 9.35146 82.8036C9.33922 82.7683 9.33594 82.7304 9.34162 82.6899C9.35217 82.613 9.40549 82.5059 9.50158 82.3687C9.08511 82.2164 8.73661 81.9247 8.45607 81.4936C8.2049 81.1077 8.10774 80.7339 8.1646 80.3721C8.21495 80.0332 8.39042 79.7578 8.69099 79.5459L8.70199 79.5382C9.07588 79.2746 9.46005 79.2103 9.85452 79.3453C10.2017 79.4625 10.496 79.7065 10.7374 80.0773L11.3417 81.0058C11.7498 80.7181 11.9896 80.4978 12.0613 80.3449C12.137 80.1929 12.165 80.0525 12.1454 79.9237C12.1298 79.7958 12.0699 79.6516 11.9655 79.4912L11.7159 79.1078ZM9.10865 81.231C9.31415 81.5468 9.63695 81.7688 10.077 81.8973L10.7918 81.3934L10.2585 80.574C10.128 80.3735 9.9988 80.2489 9.87084 80.2002C9.641 80.11 9.4491 80.1191 9.29515 80.2277C9.00679 80.4309 8.90588 80.6812 8.9924 80.9785C9.01771 81.0666 9.05646 81.1508 9.10865 81.231Z" fill="#011633"/>
<path d="M16.0068 84.3187L15.8706 84.4353C15.8439 84.4593 15.8163 84.4822 15.7877 84.5039C15.7611 84.5279 15.7366 84.5499 15.7144 84.5699C16.1758 84.6249 16.5637 84.748 16.8781 84.9393C16.9774 85.0026 17.0673 85.0804 17.1479 85.1727L17.1536 85.1796C17.2282 85.2693 17.2784 85.3648 17.3043 85.466C17.3299 85.5716 17.3365 85.6683 17.3239 85.756C17.3 85.9142 17.2403 86.0363 17.1447 86.1223C17.047 86.2103 16.9598 86.2667 16.8832 86.2914C16.8066 86.3161 16.7292 86.3235 16.651 86.3135C16.4841 86.295 16.3614 86.2386 16.2831 86.1443C16.2028 86.0478 16.1539 85.9632 16.1363 85.8906C16.1209 85.816 16.1169 85.7412 16.1244 85.6661C16.1401 85.5073 16.2001 85.3809 16.3045 85.2868C16.1337 85.2075 15.9807 85.1683 15.8456 85.1694C15.7105 85.1704 15.5905 85.178 15.4856 85.192L15.1328 85.2443L13.3863 86.8168L14.083 87.6548C14.127 87.7077 14.0812 87.7952 13.9456 87.9172C13.8368 88.0152 13.7502 88.063 13.686 88.0605C13.6259 88.0584 13.5844 88.0435 13.5615 88.0159L11.8929 86.0087C11.8394 85.9443 11.8826 85.8491 12.0226 85.723C12.1267 85.6333 12.2314 85.5933 12.3366 85.6031C12.3675 85.6075 12.4087 85.6407 12.4603 85.7028C12.5119 85.7649 12.5667 85.8261 12.6247 85.8865C12.6868 85.9472 12.7386 85.9909 12.7803 86.0177C12.8539 86.064 12.9173 86.0632 12.9706 86.0152L15.167 84.0376L14.6624 83.4306C14.5879 83.341 14.6373 83.2181 14.8106 83.0621C14.9217 82.962 15.0134 82.9298 15.0856 82.9652C15.1597 83.003 15.2437 83.062 15.3377 83.1423C15.4357 83.2228 15.5312 83.3097 15.6242 83.4029C15.8025 83.58 15.9396 83.7239 16.0355 83.8346L16.0585 83.8622C16.1368 83.9564 16.1781 84.0178 16.1823 84.0461C16.1925 84.0771 16.1903 84.1072 16.1757 84.1364C16.1631 84.1679 16.1201 84.2167 16.0468 84.2827L16.0068 84.3187Z" fill="#011633"/>
<path d="M20.5031 89.0128L20.3816 89.1446C20.3579 89.1715 20.3332 89.1975 20.3074 89.2224C20.2837 89.2494 20.262 89.2741 20.2423 89.2966C20.7069 89.297 21.1065 89.3737 21.4412 89.5267C21.5472 89.578 21.6457 89.6447 21.7365 89.7269L21.743 89.7331C21.8276 89.8134 21.8887 89.9023 21.9263 89.9998C21.9641 90.1017 21.982 90.1969 21.9798 90.2855C21.9746 90.4454 21.9297 90.5737 21.8449 90.6704C21.7582 90.7693 21.6782 90.8355 21.6051 90.8691C21.532 90.9026 21.456 90.919 21.3772 90.9183C21.2092 90.9195 21.0808 90.8779 20.9919 90.7935C20.9009 90.707 20.8423 90.6287 20.8163 90.5587C20.7923 90.4864 20.7796 90.4126 20.7782 90.3371C20.7751 90.1775 20.8198 90.0449 20.9125 89.9393C20.7335 89.8806 20.577 89.8596 20.443 89.8766C20.309 89.8935 20.1907 89.915 20.0882 89.9413L19.7441 90.0347L18.1946 91.8016L18.9848 92.5522C19.0347 92.5995 18.9995 92.6918 18.8792 92.8289C18.7826 92.939 18.7023 92.9966 18.6382 93.0017C18.5783 93.0066 18.5354 92.9967 18.5093 92.972L16.6168 91.1745C16.5561 91.1168 16.5878 91.0172 16.712 90.8755C16.8048 90.7742 16.9041 90.7222 17.0097 90.7195C17.0409 90.7203 17.0857 90.7484 17.1443 90.804C17.2028 90.8596 17.2644 90.914 17.329 90.9671C17.3978 91.0201 17.4545 91.0575 17.499 91.0792C17.5775 91.1166 17.6403 91.1083 17.6876 91.0544L19.6363 88.8322L19.0639 88.2886C18.9794 88.2083 19.014 88.0805 19.1678 87.9052C19.2663 87.7928 19.3536 87.7499 19.4294 87.7767C19.5075 87.8055 19.5979 87.8542 19.7005 87.9229C19.8074 87.9914 19.9124 88.0665 20.0157 88.1481C20.2136 88.3031 20.3666 88.4299 20.4748 88.5285L20.5008 88.5532C20.5897 88.6376 20.6379 88.6937 20.6454 88.7214C20.6592 88.751 20.6605 88.7811 20.6495 88.8119C20.6406 88.8446 20.6037 88.8981 20.5386 88.9723L20.5031 89.0128Z" fill="#011633"/>
<path d="M25.9837 91.6704C25.7619 91.5026 25.6807 91.2876 25.74 91.0253C25.7589 90.946 25.7941 90.8695 25.8454 90.796C26.008 90.5631 26.2174 90.4798 26.4735 90.5462C26.5503 90.5668 26.6232 90.6032 26.6924 90.6555C26.8307 90.7601 26.9121 90.8966 26.9366 91.065C26.9653 91.2328 26.9282 91.3902 26.8255 91.5373C26.7245 91.6819 26.5921 91.7672 26.4282 91.7931C26.2726 91.8177 26.1244 91.7768 25.9837 91.6704ZM21.8662 95.7037C21.8042 95.6568 21.8254 95.5586 21.9298 95.409C22.012 95.2914 22.0847 95.2265 22.1478 95.2143C22.211 95.2021 22.2557 95.206 22.2819 95.2258L22.3177 95.2529C22.5967 95.4639 22.7738 95.5547 22.8489 95.5254C22.8728 95.5173 22.8933 95.5009 22.9104 95.4764L24.6205 93.0275L23.991 92.5514C23.9236 92.4966 23.9207 92.3989 23.9825 92.2583C24.0017 92.2204 24.0241 92.183 24.0498 92.1463C24.1285 92.0335 24.2086 91.9892 24.2901 92.0134C24.3734 92.0351 24.4734 92.0771 24.5903 92.1393C24.7072 92.2015 24.8263 92.271 24.9476 92.3478C25.1807 92.4941 25.3995 92.6427 25.6039 92.7935L25.6075 92.7962C25.7076 92.872 25.6873 93.0158 25.5466 93.2278L23.5052 96.1511L24.1062 96.6056C24.1682 96.6525 24.1469 96.7507 24.0425 96.9002C23.9604 97.0179 23.8877 97.0828 23.8245 97.095C23.7614 97.1071 23.7167 97.1033 23.6904 97.0834L21.8662 95.7037Z" fill="#011633"/>
<path d="M28.0452 97.1612C28.223 96.8359 28.4335 96.5785 28.6766 96.3891C28.9143 96.2034 29.1665 96.0784 29.4333 96.014C29.9719 95.8884 30.503 95.9789 31.0268 96.2854L31.0383 96.2923C31.5169 96.5756 31.8022 96.9476 31.8943 97.4084C31.9878 97.8666 31.8776 98.383 31.5636 98.9575C31.4962 99.0808 31.3828 99.1543 31.2234 99.1781C31.068 99.2007 30.908 99.1632 30.7433 99.0658L28.7094 97.8618C28.4202 98.5031 28.4148 99.0208 28.6932 99.4148C28.7815 99.5399 28.8912 99.6414 29.0224 99.719C29.1537 99.7967 29.2786 99.8516 29.3973 99.8836C29.5174 99.9131 29.6373 99.9337 29.7568 99.9454C29.8778 99.9546 29.9991 99.9569 30.1207 99.9525C30.3745 99.943 30.5181 99.9481 30.5516 99.9679C30.581 99.9888 30.6059 100.024 30.6261 100.075C30.6398 100.124 30.6506 100.179 30.6585 100.24C30.6709 100.379 30.6598 100.483 30.6251 100.553L30.6208 100.561C30.5863 100.624 30.5493 100.658 30.5095 100.662C29.835 100.756 29.1981 100.625 28.5986 100.27C28.0608 99.9519 27.7461 99.5121 27.6545 98.9509C27.5622 98.4032 27.6924 97.8066 28.0452 97.1612ZM30.8498 98.3475L30.8584 98.3318C31.1424 97.8123 31.1694 97.4046 30.9394 97.1088C30.8669 97.0172 30.774 96.9379 30.6608 96.8709C30.5476 96.8039 30.4178 96.7548 30.2713 96.7237C30.1234 96.6952 29.9751 96.6925 29.8263 96.7155C29.4926 96.7715 29.2279 96.9568 29.0321 97.2715L30.8498 98.3475Z" fill="#011633"/>
<path d="M36.032 99.099L35.9605 99.2635C35.947 99.2967 35.9322 99.3293 35.9159 99.3614C35.9025 99.3946 35.8901 99.4251 35.8789 99.4528C36.3194 99.297 36.7236 99.2346 37.0916 99.2657C37.2091 99.2781 37.3245 99.3076 37.4379 99.3541L37.4461 99.3577C37.5528 99.4046 37.6402 99.4675 37.7082 99.5463C37.7779 99.6291 37.8263 99.7124 37.8536 99.7962C37.9018 99.9479 37.9017 100.083 37.8534 100.203C37.8039 100.324 37.7501 100.413 37.6919 100.469C37.6337 100.525 37.5671 100.566 37.4921 100.592C37.3333 100.65 37.1978 100.654 37.0856 100.605C36.9706 100.554 36.8892 100.5 36.8413 100.444C36.7946 100.384 36.7581 100.319 36.7317 100.248C36.6759 100.1 36.6744 99.9605 36.7272 99.8303C36.5381 99.8354 36.3828 99.8684 36.2613 99.9293C36.1399 99.9902 36.0349 100.05 35.9465 100.109L35.6512 100.313L34.7681 102.49L35.7659 102.929C35.8289 102.956 35.8261 103.055 35.7576 103.224C35.7025 103.359 35.6455 103.44 35.5864 103.467C35.5312 103.491 35.4872 103.497 35.4544 103.482L33.0645 102.433C32.9879 102.399 32.9849 102.295 33.0557 102.12C33.1101 101.994 33.187 101.912 33.2863 101.874C33.316 101.864 33.3679 101.875 33.4418 101.908C33.5157 101.94 33.5921 101.971 33.671 101.999C33.7537 102.025 33.8198 102.041 33.8693 102.047C33.956 102.055 34.0129 102.026 34.0398 101.96L35.1505 99.2211L34.4277 98.9037C34.321 98.8568 34.3114 98.7253 34.3991 98.5091C34.4552 98.3706 34.5237 98.3011 34.6045 98.3007C34.6881 98.3015 34.7899 98.3168 34.91 98.3467C35.0339 98.375 35.1584 98.4101 35.2833 98.4519C35.5223 98.5308 35.7094 98.5983 35.8446 98.6544L35.8775 98.6688C35.9897 98.7181 36.054 98.7545 36.0703 98.778C36.0932 98.8011 36.1044 98.8289 36.1042 98.8614C36.1066 98.8951 36.0893 98.9577 36.0522 99.0491L36.032 99.099Z" fill="#011633"/>
<path d="M46.7162 100.874C46.444 100.817 46.2811 100.659 46.2276 100.397C46.2123 100.318 46.2131 100.234 46.23 100.146C46.2833 99.8668 46.441 99.7025 46.7031 99.653C46.7819 99.6388 46.8638 99.6405 46.9487 99.6581C47.1185 99.6932 47.2493 99.7814 47.341 99.9225C47.4362 100.061 47.467 100.219 47.4333 100.395C47.4002 100.568 47.3138 100.701 47.1742 100.795C47.0417 100.883 46.889 100.91 46.7162 100.874ZM44.5998 106.261C44.5237 106.245 44.5028 106.147 44.537 105.968C44.564 105.827 44.6039 105.738 44.6568 105.7C44.7097 105.662 44.7522 105.647 44.7845 105.653L44.8284 105.662C45.1709 105.733 45.3706 105.739 45.4274 105.681C45.446 105.663 45.4581 105.64 45.4637 105.611L46.0246 102.677L45.2516 102.517C45.1673 102.496 45.1245 102.41 45.1233 102.257C45.1253 102.214 45.1305 102.171 45.1389 102.127C45.1648 101.992 45.22 101.918 45.3047 101.905C45.3899 101.889 45.4989 101.884 45.6317 101.89C45.7644 101.896 45.9022 101.908 46.045 101.926C46.3188 101.958 46.5804 101.998 46.8299 102.047L46.8343 102.048C46.9572 102.073 46.9978 102.211 46.9559 102.462L46.2864 105.964L47.0242 106.117C47.1003 106.133 47.1213 106.23 47.087 106.409C47.0601 106.55 47.0202 106.64 46.9673 106.678C46.9144 106.716 46.8718 106.731 46.8396 106.724L44.5998 106.261Z" fill="#011633"/>
<path d="M53.7124 107.496C53.635 107.489 53.6031 107.395 53.6169 107.213C53.6277 107.07 53.6572 106.977 53.7056 106.933C53.7539 106.889 53.7944 106.868 53.8272 106.871C54.1371 106.896 54.2969 106.845 54.3066 106.716L54.4071 105.388C54.4508 104.81 54.4467 104.429 54.3946 104.244C54.3428 104.057 54.2676 103.922 54.1689 103.839C54.0735 103.753 53.9379 103.703 53.762 103.688C53.4313 103.661 53.0085 103.82 52.4937 104.165L52.2985 106.745L53.0494 106.807C53.1269 106.813 53.1588 106.907 53.145 107.089C53.1342 107.232 53.1046 107.326 53.0563 107.37C53.008 107.414 52.9675 107.435 52.9347 107.432L50.655 107.245C50.5776 107.239 50.5457 107.145 50.5595 106.963C50.5703 106.82 50.5998 106.726 50.6482 106.682C50.6965 106.638 50.737 106.617 50.7698 106.62L50.8145 106.624C51.1572 106.652 51.355 106.634 51.4078 106.569C51.4275 106.547 51.4387 106.517 51.4414 106.482L51.6657 103.517L50.879 103.452C50.7868 103.442 50.7342 103.364 50.7212 103.219C50.7184 103.177 50.7187 103.133 50.7221 103.088C50.7325 102.951 50.7775 102.871 50.8573 102.848C50.9402 102.821 51.0436 102.801 51.1676 102.787C51.2916 102.774 51.4211 102.766 51.5561 102.765C51.8265 102.757 52.0288 102.759 52.1629 102.77L52.1808 102.771C52.3117 102.785 52.3895 102.807 52.4143 102.836C52.4419 102.868 52.4598 102.908 52.4681 102.957C52.4792 103.009 52.4786 103.115 52.4664 103.276L52.46 103.361C52.9289 103.148 53.3516 103.01 53.7281 102.948C53.8496 102.928 54.0027 102.925 54.1874 102.94C54.3692 102.955 54.5494 103.01 54.7281 103.106C54.907 103.199 55.0444 103.324 55.1404 103.482C55.3113 103.76 55.3751 104.185 55.3318 104.758L55.1637 106.98L55.8565 107.037C55.937 107.043 55.9703 107.138 55.9566 107.32C55.9457 107.463 55.9162 107.556 55.8679 107.6C55.8196 107.644 55.779 107.665 55.7462 107.662L53.7124 107.496Z" fill="#011633"/>
<path d="M67.0752 104.068C67.0921 104.189 66.9941 104.266 66.7813 104.298C66.5684 104.33 66.4564 104.306 66.4453 104.226L66.3518 103.556L64.9372 103.769L65.2714 106.168L67.6218 105.813L67.8666 105.1C67.8883 105.04 67.9405 105.003 68.0233 104.991C68.1031 104.979 68.1658 104.974 68.2114 104.976C68.257 104.978 68.2986 104.984 68.3361 104.993C68.4205 105.014 68.4666 105.052 68.4744 105.108C68.4765 105.123 68.4765 105.134 68.4743 105.14L68.2359 106.419L63.7126 107.102C63.6328 107.114 63.5807 107.032 63.5564 106.858C63.5383 106.706 63.5598 106.59 63.6208 106.508C63.6412 106.48 63.6868 106.462 63.7578 106.451L63.7711 106.449C63.7833 106.45 63.7968 106.449 63.8116 106.447C63.8796 106.437 63.9485 106.422 64.0182 106.402C64.1031 106.384 64.1682 106.363 64.2134 106.341C64.2925 106.302 64.327 106.247 64.3171 106.176L63.5954 100.997C63.5896 100.955 63.569 100.937 63.5335 100.942L62.8062 101.052C62.7235 101.065 62.6566 100.996 62.6055 100.847C62.5938 100.806 62.584 100.768 62.5761 100.733C62.5501 100.547 62.5756 100.448 62.6524 100.436L67.5305 99.6997L67.7107 100.992C67.7247 101.093 67.6282 101.159 67.4213 101.19C67.2114 101.222 67.1019 101.205 67.0928 101.14C67.0581 100.891 67.0033 100.736 66.9284 100.675C66.7962 100.571 66.5778 100.542 66.2733 100.588L64.5305 100.851L64.8418 103.085L65.9682 102.915C66.1042 102.895 66.1795 102.85 66.1941 102.781C66.2193 102.681 66.2119 102.487 66.1719 102.2C66.1624 102.132 66.2463 102.084 66.4237 102.057C66.5775 102.034 66.6794 102.04 66.7295 102.075C66.7796 102.109 66.8065 102.14 66.8103 102.167L67.0752 104.068Z" fill="#011633"/>
<path d="M75.2825 103.768C75.3571 103.746 75.4182 103.823 75.4659 103.999C75.5011 104.129 75.5039 104.225 75.4741 104.287C75.4444 104.348 75.4184 104.384 75.3963 104.394C75.3762 104.399 75.3368 104.414 75.2781 104.438C75.2231 104.463 75.1509 104.494 75.0614 104.529C74.8181 104.626 74.6276 104.694 74.4899 104.734C74.3493 104.776 74.2573 104.797 74.2141 104.797C74.1715 104.8 74.1324 104.793 74.0967 104.775C74.0297 104.745 73.9482 104.661 73.8522 104.524C73.5718 104.884 73.195 105.133 72.7216 105.272C72.1651 105.436 71.6791 105.351 71.2636 105.018C70.8644 104.699 70.5685 104.185 70.3761 103.475L70.3726 103.462C70.1849 102.769 70.2504 102.16 70.5691 101.633C70.8599 101.152 71.3137 100.821 71.9305 100.64C72.2203 100.555 72.4806 100.51 72.7114 100.504L72.2326 98.738L71.4753 98.9603C71.3921 98.9847 71.317 98.9305 71.25 98.7975C71.2333 98.7588 71.2187 98.7163 71.2062 98.6702C71.1686 98.5316 71.1847 98.4366 71.2543 98.385C71.3239 98.3334 71.4191 98.279 71.5399 98.2217C71.6606 98.1644 71.7883 98.1098 71.9229 98.0579C72.1805 97.9573 72.4309 97.8698 72.674 97.7953L72.6783 97.794C72.7988 97.7586 72.8951 97.8628 72.9674 98.1064L74.5595 103.98L75.2825 103.768ZM72.6571 104.572C73.0272 104.463 73.3452 104.214 73.6113 103.824L72.9448 101.365C72.6559 101.248 72.3608 101.233 72.0596 101.322C71.5231 101.479 71.2252 101.848 71.166 102.43C71.1454 102.651 71.1762 102.913 71.2583 103.216C71.3404 103.519 71.4398 103.765 71.5563 103.955C71.6721 104.143 71.7935 104.288 71.9205 104.391C72.1649 104.584 72.4104 104.644 72.6571 104.572Z" fill="#011633"/>
<path d="M81.1124 101.485C80.8108 102 80.4853 102.336 80.1359 102.492C79.4481 102.799 78.8907 102.718 78.4637 102.248C78.3217 102.092 78.2 101.891 78.0984 101.645L77.2271 99.535L76.6499 99.7932C76.5489 99.8384 76.455 99.7559 76.3683 99.5459C76.3112 99.4077 76.3072 99.3195 76.356 99.2813C76.7655 98.9574 77.1599 98.7106 77.5393 98.5409C77.6594 98.4872 77.7678 98.5697 77.8646 98.7883L78.7718 100.985C78.9943 101.524 79.2637 101.785 79.58 101.768C79.6756 101.765 79.7848 101.735 79.9076 101.681C80.0277 101.627 80.1366 101.562 80.2344 101.485C80.3349 101.408 80.4208 101.33 80.4922 101.252C80.5569 101.174 80.6124 101.097 80.6585 101.021L80.7798 100.809L79.7818 98.3925L79.2209 98.6433C79.109 98.6934 79.0109 98.6161 78.9264 98.4116C78.8728 98.2817 78.8757 98.1871 78.9353 98.1277C78.9964 98.0644 79.0743 97.9984 79.1689 97.93C79.2646 97.8642 79.365 97.798 79.4701 97.7314C79.6715 97.6086 79.8359 97.5171 79.963 97.4569L79.9753 97.4514C80.0926 97.399 80.1712 97.3818 80.2111 97.4C80.2552 97.413 80.2931 97.4419 80.3245 97.4868C80.3694 97.5485 80.4278 97.6665 80.4997 97.8406L81.7886 100.962L82.4764 100.654C82.5501 100.621 82.6241 100.695 82.6982 100.874C82.7781 101.068 82.7655 101.198 82.6605 101.265C82.4003 101.433 82.1611 101.566 81.9427 101.664C81.7244 101.762 81.5916 101.808 81.5442 101.803C81.4969 101.798 81.4516 101.782 81.4083 101.756C81.3395 101.715 81.2409 101.624 81.1124 101.485Z" fill="#011633"/>
<path d="M85.2911 95.1032L84.9351 95.3205C84.6696 95.4824 84.4991 95.7247 84.4237 96.0473C84.3268 96.4599 84.4178 96.9137 84.6967 97.4086C85.1046 98.1328 85.5607 98.4706 86.0649 98.422C86.2252 98.4082 86.3704 98.3616 86.5006 98.2822C86.6308 98.2028 86.7401 98.1168 86.8286 98.0243C86.9171 97.9318 86.9979 97.8317 87.071 97.7241C87.1482 97.6175 87.2166 97.5076 87.2762 97.3942L87.4533 97.0603C87.4591 97.0463 87.4748 97.0315 87.5003 97.0159C87.5233 97.0019 87.5615 96.9996 87.6148 97.0091C87.6667 97.0159 87.7197 97.0308 87.7738 97.0538C87.8959 97.1123 87.9753 97.1741 88.012 97.2393C88.0487 97.3044 88.0596 97.3572 88.0447 97.3978C87.7671 98.0678 87.3411 98.5779 86.7668 98.9283C86.2334 99.2538 85.7097 99.3196 85.1957 99.1256C84.6993 98.9384 84.2714 98.5257 83.9118 97.8875C83.5596 97.2623 83.4659 96.6544 83.6305 96.0639C83.7868 95.5135 84.1336 95.0727 84.6706 94.7415C85.2489 94.3922 85.721 94.2774 86.0869 94.3972C86.2269 94.4448 86.3284 94.5246 86.3915 94.6366C86.4546 94.7486 86.4917 94.845 86.5029 94.9257C86.509 95.0095 86.5022 95.0889 86.4827 95.1638C86.4378 95.3277 86.3427 95.454 86.1972 95.5428C86.0517 95.6315 85.8993 95.6563 85.74 95.617C85.5821 95.5803 85.4753 95.5124 85.4195 95.4134C85.3638 95.3144 85.321 95.211 85.2911 95.1032Z" fill="#011633"/>
<path d="M89.5311 92.0506C89.605 92.0913 89.671 92.1515 89.7291 92.2313C89.7871 92.311 89.8264 92.3904 89.8469 92.4694C89.8627 92.552 89.8653 92.6317 89.8547 92.7086C89.8323 92.8708 89.7527 93.0077 89.6159 93.1193C89.3975 93.2914 89.1762 93.3098 88.9522 93.1744C88.8847 93.1325 88.8184 93.0668 88.7533 92.9773C88.69 92.8903 88.6549 92.7887 88.6479 92.6724C88.6409 92.5562 88.6571 92.4388 88.6965 92.3203C88.7382 92.1999 88.7973 92.083 88.8736 91.9696C88.9523 91.8543 89.0375 91.7454 89.1291 91.6428C89.29 91.4627 89.4808 91.2857 89.7016 91.1118C89.92 90.9397 90.1354 90.827 90.3478 90.7736C90.5626 90.7185 90.7619 90.7155 90.9455 90.7648C91.2641 90.8523 91.5668 91.0931 91.8535 91.4872L93.2176 93.3621L93.8094 92.8957C93.8728 92.8458 93.9564 92.8921 94.0602 93.0348C94.106 93.0976 94.1399 93.1697 94.1622 93.2511C94.1827 93.33 94.1727 93.395 94.1322 93.4459C94.0288 93.5883 93.855 93.7557 93.6108 93.9481C93.3642 94.1424 93.2233 94.2459 93.1881 94.2584C93.1546 94.2733 93.1182 94.2792 93.0789 94.2759C93.0044 94.27 92.8991 94.2218 92.763 94.1312C92.6331 94.5721 92.3661 94.9518 91.9622 95.2701C91.6006 95.5551 91.2443 95.6799 90.8934 95.6445C90.5648 95.6143 90.2923 95.4506 90.0759 95.1532L90.068 95.1423C89.7989 94.7724 89.7214 94.3789 89.8355 93.9619C89.9343 93.5949 90.1574 93.2745 90.505 93.0006L91.3751 92.315C91.0813 91.9112 90.8593 91.6772 90.7091 91.613C90.5595 91.5445 90.4231 91.5246 90.2999 91.5532C90.1772 91.5776 90.0407 91.649 89.8904 91.7675L89.5311 92.0506ZM91.6827 94.6117C91.9786 94.3785 92.1795 94.03 92.2854 93.5661L91.7708 92.859L91.0029 93.4641C90.8151 93.6121 90.7003 93.754 90.6585 93.8896C90.5809 94.1333 90.5975 94.3313 90.7083 94.4837C90.9159 94.7689 91.1611 94.8572 91.4441 94.7483C91.528 94.7164 91.6075 94.6709 91.6827 94.6117Z" fill="#011633"/>
<path d="M97.2395 90.575C96.8035 91.0057 96.3064 90.9152 95.7483 90.3033L93.9651 88.3483L93.3589 88.9472C93.1373 88.7042 93.0181 88.5447 93.0014 88.4688C92.9869 88.3908 92.9966 88.335 93.0307 88.3014L93.0626 88.2699C93.3242 88.0114 93.4584 87.8305 93.4652 87.7272C93.4704 87.6885 93.4619 87.6548 93.4399 87.6262L92.9091 86.7584C92.8238 86.6117 92.9067 86.4144 93.1577 86.1664L94.1218 87.2234L94.9832 86.3724C95.0364 86.3198 95.1224 86.3587 95.2413 86.4891C95.356 86.6193 95.4161 86.7405 95.4215 86.8528C95.4247 86.8874 95.4146 86.9163 95.3912 86.9394L94.5872 87.7337L96.3704 89.6886C96.5961 89.936 96.7791 89.9904 96.9195 89.8517C97.079 89.6941 97.1807 89.5706 97.2245 89.4812C97.2683 89.3874 97.303 89.3279 97.3286 89.3027C97.352 89.2796 97.3834 89.2653 97.4229 89.2599C97.4626 89.2501 97.503 89.2501 97.5442 89.2598C97.6327 89.2815 97.7052 89.3233 97.7616 89.3851C97.8221 89.4514 97.8412 89.5144 97.8189 89.5743C97.6815 89.9955 97.4884 90.3291 97.2395 90.575Z" fill="#011633"/>
<path d="M96.7968 82.424C96.6205 82.639 96.4084 82.7044 96.1607 82.6201C96.0858 82.5936 96.0149 82.5506 95.9478 82.491C95.7355 82.3023 95.67 82.0783 95.7514 81.8189C95.7765 81.7413 95.8165 81.6689 95.8715 81.6019C95.9815 81.4678 96.1182 81.3954 96.2815 81.3847C96.4445 81.3697 96.5931 81.4218 96.7272 81.5409C96.8591 81.6581 96.9318 81.8026 96.9453 81.9745C96.9582 82.1378 96.9087 82.2877 96.7968 82.424ZM100.384 87.0384C100.335 87.0985 100.242 87.068 100.106 86.9469C99.9987 86.8515 99.9414 86.7706 99.934 86.7042C99.9267 86.6378 99.9335 86.5918 99.9544 86.5664L99.9828 86.5317C100.205 86.2613 100.304 86.0859 100.281 86.0055C100.275 85.98 100.261 85.9574 100.238 85.9375L98.0055 83.9536L97.5049 84.5639C97.4477 84.6289 97.3537 84.6233 97.223 84.5472C97.1879 84.524 97.1536 84.4975 97.1201 84.4677C97.0172 84.3764 96.9803 84.2895 97.0091 84.2073C97.0357 84.123 97.0829 84.0231 97.1507 83.9075C97.2185 83.7919 97.2935 83.6746 97.3755 83.5557C97.5321 83.3271 97.6899 83.1136 97.8488 82.9152L97.8517 82.9117C97.9313 82.8146 98.068 82.8481 98.2618 83.0123L100.927 85.3805L101.405 84.798C101.454 84.7379 101.547 84.7684 101.683 84.8896C101.791 84.9849 101.848 85.0658 101.855 85.1322C101.863 85.1987 101.856 85.2446 101.835 85.27L100.384 87.0384Z" fill="#011633"/>
<path d="M105.319 80.4971C105.145 80.7652 104.942 80.9663 104.712 81.1004C104.483 81.2345 104.234 81.3096 103.967 81.3259C103.43 81.3568 102.874 81.1698 102.3 80.765C101.699 80.3412 101.353 79.82 101.264 79.2014C101.184 78.6402 101.315 78.0965 101.657 77.5703L101.665 77.559C101.984 77.0679 102.423 76.8015 102.981 76.76C103.514 76.719 104.057 76.8931 104.609 77.2825C105.225 77.7166 105.59 78.2296 105.704 78.8216C105.811 79.3798 105.683 79.9383 105.319 80.4971ZM101.97 78.9309C102.005 79.0951 102.088 79.2688 102.219 79.452C102.348 79.631 102.536 79.8075 102.783 79.9815C103.032 80.1572 103.259 80.2824 103.464 80.3571C103.667 80.4276 103.853 80.4599 104.021 80.4539C104.363 80.4429 104.634 80.2846 104.833 79.9789C105.038 79.6631 105.063 79.3241 104.907 78.9617C104.765 78.6315 104.496 78.3269 104.1 78.0478C103.437 77.5835 102.891 77.4898 102.465 77.7669C102.336 77.851 102.231 77.9545 102.151 78.0772C102.069 78.2025 102.009 78.3357 101.971 78.4768C101.934 78.6154 101.934 78.7668 101.97 78.9309Z" fill="#011633"/>
<path d="M109.209 73.2254C109.175 73.2952 109.078 73.2874 108.916 73.202C108.79 73.1348 108.715 73.0698 108.692 73.0072C108.67 72.9445 108.666 72.8984 108.68 72.8688C108.817 72.5895 108.828 72.4198 108.715 72.3596L107.538 71.7358C107.025 71.4642 106.675 71.316 106.488 71.291C106.298 71.2647 106.147 71.2811 106.035 71.34C105.921 71.395 105.826 71.5016 105.748 71.6601C105.603 71.9582 105.593 72.4164 105.72 73.0348L108.006 74.2466L108.337 73.5698C108.371 73.4999 108.469 73.5077 108.63 73.5931C108.757 73.6603 108.832 73.7253 108.854 73.788C108.877 73.8507 108.881 73.8968 108.866 73.9263L107.861 75.9808C107.827 76.0507 107.729 76.0429 107.568 75.9575C107.441 75.8903 107.367 75.8253 107.344 75.7626C107.322 75.7 107.317 75.6538 107.332 75.6243L107.352 75.584C107.503 75.2752 107.558 75.0831 107.519 75.008C107.505 74.9807 107.483 74.9586 107.451 74.9418L104.824 73.5494L104.477 74.2585C104.434 74.3403 104.343 74.3584 104.206 74.3127C104.166 74.2984 104.127 74.2808 104.087 74.2598C103.966 74.1954 103.909 74.1213 103.916 74.0375C103.923 73.9496 103.942 73.8449 103.975 73.7236C104.008 73.6023 104.049 73.4784 104.097 73.352C104.189 73.0963 104.265 72.908 104.324 72.7871L104.332 72.771C104.392 72.6543 104.44 72.5901 104.476 72.5785C104.515 72.5657 104.559 72.5651 104.606 72.5767C104.658 72.5871 104.755 72.6301 104.897 72.7057L104.973 72.7456C104.949 72.2224 104.978 71.7727 105.059 71.3962C105.085 71.2748 105.139 71.1309 105.221 70.9643C105.301 70.8005 105.417 70.6543 105.57 70.5255C105.72 70.3954 105.885 70.317 106.064 70.2904C106.381 70.2417 106.793 70.3517 107.3 70.6206L109.27 71.6643L109.575 71.0399C109.611 70.9674 109.709 70.9738 109.87 71.0592C109.997 71.1264 110.072 71.1914 110.094 71.2541C110.117 71.3167 110.121 71.3629 110.106 71.3924L109.209 73.2254Z" fill="#011633"/>
<path d="M9.50407 45.7386L9.19858 46.823L8.8835 48.1403C8.86611 48.213 8.77454 48.2295 8.60879 48.1898C8.46631 48.1558 8.36409 48.0883 8.30215 47.9874C8.28445 47.9585 8.2836 47.9107 8.29959 47.8438L8.30377 47.8264C8.30946 47.8154 8.31369 47.8041 8.31648 47.7925C8.33247 47.7256 8.34446 47.6563 8.35243 47.5844C8.36678 47.4987 8.37225 47.4308 8.36884 47.3808C8.36215 47.2931 8.32391 47.2409 8.25412 47.2242L3.17697 46.0098C3.13045 45.9987 3.10266 46.012 3.09362 46.0498L2.92356 46.7608C2.90339 46.8451 2.81131 46.883 2.64733 46.8746C2.60523 46.8706 2.56383 46.8638 2.52312 46.8541C2.35155 46.813 2.27481 46.7547 2.2929 46.6791L2.82916 44.4371C3.20685 42.8582 3.93074 42.1967 5.00083 42.4526C5.33233 42.5319 5.60187 42.7224 5.80945 43.0242C6.00749 43.3144 6.11158 43.6375 6.12174 43.9935C6.30908 43.5187 6.58291 43.1708 6.94326 42.9495C7.3029 42.7312 7.70372 42.6749 8.14572 42.7806C9.07042 43.0018 9.56391 43.6056 9.62618 44.5919C9.64702 44.9289 9.60632 45.3112 9.50407 45.7386ZM7.97701 46.185C8.20673 46.2399 8.39041 46.2239 8.52803 46.1369C8.66345 46.0463 8.76384 45.8644 8.82922 45.591C8.89391 45.3206 8.92816 45.0875 8.93196 44.8916C8.93577 44.6958 8.90249 44.5264 8.83214 44.3836C8.69808 44.1086 8.38969 43.9134 7.90699 43.798C7.49116 43.6985 7.11812 43.8122 6.78786 44.139C6.50281 44.4182 6.30429 44.7919 6.1923 45.26L6.07963 45.7311L7.97701 46.185ZM5.56754 44.9031C5.69691 44.3622 5.6109 43.9635 5.3095 43.707C5.19464 43.6088 5.03108 43.5343 4.8188 43.4835C4.60653 43.4328 4.42377 43.4321 4.27054 43.4815C4.1173 43.5309 3.987 43.6258 3.87966 43.7661C3.70574 43.992 3.54053 44.4321 3.38403 45.0863L5.40791 45.5704L5.56754 44.9031Z" fill="#011633"/>
<path d="M7.32612 38.6702L7.49187 38.739C7.52534 38.7519 7.55827 38.7663 7.59067 38.782C7.62414 38.7949 7.65482 38.8067 7.68271 38.8175C7.51023 38.3759 7.43173 37.9691 7.44721 37.5969C7.45465 37.4779 7.47905 37.3608 7.5204 37.2453L7.52363 37.237C7.56562 37.1282 7.62423 37.0386 7.69944 36.9683C7.77853 36.8963 7.85898 36.8456 7.9408 36.8163C8.08898 36.7645 8.22304 36.7618 8.34298 36.8081C8.46571 36.8555 8.55602 36.908 8.61391 36.9656C8.6718 37.0232 8.71508 37.0895 8.74375 37.1647C8.80732 37.3238 8.81702 37.4606 8.77288 37.575C8.72766 37.6921 8.67786 37.7755 8.62349 37.825C8.56634 37.8734 8.5035 37.9117 8.43499 37.9397C8.29023 37.9992 8.15231 38.0036 8.02121 37.953C8.03407 38.1439 8.07317 38.3 8.13849 38.4214C8.20382 38.5427 8.26755 38.6474 8.3297 38.7355L8.54315 39.0295L10.7355 39.8757L11.128 38.859C11.1528 38.7949 11.2502 38.7956 11.4204 38.8613C11.557 38.9141 11.6396 38.97 11.6681 39.0291C11.6949 39.0843 11.7018 39.1286 11.6889 39.1621L10.7489 41.5971C10.7188 41.6752 10.6158 41.6804 10.4401 41.6125C10.3129 41.5602 10.2284 41.4843 10.1866 41.3849C10.1757 41.355 10.1848 41.3025 10.2139 41.2272C10.243 41.1518 10.2698 41.0741 10.2943 40.9938C10.3172 40.9097 10.3303 40.8426 10.3336 40.7926C10.3386 40.7048 10.3076 40.648 10.2407 40.6222L7.48347 39.5578L7.19922 40.2942C7.15723 40.403 7.02745 40.4154 6.80989 40.3314C6.67042 40.2776 6.59881 40.2099 6.59504 40.1283C6.59235 40.0439 6.60332 39.9408 6.62794 39.8189C6.65085 39.6932 6.68041 39.5668 6.71662 39.4397C6.78475 39.1968 6.8438 39.0065 6.89377 38.8687L6.90669 38.8352C6.95083 38.7209 6.98418 38.6552 7.00674 38.6383C7.02867 38.6147 7.05573 38.6027 7.08793 38.6023C7.12121 38.5992 7.18387 38.6153 7.27592 38.6509L7.32612 38.6702Z" fill="#011633"/>
<path d="M11.1874 34.8056C10.8612 34.6295 10.6009 34.4193 10.4065 34.1751C10.216 33.9364 10.0848 33.6821 10.013 33.4123C9.87223 32.8674 9.94466 32.3272 10.2303 31.7917L10.2367 31.7799C10.5009 31.2905 10.8586 30.996 11.3099 30.8964C11.7585 30.7954 12.2709 30.9004 12.8471 31.2115C12.9708 31.2782 13.0468 31.3923 13.0752 31.5537C13.1024 31.7111 13.0705 31.874 12.9796 32.0424L11.857 34.1222C12.4982 34.4072 13.0086 34.4058 13.3882 34.118C13.5088 34.0268 13.6053 33.9141 13.6777 33.7799C13.7502 33.6457 13.8003 33.5182 13.8282 33.3973C13.8534 33.2751 13.8699 33.1532 13.8777 33.0317C13.8829 32.9088 13.8814 32.7856 13.8733 32.6623C13.8559 32.4049 13.8565 32.2591 13.8749 32.2249C13.8946 32.1948 13.9288 32.1691 13.9777 32.1479C14.0263 32.1333 14.0802 32.1216 14.1393 32.1128C14.2762 32.0983 14.3796 32.1083 14.4494 32.1426L14.4573 32.1468C14.5204 32.1809 14.5547 32.2181 14.5601 32.2584C14.6739 32.9416 14.5653 33.5897 14.2344 34.2027C13.9376 34.7526 13.514 35.0778 12.9637 35.1783C12.4268 35.2792 11.8347 35.155 11.1874 34.8056ZM12.2684 31.9438L12.2526 31.9353C11.7316 31.6541 11.329 31.6321 11.0446 31.8694C10.9566 31.9442 10.8814 32.0395 10.8189 32.1553C10.7564 32.2711 10.7122 32.4035 10.6861 32.5525C10.6627 32.7029 10.6646 32.8535 10.692 33.0042C10.7577 33.342 10.9487 33.6082 11.265 33.8027L12.2684 31.9438Z" fill="#011633"/>
<path d="M13.966 27.1482C14.0501 27.1643 14.1323 27.201 14.2125 27.2585C14.2927 27.3159 14.3545 27.3786 14.3979 27.4464C14.4377 27.5191 14.4639 27.593 14.4763 27.6681C14.5025 27.8266 14.4655 27.9785 14.3652 28.1236C14.2033 28.3497 13.9931 28.4326 13.7346 28.3725C13.6564 28.3533 13.5723 28.3115 13.4824 28.2471C13.3949 28.1844 13.3305 28.0997 13.2893 27.9929C13.2481 27.8862 13.2291 27.7715 13.2324 27.6488C13.2374 27.5237 13.2603 27.3967 13.3012 27.2678C13.3437 27.1364 13.3945 27.0091 13.4534 26.8858C13.5569 26.6694 13.6904 26.4469 13.8541 26.2185C14.016 25.9924 14.1926 25.8228 14.3839 25.7098C14.577 25.5943 14.7703 25.5323 14.9639 25.5239C15.3004 25.5111 15.6667 25.6466 16.0629 25.9304L17.948 27.2805L18.3867 26.6679C18.4337 26.6023 18.5289 26.6208 18.6723 26.7235C18.7355 26.7688 18.79 26.8262 18.8358 26.8958C18.8792 26.9636 18.8886 27.0274 18.8642 27.0872C18.8056 27.2511 18.6858 27.4595 18.5047 27.7123C18.3219 27.9676 18.2152 28.1063 18.1846 28.1285C18.1564 28.1524 18.1227 28.1687 18.0834 28.1774C18.009 28.1939 17.8921 28.1801 17.7326 28.1357C17.7365 28.5872 17.5888 29.022 17.2894 29.4401C17.0212 29.8144 16.7109 30.0372 16.3584 30.1083C16.0292 30.1778 15.7151 30.1054 15.4161 29.8913L15.4051 29.8835C15.0332 29.6171 14.8411 29.2717 14.8288 28.8473C14.8164 28.4744 14.9391 28.108 15.1967 27.7483L15.8417 26.8477C15.4358 26.5569 15.1501 26.4038 14.9847 26.3883C14.8186 26.3686 14.6797 26.3905 14.568 26.454C14.4557 26.5133 14.3438 26.6207 14.2324 26.7763L13.966 27.1482ZM16.8219 28.9067C17.0412 28.6004 17.1338 28.2144 17.0997 27.7486L16.3887 27.2394L15.8194 28.0342C15.6801 28.2287 15.6102 28.3956 15.6097 28.535C15.6062 28.7863 15.6811 28.9668 15.8342 29.0764C16.121 29.2819 16.3862 29.2916 16.6297 29.1056C16.7021 29.0508 16.7661 28.9845 16.8219 28.9067Z" fill="#011633"/>
<path d="M20.106 25.7285C20.0527 25.7851 19.9597 25.7509 19.8269 25.6259C19.7224 25.5275 19.6681 25.4456 19.664 25.3802C19.6599 25.3147 19.6691 25.27 19.6916 25.2461L19.7224 25.2134C19.9601 24.9608 20.0693 24.7947 20.0499 24.7149C20.0448 24.6854 20.0292 24.6584 20.0031 24.6338L16.0024 20.8684L15.4614 21.4432C15.4019 21.5021 15.3074 21.4912 15.1781 21.4105C15.1435 21.3862 15.1089 21.3597 15.0742 21.3311C14.974 21.2369 14.9407 21.1501 14.9743 21.0708C15.0056 20.9895 15.0588 20.8938 15.1337 20.7836C15.2107 20.6713 15.294 20.5588 15.3837 20.4461C15.5548 20.2294 15.7253 20.0286 15.8953 19.8437C15.9813 19.7522 16.1189 19.7914 16.3081 19.9612C16.3625 20.0125 16.4202 20.0647 16.481 20.1178L20.7429 24.1292L21.0656 23.7862C21.121 23.7275 21.215 23.7606 21.3478 23.8856C21.4545 23.986 21.5089 24.07 21.5109 24.1376C21.5129 24.201 21.5036 24.2436 21.4831 24.2654L20.106 25.7285ZM23.0452 21.6831C23.1005 21.6243 23.1967 21.6594 23.3339 21.7885C23.4341 21.8828 23.4862 21.9627 23.4903 22.0281C23.4944 22.0936 23.4852 22.1383 23.4626 22.1622L22.6603 23.0146L19.2808 22.6791L19.2099 20.1304L19.8616 19.438C19.919 19.377 20.0145 19.389 20.1482 19.4737C20.1828 19.4981 20.2142 19.5236 20.2425 19.5502C20.3775 19.6773 20.4184 19.7691 20.3651 19.8257C20.1663 20.0369 20.0474 20.1959 20.0083 20.3029C19.9671 20.4078 19.9475 20.494 19.9495 20.5617L20.0014 21.9593L22.3346 21.9997C22.6034 22.0063 22.8403 21.9008 23.0452 21.6831Z" fill="#011633"/>
<path d="M22.4381 15.6304C22.2235 15.8072 21.999 15.8333 21.7647 15.7087C21.6941 15.67 21.6303 15.6161 21.5732 15.5468C21.3926 15.3276 21.3658 15.0999 21.4927 14.8636C21.5313 14.793 21.5841 14.7301 21.6511 14.675C21.7849 14.5648 21.9348 14.5187 22.1009 14.5369C22.2673 14.5508 22.4076 14.627 22.5217 14.7655C22.6338 14.9016 22.6818 15.0539 22.6655 15.2222C22.6501 15.3822 22.5743 15.5182 22.4381 15.6304ZM25.2416 20.7121C25.1816 20.7615 25.0936 20.7159 24.9777 20.5751C24.8864 20.4643 24.8429 20.3762 24.8471 20.3108C24.8513 20.2453 24.8661 20.2022 24.8914 20.1812L24.9261 20.1527C25.1961 19.9303 25.3265 19.7783 25.3174 19.6967C25.3156 19.671 25.3052 19.6467 25.2862 19.6236L23.387 17.3182L22.7778 17.8201C22.709 17.873 22.6155 17.8512 22.4974 17.7548C22.4661 17.7263 22.4362 17.6948 22.4077 17.6601C22.3203 17.554 22.2982 17.4637 22.3415 17.3893C22.3829 17.3126 22.4477 17.2243 22.5359 17.1245C22.6242 17.0247 22.7199 16.9246 22.823 16.8241C23.0201 16.6307 23.2158 16.4521 23.41 16.2882L23.4135 16.2853C23.5104 16.2055 23.642 16.2617 23.8082 16.4541L26.0753 19.206L26.6568 18.7269C26.7168 18.6775 26.8048 18.7231 26.9207 18.8639C27.012 18.9747 27.0555 19.0628 27.0513 19.1282C27.0471 19.1937 27.0323 19.2368 27.007 19.2577L25.2416 20.7121Z" fill="#011633"/>
<path d="M32.2033 15.7466C32.1375 15.7881 32.056 15.7317 31.9587 15.5774C31.8822 15.456 31.8501 15.3631 31.8625 15.2987C31.875 15.2344 31.8951 15.1934 31.9229 15.1758C32.1859 15.01 32.2832 14.8727 32.2146 14.764L31.5042 13.6372C31.1949 13.1465 30.9645 12.8429 30.8132 12.7262C30.6603 12.607 30.5196 12.5437 30.3913 12.5363C30.2638 12.5247 30.1255 12.566 29.9762 12.6601C29.6955 12.8371 29.4519 13.2187 29.2453 13.8049L30.6254 15.9939L31.2628 15.592C31.3285 15.5506 31.4101 15.607 31.5073 15.7613C31.5839 15.8827 31.6159 15.9756 31.6035 16.04C31.5911 16.1043 31.571 16.1453 31.5431 16.1628L29.6083 17.3827C29.5426 17.4242 29.461 17.3678 29.3638 17.2135C29.2872 17.0921 29.2552 16.9992 29.2676 16.9348C29.28 16.8704 29.3001 16.8295 29.328 16.8119L29.3659 16.788C29.6568 16.6046 29.8041 16.4711 29.8079 16.3874C29.8103 16.3576 29.8019 16.3275 29.7828 16.2972L28.197 13.7819L27.5293 14.2029C27.4493 14.2498 27.3609 14.2189 27.2641 14.1103C27.2367 14.078 27.2111 14.043 27.1871 14.005C27.1138 13.8887 27.102 13.7971 27.1518 13.7304C27.2026 13.6595 27.2734 13.5813 27.3644 13.4957C27.4553 13.41 27.5545 13.3263 27.6619 13.2444C27.8736 13.0756 28.0364 12.9553 28.1502 12.8836L28.1653 12.874C28.2782 12.8064 28.3532 12.7768 28.3903 12.7852C28.4316 12.7945 28.47 12.8162 28.5056 12.8503C28.5454 12.8854 28.6083 12.9712 28.6944 13.1077L28.7399 13.1798C28.9878 12.7266 29.2439 12.3619 29.5081 12.0858C29.5933 11.9967 29.7143 11.9027 29.8711 11.8038C30.0254 11.7066 30.2025 11.6427 30.4024 11.6121C30.6006 11.579 30.7851 11.5969 30.9559 11.666C31.2581 11.7865 31.5623 12.0896 31.8685 12.5752L33.0572 14.4607L33.6453 14.0899C33.7136 14.0469 33.7963 14.1025 33.8936 14.2568C33.9701 14.3782 34.0022 14.4711 33.9898 14.5354C33.9774 14.5998 33.9572 14.6408 33.9294 14.6583L32.2033 15.7466Z" fill="#011633"/>
<path d="M36.9972 8.91916C37.3098 9.06069 37.5237 9.25966 37.6388 9.51607C37.7539 9.77248 37.8006 10.0153 37.779 10.2446C37.7601 10.4727 37.695 10.6854 37.5837 10.8828C37.3596 11.2817 37.0089 11.5882 36.5315 11.8025C36.4251 11.8502 36.3192 11.8879 36.2136 11.9156C36.1723 12.0718 36.1725 12.1963 36.2141 12.289C36.2557 12.3818 36.3382 12.4414 36.4616 12.468C36.5864 12.4906 36.7266 12.467 36.8821 12.3972L37.7126 12.0244C38.2473 11.7845 38.6839 11.7278 39.0226 11.8543C39.2861 11.9523 39.4951 12.1732 39.6493 12.5169C39.8158 12.8878 39.787 13.2908 39.5627 13.7257C39.2977 14.2379 38.8038 14.6563 38.081 14.9807C37.4891 15.2464 36.9694 15.319 36.5221 15.1986C36.3355 15.148 36.1841 15.0734 36.0678 14.9749C35.9542 14.8751 35.871 14.7666 35.8184 14.6493C35.7657 14.532 35.7346 14.4116 35.7251 14.2881C35.7182 14.1634 35.7274 14.0413 35.7524 13.9219C35.7763 13.7998 35.8121 13.6788 35.8599 13.559L36.0024 13.1755C35.9513 13.1493 35.9008 13.1244 35.8509 13.1009C35.8011 13.0774 35.7541 13.0494 35.7099 13.0168C35.6061 12.9388 35.5218 12.8276 35.4569 12.683C35.3932 12.5412 35.4215 12.2974 35.5416 11.9518C35.301 11.9123 35.0847 11.821 34.8926 11.6778C34.702 11.5306 34.5535 11.3384 34.447 11.1011C34.3405 10.8638 34.3005 10.6359 34.327 10.4176C34.355 10.1953 34.4271 9.99083 34.5433 9.80431C34.77 9.44039 35.1056 9.15865 35.5502 8.95908C35.7111 8.88685 35.8799 8.83568 36.0565 8.80559L37.554 8.13342C37.7995 8.02323 37.9882 8.03847 38.1202 8.17915C38.1586 8.22091 38.1907 8.27042 38.2164 8.32771C38.2421 8.38499 38.2543 8.44505 38.253 8.5079C38.2517 8.57074 38.2393 8.6271 38.2158 8.67698C38.1658 8.78463 38.0917 8.86049 37.9935 8.90457C37.9893 8.90975 37.9858 8.91295 37.9831 8.91417C37.8903 8.9558 37.8141 8.97202 37.7542 8.96283C37.6971 8.95241 37.6348 8.93776 37.5674 8.91889C37.3862 8.86582 37.1962 8.86591 36.9972 8.91916ZM36.563 14.1725C36.7454 14.579 37.1653 14.6347 37.8227 14.3396C38.1909 14.1743 38.4738 13.9539 38.6714 13.6785C38.8943 13.3719 38.9482 13.0905 38.8331 12.8341C38.7364 12.6186 38.5236 12.5388 38.1947 12.5946C38.0788 12.6139 37.9458 12.6572 37.7958 12.7245L36.6829 13.224L36.6117 13.4379C36.5046 13.7613 36.4883 14.0062 36.563 14.1725ZM35.2956 10.6809C35.4058 10.9264 35.5564 11.0866 35.7473 11.1614C35.937 11.2336 36.1164 11.2317 36.2855 11.1558C36.4546 11.0799 36.5792 10.9961 36.6594 10.9045C36.7422 10.8116 36.8007 10.7083 36.8349 10.5946C36.9018 10.3712 36.882 10.1409 36.7754 9.90357L36.7699 9.8913C36.6855 9.70309 36.5458 9.57078 36.3509 9.49439C36.1508 9.41377 35.969 9.41018 35.8053 9.48364C35.6417 9.55711 35.5179 9.63558 35.4342 9.71907C35.3504 9.80256 35.2889 9.89568 35.2498 9.99843C35.1687 10.2118 35.1819 10.4386 35.2897 10.6786C35.2909 10.6813 35.2929 10.6821 35.2956 10.6809Z" fill="#011633"/>
<path d="M48.2933 9.8798C47.6922 9.9997 47.3107 9.65355 47.1487 8.84135L46.6311 6.24641L45.7954 6.41309C45.7311 6.09056 45.7115 5.89324 45.7368 5.82113C45.765 5.74843 45.8025 5.7074 45.8494 5.69805L45.8934 5.68927C46.254 5.61733 46.4643 5.54033 46.5242 5.45827C46.5488 5.42897 46.5591 5.39643 46.555 5.36066L46.5502 4.35093C46.5532 4.18265 46.7277 4.06399 47.0737 3.99498L47.3536 5.39801L48.5411 5.16113C48.6144 5.14651 48.6683 5.2257 48.7028 5.39869C48.7338 5.56934 48.7223 5.70274 48.6683 5.79887C48.6531 5.82936 48.6293 5.84781 48.5971 5.85425L47.4887 6.07533L48.0063 8.67027C48.0718 8.99867 48.2013 9.14357 48.3949 9.10497C48.6148 9.0611 48.767 9.01398 48.8514 8.96359C48.9382 8.90969 48.9992 8.87923 49.0344 8.87221C49.0667 8.86578 49.1013 8.87107 49.1382 8.8881C49.1775 8.9016 49.2123 8.92361 49.2428 8.95412C49.3079 9.02041 49.3486 9.09461 49.365 9.17671C49.3825 9.26467 49.3661 9.3274 49.3156 9.3649C48.9771 9.63974 48.6364 9.81137 48.2933 9.8798Z" fill="#011633"/>
<path d="M55.1315 8.3772C55.4416 8.35536 55.5922 8.28031 55.5832 8.15206L55.4896 6.82335C55.4493 6.25071 55.3904 5.88319 55.313 5.72079C55.2354 5.55541 55.142 5.4421 55.0328 5.38085C54.9264 5.31641 54.7852 5.29039 54.6092 5.30278C54.2095 5.33093 53.8127 5.52673 53.4187 5.89018L53.6014 8.48497L54.353 8.43203C54.4306 8.42657 54.4758 8.51481 54.4886 8.69674C54.4986 8.8399 54.483 8.93692 54.4416 8.98779C54.4002 9.03866 54.3632 9.06525 54.3303 9.06756L52.0487 9.22826C51.9712 9.23372 51.926 9.14549 51.9132 8.96355C51.9031 8.82039 51.9188 8.72338 51.9601 8.67251C52.0015 8.62163 52.0386 8.59504 52.0714 8.59273L52.1161 8.58958C52.4621 8.56521 52.6551 8.51716 52.695 8.44541C52.7112 8.42029 52.718 8.38983 52.7155 8.35404L52.3295 2.87368L51.5421 2.92913C51.4584 2.93203 51.3964 2.85997 51.356 2.71294C51.3471 2.67161 51.3396 2.62868 51.3335 2.58415C51.3238 2.44696 51.3582 2.36061 51.4366 2.32511C51.5149 2.28663 51.6188 2.25233 51.7486 2.22221C51.8813 2.19188 52.0189 2.16571 52.1612 2.1437C52.4339 2.10051 52.6954 2.0686 52.9457 2.04798C53.071 2.03915 53.1456 2.16129 53.1694 2.41438C53.1746 2.48894 53.1816 2.56638 53.1902 2.6467L53.3588 5.04017C53.728 4.79236 54.1035 4.61305 54.4854 4.50223C54.597 4.47039 54.6886 4.45195 54.7602 4.44691C55.3448 4.40573 55.7522 4.5299 55.9824 4.81941C56.1598 5.04071 56.2693 5.44662 56.3109 6.03716L56.4691 8.28299L57.167 8.23383C57.2446 8.22837 57.2898 8.31661 57.3026 8.49854C57.3126 8.6417 57.297 8.73872 57.2556 8.78959C57.2142 8.84046 57.1772 8.86705 57.1443 8.86936L55.1133 9.01242C55.0327 9.01809 54.9861 8.92996 54.9732 8.74802C54.9632 8.60486 54.9788 8.50785 55.0202 8.45698C55.0616 8.40611 55.0987 8.37952 55.1315 8.3772Z" fill="#011633"/>
<path d="M59.3049 6.71413C59.3283 6.34412 59.4103 6.01977 59.5508 5.74106C59.6879 5.46814 59.864 5.24262 60.079 5.06451C60.515 4.70866 61.0359 4.54844 61.6419 4.58384L61.6553 4.58469C62.2103 4.61986 62.6274 4.82155 62.9067 5.18977C63.1861 5.555 63.3051 6.06436 63.2637 6.71783C63.2548 6.85808 63.183 6.97486 63.0483 7.06818C62.9167 7.15871 62.7554 7.19792 62.5645 7.18582L60.2057 7.03635C60.2152 7.73799 60.43 8.20098 60.8502 8.42534C60.9835 8.4967 61.1262 8.5372 61.2784 8.54685C61.4306 8.55649 61.5674 8.54868 61.6888 8.52342C61.8104 8.49518 61.928 8.45919 62.0417 8.41546C62.1555 8.36875 62.2667 8.31588 62.3753 8.25685C62.6018 8.13339 62.7345 8.07289 62.7732 8.07535C62.8089 8.0806 62.8465 8.10097 62.8862 8.13644C62.9198 8.17451 62.9529 8.21856 62.9857 8.26857C63.0561 8.38687 63.0903 8.48491 63.0884 8.56268L63.0878 8.57163C63.0833 8.64325 63.0638 8.68995 63.0295 8.71174C62.4566 9.10085 61.8225 9.27338 61.1273 9.22932C60.5036 9.1898 60.0311 8.94116 59.7095 8.48338C59.3932 8.03792 59.2584 7.44817 59.3049 6.71413ZM62.3564 6.49856L62.3575 6.48065C62.3949 5.88984 62.2464 5.51493 61.912 5.35592C61.8072 5.30734 61.6892 5.27889 61.5579 5.27057C61.4266 5.26225 61.2878 5.27742 61.1416 5.31609C60.9951 5.35774 60.8592 5.42253 60.7338 5.51045C60.4544 5.71144 60.2926 5.99628 60.2482 6.36497L62.3564 6.49856Z" fill="#011633"/>
<path d="M74.6688 5.01971C74.7403 5.04146 74.7456 5.15246 74.6847 5.35269C74.6229 5.55578 74.5419 5.6421 74.4418 5.61164L73.6695 5.37668L72.09 10.5684L74.1024 11.1806L74.6273 10.6418C74.6724 10.5962 74.735 10.5855 74.8151 10.6099C74.8923 10.6334 74.9511 10.656 74.9914 10.6776C75.0317 10.6992 75.0668 10.7224 75.0968 10.7472C75.1665 10.8058 75.1934 10.8609 75.1778 10.9124C75.1734 10.9267 75.169 10.9363 75.1644 10.9412L74.4077 11.9954L70.2629 10.7345C70.1971 10.7144 70.1898 10.62 70.2412 10.4513L70.2451 10.4384C70.2843 10.3097 70.3542 10.2185 70.4549 10.1647C70.4848 10.1488 70.534 10.1513 70.6027 10.1722L70.6156 10.1761C70.6261 10.1824 70.6386 10.1878 70.6529 10.1921C70.7187 10.2121 70.7872 10.2283 70.8584 10.2406C70.9431 10.2601 71.0105 10.2697 71.0607 10.2693C71.1486 10.2679 71.203 10.2329 71.2239 10.1643L72.7433 5.16991C72.7572 5.12414 72.7456 5.0956 72.7084 5.08429L72.009 4.87152C71.9289 4.84715 71.8981 4.75338 71.9165 4.59022C71.9229 4.54843 71.9314 4.51037 71.9418 4.47605C71.9407 4.46946 71.9414 4.46187 71.944 4.45329C71.9519 4.42754 71.9621 4.4041 71.9748 4.38296C71.9864 4.35522 71.9999 4.33122 72.0155 4.31095C72.0529 4.25983 72.0906 4.2385 72.1287 4.24695L74.6688 5.01971Z" fill="#011633"/>
<path d="M79.5142 9.9471C79.5145 10.0327 79.4942 10.1204 79.4531 10.2101C79.4121 10.2998 79.3624 10.3725 79.3042 10.428C79.2405 10.4811 79.1729 10.5209 79.1016 10.5474C78.951 10.6035 78.7949 10.5962 78.6332 10.5256C78.3804 10.4099 78.2587 10.2195 78.2682 9.95425C78.2721 9.87384 78.2971 9.78334 78.3431 9.68273C78.3878 9.58484 78.4587 9.50545 78.5556 9.44456C78.6525 9.38366 78.7614 9.34308 78.8825 9.32282C79.0062 9.30381 79.1353 9.302 79.2696 9.31741C79.4067 9.33405 79.5413 9.35948 79.6736 9.39368C79.9059 9.45385 80.1498 9.54238 80.4053 9.65927C80.6582 9.77492 80.8584 9.9158 81.006 10.0819C81.1563 10.2493 81.2542 10.4272 81.2995 10.6156C81.3765 10.9434 81.3136 11.3289 81.1109 11.7721L80.1466 13.8807L80.8318 14.1941C80.9052 14.2277 80.9052 14.3247 80.8318 14.4851C80.7995 14.5558 80.7536 14.6203 80.6941 14.6785C80.6358 14.7341 80.575 14.7556 80.5117 14.7431C80.3395 14.7169 80.112 14.6392 79.8293 14.5099C79.5438 14.3793 79.3872 14.3011 79.3595 14.2753C79.3306 14.2522 79.3082 14.2223 79.2922 14.1853C79.2617 14.1155 79.2529 13.9981 79.2659 13.833C78.8235 13.9233 78.3685 13.8615 77.9008 13.6477C77.4821 13.4562 77.204 13.1942 77.0667 12.8618C76.9355 12.552 76.9464 12.2298 77.0994 11.8954L77.105 11.8831C77.2952 11.4671 77.5975 11.2125 78.0117 11.1191C78.3753 11.0356 78.7584 11.0858 79.1608 11.2699L80.1682 11.7306C80.3759 11.2765 80.4715 10.9668 80.4551 10.8015C80.4426 10.6347 80.3945 10.5025 80.3108 10.4051C80.2311 10.3062 80.1043 10.2169 79.9303 10.1374L79.5142 9.9471ZM78.3349 13.0867C78.6775 13.2434 79.0741 13.2604 79.5247 13.1377L79.8884 12.3424L78.9993 11.9358C78.7818 11.8363 78.6046 11.7996 78.4677 11.8258C78.2204 11.8705 78.0576 11.9785 77.9792 12.1498C77.8325 12.4706 77.8737 12.7328 78.1029 12.9362C78.1705 12.9968 78.2479 13.0469 78.3349 13.0867Z" fill="#011633"/>
<path d="M84.8353 17.4348C84.7695 17.3933 84.7853 17.2954 84.8825 17.1412C84.9591 17.0198 85.0291 16.9508 85.0925 16.9342C85.156 16.9177 85.2016 16.9182 85.2294 16.9357C85.4925 17.1016 85.6583 17.1301 85.7268 17.0213L86.4372 15.8946C86.7466 15.4039 86.9213 15.0652 86.9613 14.8784C87.0029 14.689 86.9994 14.5348 86.9508 14.4158C86.9062 14.2958 86.8093 14.1888 86.6601 14.0947C86.3794 13.9177 85.93 13.8623 85.3121 13.9287L83.932 16.1177L84.5693 16.5195C84.6351 16.561 84.6193 16.6589 84.522 16.8131C84.4455 16.9345 84.3755 17.0035 84.312 17.0201C84.2486 17.0366 84.203 17.0361 84.1751 17.0186L82.2403 15.7987C82.1746 15.7572 82.1903 15.6594 82.2876 15.5051C82.3641 15.3837 82.4341 15.3147 82.4976 15.2982C82.561 15.2816 82.6067 15.2821 82.6345 15.2997L82.6724 15.3236C82.9633 15.507 83.1473 15.5823 83.2244 15.5497C83.2523 15.539 83.2759 15.5185 83.295 15.4881L84.8808 12.9729L84.2131 12.5519C84.1363 12.4999 84.1261 12.4069 84.1824 12.2727C84.1997 12.2341 84.2203 12.1959 84.2442 12.1579C84.3175 12.0416 84.395 11.9915 84.4768 12.0077C84.5626 12.0229 84.6637 12.0531 84.7802 12.0982C84.8966 12.1434 85.015 12.1968 85.1351 12.2584C85.3787 12.3766 85.5574 12.4716 85.6712 12.5434L85.6864 12.5529C85.7961 12.6256 85.8551 12.6805 85.8635 12.7176C85.8729 12.7589 85.8699 12.8029 85.8545 12.8498C85.84 12.9007 85.7897 12.9945 85.7036 13.1311L85.6582 13.2032C86.174 13.2315 86.6135 13.3053 86.9765 13.4247C87.0936 13.4631 87.2306 13.5318 87.3874 13.6307C87.5417 13.728 87.6757 13.8602 87.7895 14.0273C87.9048 14.192 87.9681 14.3662 87.9795 14.5501C88.001 14.8747 87.8587 15.2798 87.5525 15.7654L86.3638 17.6509L86.9518 18.0216C87.0201 18.0647 87.0056 18.1634 86.9083 18.3176C86.8318 18.439 86.7618 18.508 86.6983 18.5246C86.6349 18.5411 86.5892 18.5406 86.5614 18.5231L84.8353 17.4348Z" fill="#011633"/>
<path d="M93.0626 18.8185C93.0697 19.1615 92.9824 19.4403 92.8006 19.6546C92.6189 19.869 92.4199 20.0159 92.2037 20.0952C91.9898 20.1765 91.7698 20.2095 91.5437 20.1942C91.0872 20.1639 90.6594 19.9796 90.2603 19.6413C90.1713 19.5659 90.0916 19.4865 90.0211 19.4032C89.8624 19.4333 89.7501 19.4871 89.6844 19.5646C89.6186 19.6422 89.6004 19.7423 89.6296 19.8651C89.663 19.9875 89.7447 20.1038 89.8747 20.214L90.5692 20.8027C91.0162 21.1817 91.2556 21.5512 91.2874 21.9113C91.3126 22.1914 91.2034 22.4751 90.9598 22.7625C90.6969 23.0726 90.3209 23.2203 89.8317 23.2055C89.2553 23.1872 88.6649 22.9219 88.0606 22.4096C87.5656 21.99 87.2761 21.5525 87.1919 21.097C87.1571 20.9068 87.1591 20.738 87.1979 20.5905C87.2389 20.445 87.301 20.3232 87.3841 20.2252C87.4673 20.1271 87.5625 20.0471 87.6698 19.9852C87.7794 19.9253 87.8935 19.8809 88.0121 19.852C88.1325 19.8209 88.2571 19.8011 88.3858 19.7926L88.7933 19.7558C88.7949 19.6984 88.7956 19.6421 88.7953 19.587C88.795 19.5319 88.8 19.4774 88.8104 19.4235C88.836 19.2962 88.9 19.1721 89.0025 19.0513C89.103 18.9327 89.3351 18.8531 89.6988 18.8125C89.6307 18.5784 89.6198 18.3438 89.6662 18.1088C89.7168 17.8734 89.8262 17.6565 89.9944 17.458C90.1626 17.2596 90.351 17.1253 90.5594 17.0551C90.7721 16.9845 90.9877 16.9615 91.206 16.9859C91.6321 17.0335 92.031 17.2149 92.4028 17.53C92.5373 17.6441 92.6563 17.7743 92.7595 17.9206L94.0116 18.9821C94.2169 19.1561 94.2845 19.3329 94.2145 19.5127C94.1934 19.5653 94.1625 19.6156 94.1219 19.6635C94.0813 19.7114 94.0324 19.7483 93.9751 19.7742C93.9179 19.8002 93.8617 19.8133 93.8065 19.8136C93.6878 19.8149 93.5874 19.7807 93.5053 19.7111C93.4988 19.7095 93.4945 19.7078 93.4922 19.7058C93.4146 19.6401 93.3671 19.5783 93.3496 19.5203C93.3344 19.4643 93.3207 19.4018 93.3087 19.3328C93.2785 19.1464 93.1965 18.975 93.0626 18.8185ZM88.1353 20.6915C87.8473 21.0313 87.978 21.4342 88.5277 21.9001C88.8356 22.1611 89.1564 22.3214 89.4901 22.3808C89.8628 22.4498 90.14 22.3771 90.3217 22.1627C90.4745 21.9826 90.4547 21.7561 90.2626 21.4835C90.1952 21.3872 90.0988 21.2859 89.9734 21.1796L89.0429 20.3907L88.8193 20.4187C88.4812 20.4614 88.2533 20.5523 88.1353 20.6915ZM90.7395 18.0426C90.5655 18.2479 90.4858 18.4528 90.5006 18.6573C90.5172 18.8596 90.5963 19.0207 90.7377 19.1405C90.8791 19.2604 91.0084 19.3367 91.1257 19.3695C91.2452 19.4042 91.3636 19.4125 91.4809 19.3943C91.7113 19.3583 91.9106 19.2412 92.0788 19.0427L92.0875 19.0325C92.2209 18.8751 92.2801 18.692 92.265 18.4833C92.2515 18.268 92.1763 18.1024 92.0395 17.9864C91.9026 17.8704 91.7785 17.7926 91.667 17.7529C91.5556 17.7133 91.4451 17.6981 91.3355 17.7071C91.1079 17.7258 90.9091 17.8356 90.7389 18.0363C90.737 18.0386 90.7372 18.0407 90.7395 18.0426Z" fill="#011633"/>
<path d="M95.6036 26.6367C95.0285 26.512 94.6138 26.3067 94.3594 26.0207C93.8586 25.4578 93.7624 24.8952 94.0705 24.3329C94.1725 24.1462 94.3229 23.9644 94.5218 23.7875L96.2274 22.2703L95.8071 21.7978C95.7336 21.7151 95.7817 21.5983 95.9515 21.4473C96.0632 21.3479 96.1445 21.3156 96.1954 21.3504C96.6253 21.6402 96.9784 21.9404 97.2546 22.2509C97.342 22.3492 97.2984 22.4801 97.1236 22.6435L95.3476 24.2233C94.912 24.6108 94.7511 24.954 94.8649 25.253C94.8977 25.3438 94.9588 25.4395 95.0483 25.54C95.1357 25.6383 95.2303 25.7222 95.3322 25.7917C95.436 25.8634 95.5353 25.9211 95.6302 25.9648C95.7233 26.002 95.8127 26.0305 95.8984 26.0504L96.1338 26.0991L98.0874 24.3613L97.679 23.9022C97.5975 23.8106 97.6395 23.6913 97.8048 23.5442C97.9098 23.4508 97.9993 23.4232 98.0733 23.4615C98.1515 23.4999 98.2373 23.5536 98.3307 23.6226C98.4219 23.6936 98.5149 23.7689 98.6097 23.8486C98.7871 24.003 98.9236 24.1317 99.0192 24.2347L99.0281 24.2447C99.1136 24.3408 99.154 24.4109 99.1493 24.4551C99.1508 24.5018 99.1354 24.5475 99.1031 24.5922C99.0592 24.6553 98.9669 24.7494 98.8261 24.8746L96.3029 27.1191L96.8036 27.6821C96.8573 27.7424 96.8115 27.8372 96.6663 27.9663C96.5099 28.1054 96.3843 28.1351 96.2894 28.0555C96.051 27.8594 95.8523 27.672 95.6933 27.4933C95.5343 27.3146 95.4499 27.2016 95.4399 27.1545C95.43 27.1073 95.4307 27.0586 95.4421 27.0085C95.4595 26.929 95.5133 26.8051 95.6036 26.6367Z" fill="#011633"/>
<path d="M101.465 28.6882C101.421 28.7614 101.358 28.8256 101.276 28.8808C101.194 28.936 101.114 28.9721 101.035 28.9891C100.953 29.0011 100.875 28.9999 100.8 28.9854C100.642 28.9547 100.513 28.8671 100.412 28.7225C100.256 28.492 100.252 28.266 100.398 28.0447C100.443 27.9781 100.512 27.9139 100.604 27.852C100.693 27.7918 100.795 27.761 100.909 27.7595C101.023 27.7581 101.138 27.7803 101.251 27.8261C101.367 27.8744 101.478 27.9402 101.585 28.0233C101.693 28.109 101.795 28.2009 101.89 28.2991C102.056 28.4715 102.218 28.6742 102.376 28.9072C102.531 29.1377 102.628 29.3623 102.668 29.5811C102.709 29.8023 102.699 30.0051 102.64 30.1895C102.535 30.5093 102.28 30.8055 101.876 31.078L99.9537 32.3746L100.375 32.9992C100.42 33.0661 100.37 33.1489 100.223 33.2476C100.159 33.291 100.086 33.3221 100.005 33.3408C99.9263 33.3578 99.8632 33.3445 99.8157 33.3008C99.6824 33.1887 99.5288 33.0038 99.3549 32.746C99.1794 32.4857 99.0865 32.3374 99.0764 32.3009C99.0638 32.2662 99.0602 32.2289 99.0658 32.189C99.0762 32.1135 99.13 32.0087 99.2271 31.8747C98.8025 31.7211 98.4464 31.4311 98.1589 31.0048C97.9014 30.623 97.8007 30.2546 97.8568 29.8993C97.9065 29.5665 98.0837 29.2973 98.3886 29.0917L98.3998 29.0841C98.779 28.8283 99.1697 28.7686 99.5718 28.9049C99.9257 29.0233 100.226 29.2658 100.474 29.6327L101.093 30.5511C101.507 30.2719 101.75 30.0574 101.822 29.9078C101.899 29.7589 101.927 29.6211 101.906 29.4944C101.89 29.3684 101.828 29.2261 101.721 29.0675L101.465 28.6882ZM98.8217 30.7524C99.0324 31.0647 99.362 31.286 99.8105 31.4163L100.536 30.9273L99.9888 30.1167C99.8551 29.9184 99.723 29.7947 99.5925 29.7457C99.3582 29.6549 99.1629 29.6622 99.0067 29.7675C98.7142 29.9648 98.6127 30.21 98.7022 30.503C98.7284 30.59 98.7682 30.6731 98.8217 30.7524Z" fill="#011633"/>
<path d="M105.792 36.2903C105.662 36.6081 105.471 36.8293 105.219 36.954C104.968 37.0787 104.727 37.1346 104.497 37.1217C104.268 37.1115 104.053 37.0545 103.852 36.9507C103.445 36.7419 103.125 36.4031 102.893 35.9342C102.841 35.8297 102.799 35.7252 102.768 35.6208C102.61 35.5854 102.486 35.5903 102.394 35.6354C102.303 35.6805 102.247 35.7652 102.225 35.8895C102.207 36.0151 102.236 36.1543 102.312 36.307L102.716 37.1229C102.976 37.648 103.049 38.0822 102.935 38.4254C102.847 38.6925 102.635 38.9096 102.297 39.0768C101.933 39.2573 101.529 39.2437 101.086 39.036C100.564 38.7907 100.127 38.313 99.7754 37.6029C99.4875 37.0215 99.3952 36.505 99.4986 36.0535C99.5421 35.8651 99.6109 35.7109 99.705 35.591C99.8003 35.4737 99.9056 35.3865 100.021 35.3294C100.136 35.2724 100.255 35.2367 100.378 35.2225C100.503 35.2109 100.625 35.2154 100.745 35.2359C100.868 35.2551 100.99 35.2864 101.112 35.3296L101.501 35.4575C101.525 35.4054 101.548 35.354 101.569 35.3033C101.591 35.2526 101.617 35.2045 101.648 35.1592C101.722 35.0525 101.83 34.964 101.972 34.8937C102.111 34.8247 102.356 34.8437 102.706 34.9507C102.736 34.7088 102.819 34.4891 102.955 34.2917C103.095 34.0957 103.281 33.94 103.515 33.8246C103.748 33.7091 103.974 33.6605 104.193 33.6788C104.416 33.6983 104.623 33.7626 104.814 33.8717C105.186 34.0844 105.481 34.4091 105.697 34.8458C105.775 35.0039 105.833 35.1706 105.869 35.3459L106.598 36.8169C106.717 37.0581 106.709 37.2472 106.574 37.3844C106.533 37.4244 106.485 37.4583 106.429 37.4862C106.373 37.514 106.313 37.5285 106.25 37.5296C106.187 37.5307 106.13 37.5204 106.08 37.4989C105.97 37.453 105.892 37.3818 105.844 37.2853C105.839 37.2813 105.835 37.278 105.834 37.2753C105.789 37.1842 105.77 37.1086 105.777 37.0484C105.785 36.9909 105.797 36.9281 105.813 36.86C105.86 36.677 105.852 36.4871 105.792 36.2903ZM100.526 36.0554C100.126 36.2531 100.087 36.6748 100.406 37.3206C100.585 37.6823 100.816 37.9566 101.099 38.1436C101.414 38.3547 101.697 38.3979 101.949 38.2732C102.161 38.1684 102.232 37.9527 102.164 37.6262C102.141 37.5111 102.092 37.3799 102.019 37.2325L101.478 36.1393L101.262 36.0763C100.934 35.9814 100.689 35.9745 100.526 36.0554ZM103.967 34.6567C103.726 34.7761 103.571 34.9326 103.504 35.1262C103.439 35.3185 103.447 35.4977 103.53 35.6638C103.612 35.83 103.7 35.9513 103.795 36.0279C103.891 36.1072 103.996 36.1617 104.111 36.1916C104.337 36.2499 104.566 36.2214 104.799 36.106L104.812 36.1C104.996 36.0085 105.123 35.8639 105.192 35.6662C105.265 35.4633 105.262 35.2814 105.182 35.1207C105.103 34.9599 105.02 34.8392 104.933 34.7587C104.846 34.6781 104.751 34.6202 104.647 34.5851C104.431 34.512 104.204 34.5339 103.969 34.6507C103.966 34.652 103.965 34.654 103.967 34.6567Z" fill="#011633"/>
<path d="M105.739 40.6964C106.09 40.5776 106.421 40.5303 106.732 40.5544C107.037 40.5777 107.312 40.6549 107.559 40.7862C108.053 41.0544 108.399 41.4755 108.597 42.0495L108.601 42.0622C108.779 42.589 108.751 43.0515 108.516 43.4497C108.285 43.8469 107.859 44.1504 107.238 44.3602C107.105 44.4052 106.97 44.3831 106.832 44.2939C106.699 44.2066 106.601 44.0723 106.54 43.891L105.782 41.6521C105.137 41.9273 104.79 42.3018 104.742 42.7758C104.727 42.9262 104.744 43.0736 104.792 43.218C104.841 43.3625 104.9 43.4861 104.97 43.5888C105.042 43.6906 105.12 43.7858 105.204 43.8743C105.29 43.9618 105.381 44.0446 105.477 44.1227C105.677 44.2853 105.784 44.3851 105.796 44.4219C105.805 44.4569 105.8 44.4994 105.783 44.5496C105.76 44.5951 105.732 44.6425 105.698 44.6918C105.615 44.8019 105.538 44.8708 105.465 44.8985L105.457 44.9014C105.389 44.9244 105.338 44.9241 105.305 44.9006C104.727 44.5184 104.327 43.9973 104.104 43.3374C103.903 42.7454 103.954 42.2139 104.255 41.7426C104.547 41.2808 105.042 40.9321 105.739 40.6964ZM107.097 43.4375L107.114 43.4318C107.674 43.2421 107.965 42.9624 107.985 42.5926C107.99 42.4772 107.972 42.3572 107.929 42.2326C107.887 42.108 107.821 41.9853 107.729 41.8647C107.635 41.7451 107.524 41.6439 107.395 41.5613C107.103 41.3792 106.778 41.3376 106.42 41.4366L107.097 43.4375Z" fill="#011633"/>
<circle cx="5.53308" cy="57.1776" r="3.07409" fill="#FB5517"/>
<circle cx="107.593" cy="57.1776" r="3.07409" fill="#FB5517"/>
<circle cx="56.6065" cy="55.2608" r="40.578" stroke="#011633" stroke-width="2.45927"/>
</svg>
