<svg width="183" height="124" viewBox="0 0 183 124" fill="none" xmlns="http://www.w3.org/2000/svg">
<path d="M41.1566 49.6V52.5177C50.9558 53.4902 59.5301 57.3804 66.8795 64.1883C74.2289 70.5098 77.9036 78.5333 77.9036 88.2588C77.9036 97.498 74.4739 105.765 67.6145 113.059C60.755 120.353 51.4458 124 39.6867 124C28.4177 124 18.8635 118.894 11.0241 108.682C3.6747 98.4706 0 85.8274 0 70.7529C0 55.6784 6.61446 40.1177 19.8434 24.0706C33.5622 8.02354 47.2811 0 61 0C65.4096 0 67.6145 0.729414 67.6145 2.18825C67.6145 3.64708 66.6345 4.37651 64.6747 4.37651C62.7149 4.37651 59.0402 8.02356 53.6506 15.3177C45.3213 26.0157 41.1566 37.4431 41.1566 49.6ZM146.253 49.6V52.5177C156.052 53.4902 164.627 57.3804 171.976 64.1883C179.325 70.5098 183 78.5333 183 88.2588C183 97.498 179.57 105.765 172.711 113.059C166.341 120.353 157.277 124 145.518 124C134.249 124 124.695 118.894 116.855 108.682C109.016 98.4706 105.096 85.8274 105.096 70.7529C105.096 55.6784 111.956 40.1177 125.675 24.0706C139.394 8.02354 153.112 0 166.831 0C170.751 0 172.711 0.729414 172.711 2.18825C172.711 3.64708 172.221 4.37651 171.241 4.37651C168.301 4.37651 164.137 8.02356 158.747 15.3177C150.418 26.502 146.253 37.9294 146.253 49.6Z" fill="#FB5517"/>
</svg>
