<svg width="42" height="42" viewBox="0 0 42 42" fill="none" xmlns="http://www.w3.org/2000/svg">
<path d="M37.4321 0.208984H4.49174C2.01186 0.208984 -0.00012207 2.20835 -0.00012207 4.67268V37.4065C-0.00012207 39.8708 2.01186 41.8702 4.49174 41.8702H37.4321C39.9119 41.8702 41.9239 39.8708 41.9239 37.4065V4.67268C41.9239 2.20835 39.9119 0.208984 37.4321 0.208984ZM32.856 14.9764C32.8747 15.2368 32.8747 15.5065 32.8747 15.7668C32.8747 23.8294 26.6984 33.1195 15.4126 33.1195C11.9314 33.1195 8.70286 32.1151 5.98903 30.3855C6.485 30.4413 6.96227 30.4599 7.4676 30.4599C10.3405 30.4599 12.9795 29.4927 15.085 27.856C12.3899 27.8002 10.1253 26.0426 9.34857 23.6248C10.2937 23.7643 11.1453 23.7643 12.1185 23.5132C9.31113 22.946 7.20557 20.4909 7.20557 17.5244V17.45C8.01972 17.9057 8.97424 18.1847 9.97556 18.2219C9.13373 17.6654 8.44363 16.9105 7.96682 16.0246C7.49002 15.1386 7.24135 14.1491 7.24301 13.1444C7.24301 12.0099 7.54246 10.9684 8.07587 10.0663C11.0985 13.7675 15.6372 16.1853 20.728 16.4457C19.8577 12.3075 22.9739 8.9504 26.7171 8.9504C28.4858 8.9504 30.0766 9.68505 31.1996 10.8754C32.5846 10.615 33.9134 10.1035 35.0926 9.40607C34.634 10.8196 33.6701 12.0099 32.3974 12.7631C33.6327 12.6329 34.8305 12.2889 35.9348 11.8146C35.1019 13.0328 34.0538 14.1116 32.856 14.9764Z" fill="#DFDFDF"/>
</svg>
