<svg width="159" height="43" viewBox="0 0 159 43" fill="none" xmlns="http://www.w3.org/2000/svg">
<path d="M33.5402 27.4039C33.5402 37.4853 28.9904 42.526 19.8909 42.526C14.9817 42.526 11.4576 41.1935 9.3186 38.5285C7.35493 36.0914 6.37309 32.2605 6.37309 27.0357V6.54866C6.37309 6.26813 6.25912 6.12787 6.0312 6.12787H1.74443C1.25351 6.12787 0.920384 5.65449 0.745056 4.70771C0.70999 4.46226 0.683691 4.23433 0.666158 4.02393C0.666158 2.95443 0.894085 2.41968 1.34994 2.41968H16.3931C16.8314 2.41968 17.0506 3.03333 17.0506 4.26063C17.0506 5.50546 16.7437 6.12787 16.1301 6.12787H11.9222V26.7991C11.9222 32.7777 13.6229 36.3807 17.0243 37.608C18.0938 37.9938 19.3298 38.1866 20.7325 38.1866C22.1351 38.1866 23.3799 37.9675 24.4669 37.5291C25.554 37.0733 26.4482 36.3807 27.1495 35.4515C28.517 33.6456 29.2008 30.7878 29.2008 26.878V6.54866C29.2008 6.26813 29.0868 6.12787 28.8589 6.12787H25.0718C24.5634 6.12787 24.2215 5.65449 24.0462 4.70771C24.0111 4.46226 23.9936 4.2168 23.9936 3.97134C23.9936 2.9369 24.2215 2.41968 24.6773 2.41968H38.2477C38.7036 2.41968 38.9315 2.98073 38.9315 4.10283C38.9315 4.94441 38.8088 5.49669 38.5633 5.75968C38.3354 6.00514 38.1425 6.12787 37.9847 6.12787H33.5402V27.4039ZM69.1756 38.2918C69.6315 38.2918 69.8594 38.8266 69.8594 39.8961C69.8594 40.685 69.7279 41.2286 69.4649 41.5266C69.2019 41.8247 69.0003 41.9825 68.86 42C68.7373 42 68.4918 42.0175 68.1236 42.0526C67.773 42.1052 67.3171 42.1578 66.7561 42.2104C65.2307 42.3507 64.0473 42.4208 63.2057 42.4208C62.3466 42.4208 61.7943 42.3857 61.5488 42.3156C61.3034 42.263 61.093 42.1578 60.9177 42C60.5845 41.7195 60.2514 41.1146 59.9183 40.1854C57.7793 41.7458 55.2633 42.526 52.3704 42.526C48.969 42.526 46.3479 41.2461 44.5069 38.6863C42.7361 36.2317 41.8507 32.8479 41.8507 28.5348V28.4559C41.8507 24.248 43.1569 20.9256 45.7693 18.4885C48.1538 16.2618 51.2308 15.1485 55.0003 15.1485C56.7711 15.1485 58.314 15.3238 59.629 15.6745V4.94441H55.0003C54.4919 4.94441 54.15 4.51485 53.9747 3.65575C53.9396 3.41029 53.9221 3.14729 53.9221 2.86677C53.9221 2.02519 54.1588 1.51674 54.6321 1.34142C55.1055 1.16609 55.7279 1.01706 56.4994 0.894329C57.2708 0.771599 58.0773 0.675168 58.9189 0.605037C60.5319 0.464775 62.0836 0.385877 63.5739 0.368344H63.6002C64.3366 0.368344 64.7223 1.11349 64.7573 2.60378V38.2918H69.1756ZM53.0805 38.4759C55.3422 38.4759 57.5251 37.5993 59.629 35.846V20.908C58.1738 19.7684 56.5257 19.1986 54.6847 19.1986C51.4061 19.1986 49.1531 20.7853 47.9258 23.9587C47.47 25.1685 47.2421 26.6939 47.2421 28.5348C47.2421 30.3757 47.4262 31.9274 47.7943 33.1898C48.1625 34.4346 48.6272 35.4515 49.1882 36.2405C50.2752 37.7308 51.5727 38.4759 53.0805 38.4759ZM79.8005 18.8567C80.0109 19.3125 80.1161 19.8298 80.1161 20.4083C80.1161 20.9869 80.0284 21.4954 79.8531 21.9337C79.6427 22.372 79.3797 22.749 79.0641 23.0646C78.3979 23.7308 77.5475 24.0727 76.5131 24.0902C74.8825 24.0902 73.7692 23.3714 73.1731 21.9337C72.9978 21.4954 72.9101 20.9519 72.9101 20.3031C72.9101 19.672 73.0942 19.0759 73.4624 18.5148C73.8306 17.9538 74.3127 17.4716 74.9088 17.0683C75.5225 16.6651 76.2063 16.3407 76.9602 16.0953C77.7316 15.8498 78.5118 15.657 79.3008 15.5167C80.6859 15.2712 82.2025 15.1485 83.8506 15.1485C85.4811 15.1485 86.8925 15.4115 88.0847 15.9375C89.2945 16.4635 90.25 17.1735 90.9514 18.0677C92.1611 19.6281 92.766 21.8373 92.766 24.6951V38.2918H97.1843C97.6577 38.2918 97.8944 38.809 97.8944 39.8435C97.8944 40.2993 97.8067 40.7552 97.6314 41.211C97.456 41.6493 97.1843 41.9123 96.8161 42C95.8342 42.2805 94.4316 42.4208 92.6082 42.4208C90.7673 42.4208 89.7416 42.3857 89.5312 42.3156C89.3208 42.263 89.1279 42.1578 88.9526 42C88.6195 41.7019 88.2864 41.0971 87.9532 40.1854C85.8142 41.7458 83.2369 42.526 80.2213 42.526C77.5212 42.526 75.3998 41.8071 73.8569 40.3694C72.4016 39.037 71.674 37.2924 71.674 35.1359V35.057C71.674 32.3745 72.6646 30.2793 74.6458 28.7715C76.3816 27.439 78.5469 26.7728 81.1418 26.7728H87.6377C87.6377 23.8448 87.3922 21.96 86.9013 21.1184C86.4279 20.2593 85.8493 19.672 85.1655 19.3564C84.4993 19.0233 83.6051 18.8567 82.483 18.8567H79.8005ZM81.1681 38.4759C83.3772 38.4759 85.5337 37.5993 87.6377 35.846V30.7176H81.9044C80.5018 30.7176 79.4674 30.9543 78.8011 31.4277C77.5914 32.2693 76.9865 33.2424 76.9865 34.3469C76.9865 36.4158 77.8456 37.7132 79.5638 38.2392C80.0723 38.397 80.607 38.4759 81.1681 38.4759ZM107.309 18.8567C107.52 19.3125 107.625 19.8298 107.625 20.4083C107.625 20.9869 107.537 21.4954 107.362 21.9337C107.152 22.372 106.889 22.749 106.573 23.0646C105.907 23.7308 105.057 24.0727 104.022 24.0902C102.392 24.0902 101.278 23.3714 100.682 21.9337C100.507 21.4954 100.419 20.9519 100.419 20.3031C100.419 19.672 100.603 19.0759 100.971 18.5148C101.34 17.9538 101.822 17.4716 102.418 17.0683C103.031 16.6651 103.715 16.3407 104.469 16.0953C105.241 15.8498 106.021 15.657 106.81 15.5167C108.195 15.2712 109.711 15.1485 111.36 15.1485C112.99 15.1485 114.401 15.4115 115.594 15.9375C116.803 16.4635 117.759 17.1735 118.46 18.0677C119.67 19.6281 120.275 21.8373 120.275 24.6951V38.2918H124.693C125.167 38.2918 125.403 38.809 125.403 39.8435C125.403 40.2993 125.316 40.7552 125.14 41.211C124.965 41.6493 124.693 41.9123 124.325 42C123.343 42.2805 121.941 42.4208 120.117 42.4208C118.276 42.4208 117.251 42.3857 117.04 42.3156C116.83 42.263 116.637 42.1578 116.462 42C116.128 41.7019 115.795 41.0971 115.462 40.1854C113.323 41.7458 110.746 42.526 107.73 42.526C105.03 42.526 102.909 41.8071 101.366 40.3694C99.9106 39.037 99.183 37.2924 99.183 35.1359V35.057C99.183 32.3745 100.174 30.2793 102.155 28.7715C103.891 27.439 106.056 26.7728 108.651 26.7728H115.147C115.147 23.8448 114.901 21.96 114.41 21.1184C113.937 20.2593 113.358 19.672 112.675 19.3564C112.008 19.0233 111.114 18.8567 109.992 18.8567H107.309ZM108.677 38.4759C110.886 38.4759 113.043 37.5993 115.147 35.846V30.7176H109.413C108.011 30.7176 106.976 30.9543 106.31 31.4277C105.1 32.2693 104.495 33.2424 104.495 34.3469C104.495 36.4158 105.355 37.7132 107.073 38.2392C107.581 38.397 108.116 38.4759 108.677 38.4759ZM145.207 42C144.751 42 144.523 41.4652 144.523 40.3957C144.523 39.5542 144.654 38.9931 144.917 38.7126C145.18 38.4321 145.408 38.2918 145.601 38.2918C147.425 38.2918 148.336 37.9149 148.336 37.1609V29.3501C148.336 25.9487 148.143 23.722 147.758 22.6701C147.372 21.6006 146.872 20.8467 146.259 20.4083C145.662 19.9525 144.847 19.7246 143.813 19.7246C141.867 19.7246 139.465 20.8554 136.607 23.1172V38.2918H141.025C141.481 38.2918 141.709 38.8266 141.709 39.8961C141.709 40.7376 141.577 41.2987 141.314 41.5792C141.051 41.8597 140.823 42 140.631 42H127.218C126.762 42 126.534 41.4652 126.534 40.3957C126.534 39.5542 126.666 38.9931 126.929 38.7126C127.192 38.4321 127.42 38.2918 127.612 38.2918H127.875C129.892 38.2918 131.04 38.0902 131.321 37.6869C131.426 37.5467 131.478 37.3713 131.478 37.1609V19.7246H126.85C126.306 19.707 125.964 19.2775 125.824 18.4359C125.789 18.1904 125.772 17.9362 125.772 17.6732C125.772 16.8667 125.999 16.3758 126.455 16.2005C126.929 16.0076 127.525 15.841 128.244 15.7008C128.962 15.5605 129.716 15.4553 130.505 15.3852C132.083 15.2099 133.267 15.1222 134.056 15.1222H134.161C134.932 15.1397 135.397 15.2274 135.555 15.3852C135.73 15.5605 135.853 15.7885 135.923 16.069C136.011 16.367 136.055 16.9894 136.055 17.9362V18.4359C138.702 16.9631 141.113 15.955 143.287 15.4115C143.988 15.2362 144.882 15.1485 145.969 15.1485C147.039 15.1485 148.117 15.3852 149.204 15.8586C150.291 16.3144 151.15 16.9807 151.781 17.8573C152.904 19.4002 153.465 21.8548 153.465 25.2211V38.2918H157.541C158.014 38.2918 158.251 38.8266 158.251 39.8961C158.251 40.7376 158.12 41.2987 157.857 41.5792C157.594 41.8597 157.366 42 157.173 42H145.207Z" fill="#F6FAFF"/>
</svg>
