<svg width="42" height="42" viewBox="0 0 42 42" fill="none" xmlns="http://www.w3.org/2000/svg">
<path d="M17.4409 16.0272L26.3295 21.0582L17.4409 26.0891V16.0272ZM41.8284 4.67268V37.4065C41.8284 39.8708 39.8211 41.8702 37.3468 41.8702H4.48151C2.00728 41.8702 -0.00012207 39.8708 -0.00012207 37.4065V4.67268C-0.00012207 2.20835 2.00728 0.208984 4.48151 0.208984H37.3468C39.8211 0.208984 41.8284 2.20835 41.8284 4.67268ZM37.907 21.0675C37.907 21.0675 37.907 15.5251 37.1974 12.8654C36.8053 11.3961 35.6569 10.243 34.191 9.85244C31.5487 9.13638 20.9142 9.13638 20.9142 9.13638C20.9142 9.13638 10.2796 9.13638 7.63733 9.85244C6.17146 10.243 5.02304 11.3961 4.6309 12.8654C3.92131 15.5158 3.92131 21.0675 3.92131 21.0675C3.92131 21.0675 3.92131 26.6099 4.6309 29.2695C5.02304 30.7388 6.17146 31.8455 7.63733 32.236C10.2796 32.9428 20.9142 32.9428 20.9142 32.9428C20.9142 32.9428 31.5487 32.9428 34.191 32.2267C35.6569 31.8362 36.8053 30.7295 37.1974 29.2602C37.907 26.6099 37.907 21.0675 37.907 21.0675Z" fill="#DFDFDF"/>
</svg>
